<?xml version="1.0" encoding="UTF-8"?>
<svg xmlns="http://www.w3.org/2000/svg" xmlns:xlink="http://www.w3.org/1999/xlink" id="Calque_1" data-name="Calque 1" viewBox="0 0 895.86 793">
  <defs>
    <style>
      .cls-1 {
        fill: #f8fafb;
      }

      .cls-2 {
        fill: #fff;
      }

      .cls-3 {
        fill: none;
        stroke: #111;
        stroke-linecap: round;
        stroke-linejoin: round;
        stroke-width: 10px;
      }

      .cls-4 {
        fill: url(#Dégradé_sans_nom_4);
      }

      .cls-5 {
        fill: url(#Dégradé_sans_nom_7);
      }
    </style>
    <linearGradient id="Dégradé_sans_nom_4" data-name="Dégradé sans nom 4" x1="274.43" y1="534.26" x2="792.71" y2="534.26" gradientUnits="userSpaceOnUse">
      <stop offset="0" stop-color="#2e5597"></stop>
      <stop offset="1" stop-color="#59aa41"></stop>
    </linearGradient>
    <linearGradient id="Dégradé_sans_nom_7" data-name="Dégradé sans nom 7" x1="89.38" y1="274.6" x2="577.59" y2="274.6" gradientUnits="userSpaceOnUse">
      <stop offset="0" stop-color="#2e5597"></stop>
      <stop offset=".64" stop-color="#59aa41"></stop>
      <stop offset=".99" stop-color="#59aa41"></stop>
    </linearGradient>
  </defs>
  <path class="cls-4" d="M792.48,505.38c-4.83-80.42-84.38-123.81-117.68-141.97-93.96-51.25-233.91-55.85-326.13,25.4-17.24,15.19-79.75,70.26-73.85,138.55,8.93,103.41,169.63,178.3,297.17,171.03,33.68-1.92,61.21-9.35,80.02-15.77,17.37,18.87,34.74,37.73,52.12,56.6,3.72,3.49,9.06,4.15,12.91,1.82,4.18-2.53,4.72-7.44,4.77-8.02v-90.35c9.05-7.12,75.25-60.87,70.66-137.27Z"></path>
  <path class="cls-5" d="M577.58,369.27V71.61c-.07-1.73-.51-7.55-5.04-12.77-4.19-4.83-9.34-6.23-11.1-6.62-247.33-.15-427.02-.1-443.28-.38-2.7-.05-11.14-.3-18.44,4.98-7.26,5.25-9.57,12.46-10.18,14.65V371.59c-.23,1.96-.81,9.04,3.76,16.01,4.07,6.2,9.8,8.61,11.78,9.34h40.89c-1.6,30.24-3.21,60.49-4.81,90.73,.03,.64,.32,5.09,4.04,7.83,3.32,2.44,8.03,2.53,11.82,.16l95.93-97.08h216.87c25.21,.11,50.42,.23,75.64,.34,1.48,.14,15.49,1.25,25.04-9.62,7.14-8.13,7.15-17.69,7.09-20.03Z"></path>
  <path class="cls-3" d="M718.42,263.68l42.91,25.46c-.26-15.77-3.09-51.68-27.19-86.96-38.49-56.34-100.71-66.38-111.75-67.97"></path>
  <path class="cls-3" d="M797.69,251.76c-12.12,12.46-24.24,24.92-36.37,37.38"></path>
  <path class="cls-3" d="M190.48,597.64l-42.91-25.46c.26,15.77,3.09,51.68,27.19,86.96,38.49,56.34,100.71,66.38,111.75,67.97"></path>
  <path class="cls-3" d="M111.21,609.57c12.12-12.46,24.24-24.92,36.37-37.38"></path>
  <circle class="cls-1" cx="263.98" cy="230.92" r="19.24"></circle>
  <circle class="cls-1" cx="333.48" cy="230.92" r="19.24"></circle>
  <circle class="cls-1" cx="402.98" cy="230.92" r="19.24"></circle>
  <circle class="cls-2" cx="457.92" cy="519.01" r="19.24"></circle>
  <circle class="cls-2" cx="527.42" cy="519.01" r="19.24"></circle>
  <circle class="cls-2" cx="596.92" cy="519.01" r="19.24"></circle>
</svg>
