<?xml version="1.0" encoding="UTF-8"?>
<svg xmlns="http://www.w3.org/2000/svg" xmlns:xlink="http://www.w3.org/1999/xlink" id="Calque_1" data-name="Calque 1" viewBox="0 0 895.86 793">
  <defs>
    <style>
      .cls-1 {
        fill: #ebcc82;
      }

      .cls-2 {
        fill: #edebfb;
      }

      .cls-3 {
        fill: #d2d3f9;
      }

      .cls-4 {
        fill: #d1aa66;
      }

      .cls-5 {
        fill: #59aa41;
      }

      .cls-6 {
        fill: #2b2a2a;
      }

      .cls-7 {
        fill: #3d3d3b;
      }

      .cls-8 {
        fill: url(#Dégradé_sans_nom_10);
      }

      .cls-9 {
        fill: url(#Dégradé_sans_nom_10-2);
      }
    </style>
    <linearGradient id="Dégradé_sans_nom_10" data-name="Dégradé sans nom 10" x1="259.56" y1="317.03" x2="439.49" y2="317.03" gradientUnits="userSpaceOnUse">
      <stop offset="0" stop-color="#2e5597"></stop>
      <stop offset=".99" stop-color="#59aa41"></stop>
    </linearGradient>
    <linearGradient id="Dégradé_sans_nom_10-2" data-name="Dégradé sans nom 10" x1="-5230.6" y1="365.53" x2="-5113.28" y2="365.53" gradientTransform="translate(-4686.77) rotate(-180) scale(1 -1)" xlink:href="#Dégradé_sans_nom_10"></linearGradient>
  </defs>
  <path class="cls-4" d="M403.9,11.19c20.76-1.57,51.76-1.76,87.64,6.76,21.26,5.04,150.16,38.28,198.53,160.92,43.86,111.21-11.29,212.76-25.82,239.52-34.91,64.28-84.01,101.23-111.63,118.95h-75.75L403.9,11.19Z"></path>
  <path class="cls-1" d="M260.81,546.34c-5.63-7.01-11.26-14.02-16.89-21.04-9.19-8.18-126.47-116.26-102.33-271.4C159.55,138.39,251.2,26.58,377.78,12.08c99.3-11.38,203.99,37.89,252.22,121.75,26.17,45.51,28.59,88.81,29.64,112.28,6.34,142.33-102.71,242.52-119.94,258.36-16.34,15.02-31.18,25.9-41.4,32.87-79.16,3-158.33,6-237.49,9Z"></path>
  <path class="cls-7" d="M275.43,681.31c20.47,51.86,70.52,86.24,125.97,86.61,56.53,.37,107.82-34.67,128.22-87.73-84.73,.37-169.46,.75-254.2,1.12Z"></path>
  <path class="cls-2" d="M251.81,610.45h303.29c17.23-4.03,29.35-19.75,28.84-37.38-.51-17.77-13.71-32.86-31.33-35.73H260.81c-19.7,.56-35.65,15.99-36.88,34.74-1.13,17.26,10.46,33.55,27.88,38.37Z"></path>
  <path class="cls-2" d="M250.41,680.19h303.29c17.23-4.03,29.35-19.75,28.84-37.38-.51-17.77-13.71-32.86-31.33-35.73H259.41c-19.7,.56-35.65,15.99-36.88,34.74-1.13,17.26,10.46,33.55,27.88,38.37Z"></path>
  <path class="cls-3" d="M517.73,537.34c2.57,6.78,8.57,25.4,2.28,47.45-3.77,13.2-10.48,22.5-15.01,27.8,1.37,4.29,5.82,20.04-1.67,37.25-10.18,23.39-33.81,29.64-36.69,30.35h87.06c17.3-5,29.04-20.53,28.84-37.38-.17-14.04-8.61-27.06-21.7-33.67,1.17-.56,20.61-10.16,22.78-30.05,1.94-17.78-10.77-36.08-31-41.75h-34.89Z"></path>
  <path class="cls-6" d="M529.62,680.19c-4.78,12.27-16.26,36.72-41.6,57.21-35.38,28.61-74.25,30.45-86.63,30.53,11.37-5.6,38.66-21.04,54.64-53.23,6.4-12.9,9.28-25.04,10.6-34.5h62.98Z"></path>
  <path class="cls-8" d="M337.78,434.36c-21.97-19.11-32.12-41.67-41.07-66.49-14.42-40.03-33.34-107.11-37.16-201.42,19.98,6.24,92.71,31.56,140.8,107.56,55.05,86.99,37.14,176.07,33.24,193.6-19.75-.19-61.71-3.58-95.82-33.24Z"></path>
  <path class="cls-9" d="M491.05,444.19c14.77-13.11,21.75-28.32,27.7-44.85,9.73-27,22.49-72.26,25.07-135.88-11.63,3.31-63.24,19.4-94.99,72.56-36.17,60.58-18.25,121.9-15.24,131.59,12.51-1.1,36.89-5.16,57.45-23.42Z"></path>
  <path class="cls-5" d="M426.66,425.77c3.26,11.12,6.24,25.28,6.94,41.83,1.28,30.15-5.58,54.52-11.3,69.74h-11.24c4.36-16.36,8.39-35.04,11.27-55.78,2.83-20.36,4.05-39.11,4.34-55.78Z"></path>
</svg>
