<?xml version="1.0" encoding="UTF-8"?>
<svg xmlns="http://www.w3.org/2000/svg" xmlns:xlink="http://www.w3.org/1999/xlink" id="Calque_1" data-name="Calque 1" viewBox="0 0 895.86 793">
  <defs>
    <style>
      .cls-1 {
        fill: #f2ddcf;
      }

      .cls-2 {
        fill: #e8d2c5;
      }

      .cls-3 {
        fill: #fff;
      }

      .cls-4 {
        fill: #d8b4a0;
      }

      .cls-5 {
        fill: #dbcac1;
      }

      .cls-6 {
        fill: url(#Dégradé_sans_nom_10);
      }
    </style>
    <linearGradient id="Dégradé_sans_nom_10" data-name="Dégradé sans nom 10" x1="299.9" y1="165.34" x2="596.08" y2="165.34" gradientUnits="userSpaceOnUse">
      <stop offset="0" stop-color="#2e5597"></stop>
      <stop offset=".99" stop-color="#59aa41"></stop>
    </linearGradient>
  </defs>
  <path class="cls-5" d="M203.49,367.77l12.77-22.69c2.34-1.74,7.69-5.23,15.33-5.92,10.9-.99,18.77,4.41,20.84,5.92,19.15,9.22,38.3,18.44,57.44,27.66,27.93-4.33,51.07-6.97,67.7-8.62,24.84-2.46,32.53-2.45,40.92-1.25,24.99,3.57,43.52,15.85,54.49,24.76l-51.77,33.33-129.07,9.93-94.04-50.04,5.39-13.08Z"></path>
  <path class="cls-2" d="M149.16,484.45l48.95-103.6c3.12-1.51,8.57-3.65,15.64-3.94,9.44-.38,16.57,2.94,18.84,3.94,9.68,4.26,30.72,10.4,76.11,19.68,21.61-8.09,54.43-16.7,93.69-13.05,105,9.78,163.96,98.71,172.82,112.54l72.31,41.16c21.03,5.81,31.26,28.65,23.84,45.91-7.23,16.8-29.88,25.2-48.48,14.98,2.28,1.58,4.56,3.16,6.85,4.74,11.33,9.77,15.29,25.37,10.03,38.37-6.13,15.17-23.67,23.97-40.86,19.47-6.78-3.33-13.57-6.67-20.35-10,12,11.19,14.6,29.1,6.62,42.56-8.73,14.74-28.11,20.74-44.45,13.06-7.79-3.71-15.57-7.42-23.36-11.12,11.2,10.75,14.18,27.08,7.8,39.56-7.75,15.17-28.08,22.2-45.62,13.84-78.98-54.88-157.96-109.76-236.94-164.63-1.43-8.75-4.65-21.88-12.65-35.9-3.67-6.44-6.44-11.29-11.41-16.23-20.74-20.62-46.78-10.75-61.59-29.07-2.99-3.7-7.01-10.41-7.79-22.25Z"></path>
  <path class="cls-4" d="M670.1,562.07l60.83-25.74c1.16-.42,12.01-4.52,15.03-15.59,1.66-6.1,.12-11.31-.67-13.51-5.97-13.42-11.94-26.85-17.9-40.27l-98.5,65.56,41.22,29.54Z"></path>
  <path class="cls-1" d="M665.03,357.62l-46.25,23.23c-4.41,1.33-10.85,2.75-18.69,2.67-7.25-.07-13.23-1.39-17.46-2.67-11.93-8.77-36.33-23.86-67.72-22.94-20.86,.62-36.54,8.07-49.16,14.84-54.67,29.34-103.97,73.78-130.34,99.22-1.13,2.79-1.97,6.36-.51,9.45,6.06,12.85,46.16,5.5,54.32,4,47.96-8.79,56.67-27.28,87.45-27.75,12.7-.19,32.12,2.63,56.34,19.34l95.86,55.5,89.13-37c.67-.17,9.4-2.55,12.14-10.89,1.67-5.07,.19-9.51-.37-10.98-13.17-36.72-26.35-73.44-39.52-110.16-1.13-1.38-5.04-5.77-11.86-7.27-6.52-1.44-11.71,.64-13.37,1.39Z"></path>
  <path class="cls-4" d="M388.94,506.65c11.37,1.25,20.15-.03,26.93-1.08,35.64-5.48,44.43-21.64,70.02-27.47,36.98-8.43,65.1,14.74,67.11,10.5,2.77-5.83-47.96-54.49-96.2-44.43-25.68,5.35-32.77,23.62-69.48,33.39-20.95,5.58-39.55,5.2-52.42,3.87,8.97,8.04,27.61,22.3,54.04,25.21Z"></path>
  <path class="cls-6" d="M306.15,301.85l19.84-52.73c-32.84-49.36-34.79-112.38-5.22-161.33,40.3-66.72,116.84-70.32,122.17-70.48,61.93-1.83,123.95,36.12,145.49,97.62,24.1,68.84-16.01,128.7-20.51,135.18,6.52,15.97,13.03,31.94,19.55,47.91,2.05,1.88,2.45,4.91,1.05,7.07-1.18,1.82-3.47,2.75-5.73,2.29-16.68-6.37-33.36-12.74-50.04-19.11-13.36,8.22-42.51,23.63-82.49,25.06-48.72,1.74-84.08-18.33-97.11-26.63-13.11,7.3-26.23,14.59-39.34,21.89-.2,.07-3.15,.97-5.59-1.01-1.68-1.37-2.47-3.58-2.06-5.73Z"></path>
  <path class="cls-1" d="M224.6,623.17l31.07-54.23c11.63-14.74,32.22-17.58,45.76-7.91,11.21,8.01,16.05,23.48,11.3,37.85-10.36,19.58-20.71,39.17-31.07,58.75-12.66,10.04-30.26,10.63-42.94,1.69-11.28-7.95-16.84-22.17-14.12-36.16Z"></path>
  <path class="cls-4" d="M301.44,561.02l-62.71,98.3c3,2.04,8.5,5.17,15.98,6.05,14.07,1.67,24.47-5.85,26.95-7.75,10.36-19.58,20.71-39.17,31.07-58.75,.96-2.73,3.55-11.27,.3-21.41-3-9.36-9.24-14.63-11.6-16.44Z"></path>
  <path class="cls-1" d="M334.8,696.04l31.07-54.23c11.63-14.74,32.22-17.58,45.76-7.91,11.21,8.01,16.05,23.48,11.3,37.85-10.36,19.58-20.71,39.17-31.07,58.75-12.66,10.04-30.26,10.63-42.94,1.69-11.28-7.95-16.84-22.17-14.12-36.16Z"></path>
  <path class="cls-1" d="M269.98,674.47l33.75-63.64c12.64-17.3,35-20.63,49.71-9.28,12.18,9.39,17.43,27.55,12.27,44.42-11.25,22.98-22.5,45.97-33.75,68.95-13.75,11.78-32.87,12.48-46.64,1.99-12.25-9.33-18.3-26.02-15.34-42.43Z"></path>
  <path class="cls-1" d="M394.12,726.55l31.07-54.23c11.63-14.74,32.22-17.58,45.76-7.91,11.21,8.01,16.05,23.48,11.3,37.85-10.36,19.58-20.71,39.17-31.07,58.75-12.66,10.04-30.26,10.63-42.94,1.69-11.28-7.95-16.84-22.17-14.12-36.16Z"></path>
  <path class="cls-4" d="M289.89,720c6.83-18.43,15.76-39.15,27.54-61.13,11.9-22.22,24.33-41.31,36.01-57.32,2.76,2.26,8.45,7.57,11.68,16.41,4.01,10.98,1.71,20.54,.75,23.85-11.3,24.37-22.61,48.74-33.91,73.1-1.77,1.74-11.9,11.36-26.57,10.33-7.2-.5-12.59-3.37-15.5-5.24Z"></path>
  <path class="cls-4" d="M411.63,633.9c-10.76,14.17-22.29,31.23-33.29,51.26-9.91,18.03-17.53,35.09-23.44,50.38,3.13,1.33,9.08,3.36,16.67,2.86,10.44-.7,17.59-5.76,20.28-7.89,10.36-19.58,20.71-39.17,31.07-58.75,.93-1.99,4.88-11.07,1.32-21.88-3.23-9.81-10.56-14.69-12.62-15.97Z"></path>
  <path class="cls-4" d="M408.24,762.71c4.45-14.17,11.83-32.72,24.34-52.52,12.98-20.54,27.16-35.55,38.37-45.78,2.67,2.03,6.88,5.82,9.83,11.86,5.75,11.78,2.39,23.18,1.47,25.99-10.36,19.58-20.71,39.17-31.07,58.75-2.43,1.92-11.45,8.57-24.34,7.96-9.15-.43-15.72-4.31-18.6-6.26Z"></path>
  <path class="cls-3" d="M455.3,232.37c-8.9,0-16.87-1.92-23.92-5.75-7.05-3.83-12.83-9.51-17.34-17.06-4.51-7.54-7.57-16.69-9.18-27.44l2.78,4.26h-14.83c-1.85,0-3.46-.65-4.82-1.95-1.36-1.3-2.04-2.94-2.04-4.91s.68-3.58,2.04-4.82,2.97-1.86,4.82-1.86h14.09l-2.78,3.52c-.38-3.7-.53-7.51-.47-11.4,.06-3.89,.21-7.52,.47-10.85l2.97,3.52h-14.28c-1.85,0-3.46-.65-4.82-1.95s-2.04-2.87-2.04-4.73c0-1.98,.68-3.61,2.04-4.91s2.97-1.95,4.82-1.95h15.76l-3.7,4.45c1.61-10.88,4.66-20.06,9.18-27.54,4.51-7.48,10.29-13.13,17.34-16.96,7.05-3.83,15.02-5.75,23.92-5.75,6.19,0,12.12,.96,17.81,2.87,5.68,1.92,10.81,5.1,15.39,9.54,1.48,1.37,2.41,2.84,2.78,4.45s.31,3.18-.18,4.73c-.5,1.55-1.3,2.75-2.41,3.61-1.11,.87-2.47,1.3-4.08,1.3s-3.27-.74-5-2.23c-3.09-2.72-6.62-4.69-10.57-5.93-3.95-1.24-8.1-1.86-12.42-1.86-5.45,0-10.39,1.18-14.84,3.52-4.44,2.35-8.13,6-11.03,10.94-2.9,4.94-5.04,11.12-6.4,18.55l-3.34-3.71h27.81c1.98,0,3.62,.68,4.92,2.04,1.3,1.37,1.95,2.97,1.95,4.82s-.65,3.43-1.95,4.73-2.94,1.95-4.92,1.95h-29.11l3.7-3.34c-.37,2.97-.55,6.43-.55,10.38s.18,7.67,.55,11.13l-3.7-2.97h29.11c1.98,0,3.62,.65,4.92,1.95s1.95,2.87,1.95,4.73-.65,3.46-1.95,4.82-2.94,2.04-4.92,2.04h-26.88l2.41-3.7c1.36,7.42,3.49,13.63,6.4,18.64,2.9,5,6.59,8.68,11.03,11.03,4.45,2.35,9.39,3.52,14.84,3.52,4.44,0,8.53-.59,12.24-1.77,3.7-1.17,7.35-3.18,10.94-6.02,1.85-1.36,3.55-2.07,5.09-2.14,1.55-.06,2.87,.37,3.99,1.3,1.11,.93,1.88,2.11,2.32,3.52,.43,1.43,.49,2.9,.19,4.45-.32,1.55-1.21,3-2.69,4.35-4.2,4.45-9.27,7.7-15.2,9.74-5.93,2.04-11.99,3.06-18.18,3.06Z"></path>
</svg>
