<?xml version="1.0" encoding="UTF-8"?>
<svg xmlns="http://www.w3.org/2000/svg" xmlns:xlink="http://www.w3.org/1999/xlink" id="Calque_1" data-name="Calque 1" viewBox="0 0 895.86 793">
  <defs>
    <style>
      .cls-1 {
        fill: #f8fafb;
      }

      .cls-2 {
        fill: #edebfb;
      }

      .cls-3 {
        fill: #d2d3f9;
      }

      .cls-4 {
        fill: #111;
      }

      .cls-5 {
        fill: url(#Dégradé_sans_nom_4);
      }

      .cls-6 {
        fill: url(#Dégradé_sans_nom_4-4);
      }

      .cls-7 {
        fill: url(#Dégradé_sans_nom_4-3);
      }

      .cls-8 {
        fill: url(#Dégradé_sans_nom_4-2);
      }
    </style>
    <linearGradient id="Dégradé_sans_nom_4" data-name="Dégradé sans nom 4" x1="345.15" y1="668.32" x2="415.47" y2="668.32" gradientUnits="userSpaceOnUse">
      <stop offset="0" stop-color="#2e5597"></stop>
      <stop offset="1" stop-color="#59aa41"></stop>
    </linearGradient>
    <linearGradient id="Dégradé_sans_nom_4-2" data-name="Dégradé sans nom 4" x1="-11007.56" y1="-1374.01" x2="-10937.25" y2="-1374.01" gradientTransform="translate(-10472.72 -682.25) rotate(-180)" xlink:href="#Dégradé_sans_nom_4"></linearGradient>
    <linearGradient id="Dégradé_sans_nom_4-3" data-name="Dégradé sans nom 4" x1="581.12" y1="706.69" x2="651.43" y2="706.69" xlink:href="#Dégradé_sans_nom_4"></linearGradient>
    <linearGradient id="Dégradé_sans_nom_4-4" data-name="Dégradé sans nom 4" x1="-11072.35" y1="-1382.9" x2="-11002.03" y2="-1382.9" gradientTransform="translate(-10307.22 -659.54) rotate(-180)" xlink:href="#Dégradé_sans_nom_4"></linearGradient>
  </defs>
  <rect class="cls-3" x="226.24" y="34.18" width="413.91" height="614.22"></rect>
  <rect class="cls-2" x="190.78" y="34.18" width="413.91" height="614.22"></rect>
  <path class="cls-5" d="M352.83,588.78h52.94c1.1,.32,4.01,1.38,6.51,5,2.24,3.25,2.95,6.81,3.19,8.35v134.02c-.13,1.1-.69,5.19-3.37,8.36-2.41,2.85-5.06,3.24-5.93,3.31h-49.3c-.77,.06-4.64,.22-7.97-3.8-3.23-3.9-3.67-8.99-3.75-10.1v-132.36c.03-1.15,.24-4.87,2.33-8.28,2.01-3.28,4.52-4.24,5.35-4.51Z"></path>
  <path class="cls-8" d="M527.16,754.96h-52.94c-1.1-.26-4.01-1.1-6.51-3.97-2.24-2.58-2.95-5.41-3.19-6.63v-106.48c.13-.88,.69-4.12,3.37-6.65,2.41-2.27,5.06-2.57,5.93-2.63h49.3c.77-.04,4.64-.18,7.97,3.02,3.23,3.1,3.67,7.14,3.75,8.02v105.16c-.03,.91-.24,3.87-2.33,6.58-2.01,2.61-4.52,3.37-5.35,3.58Z"></path>
  <path class="cls-7" d="M588.8,658.42h52.94c1.1,.2,4.01,.84,6.51,3.03,2.24,1.97,2.95,4.13,3.19,5.07v81.34c-.13,.67-.69,3.15-3.37,5.08-2.41,1.73-5.06,1.97-5.93,2.01h-49.3c-.77,.03-4.64,.14-7.97-2.31-3.23-2.37-3.67-5.46-3.75-6.13v-80.33c.03-.7,.24-2.96,2.33-5.03,2.01-1.99,4.52-2.58,5.35-2.74Z"></path>
  <path class="cls-6" d="M757.45,754.96h-52.94c-1.1-.13-4.01-.55-6.51-1.99-2.24-1.29-2.95-2.7-3.19-3.32v-53.24c.13-.44,.69-2.06,3.37-3.32,2.41-1.13,5.06-1.29,5.93-1.32h49.3c.77-.02,4.64-.09,7.97,1.51,3.23,1.55,3.67,3.57,3.75,4.01v52.58c-.03,.46-.24,1.94-2.33,3.29-2.01,1.3-4.52,1.69-5.35,1.79Z"></path>
  <path class="cls-1" d="M777,609.02l-17.66,7.29,9.54,23.12c-31.71-20.43-63.42-40.87-95.13-61.3-41.31-7.6-82.62-15.2-123.93-22.8-21.99-20.15-43.97-40.29-65.96-60.44l-145.66,22.54c-3.45,1.05-5.81,4.26-5.79,7.85,.02,3.56,2.38,6.71,5.79,7.75,47.42-6.45,94.85-12.9,142.27-19.34,20.35,19.65,40.7,39.3,61.05,58.95,42.7,7.22,85.41,14.44,128.11,21.66,32.04,20.71,64.07,41.42,96.11,62.13l-23,9.49,6.91,16.75,49.33-20.36-22-53.29Z"></path>
  <rect class="cls-4" x="238.54" y="227.06" width="298.28" height="13.6"></rect>
  <rect class="cls-4" x="238.54" y="287.3" width="298.28" height="13.6"></rect>
  <rect class="cls-4" x="238.54" y="347.54" width="298.28" height="13.6"></rect>
  <rect class="cls-4" x="238.54" y="416.8" width="248.95" height="13.6"></rect>
</svg>
