<?xml version="1.0" encoding="UTF-8"?>
<svg xmlns="http://www.w3.org/2000/svg" xmlns:xlink="http://www.w3.org/1999/xlink" version="1.1" id="Layer_1" x="0px" y="0px" viewBox="0 0 265 87.3" style="enable-background:new 0 0 265 87.3;" xml:space="preserve">
<style type="text/css">
	.st0{fill:#FDC300;}
	.st1{fill:#303E43;}
</style>
<g>
	<rect y="61.2" class="st0" width="264.8" height="2.4"></rect>
</g>
<polygon class="st1" points="0,74.6 4.7,74.6 6.7,82.2 6.8,82.2 8.7,74.6 13.4,74.6 8.9,86.9 4.4,86.9 "></polygon>
<path class="st1" d="M19.3,78.9l-1,3h2L19.3,78.9z M17.2,74.6h4.4l4.8,12.3h-4.5l-0.6-1.8h-3.9l-0.6,1.8h-4.4L17.2,74.6z"></path>
<polygon class="st1" points="27.2,74.6 31.3,74.6 34.9,80.8 34.9,80.8 34.8,74.6 38.7,74.6 38.7,86.9 34.5,86.9 31.1,81 31,81   31.2,86.9 27.2,86.9 "></polygon>
<path class="st1" d="M51.4,87.2c-1,0-1.9-0.1-2.7-0.5c-0.8-0.3-1.5-0.7-2.2-1.3c-0.6-0.6-1.1-1.2-1.4-2c-0.3-0.8-0.5-1.7-0.5-2.7  c0-1,0.2-1.9,0.5-2.7c0.3-0.8,0.8-1.5,1.4-2c0.6-0.6,1.3-1,2.1-1.3c0.8-0.3,1.7-0.5,2.6-0.5c1,0,1.9,0.2,2.7,0.5  c0.9,0.3,1.6,0.7,2.1,1.3l-2.4,2.9c-0.3-0.3-0.6-0.5-0.9-0.7c-0.3-0.2-0.8-0.3-1.3-0.3c-0.3,0-0.7,0.1-1,0.2  c-0.3,0.1-0.6,0.3-0.8,0.6c-0.2,0.2-0.4,0.5-0.6,0.9c-0.2,0.3-0.2,0.7-0.2,1.2c0,0.9,0.2,1.6,0.7,2.1c0.4,0.5,1.2,0.8,2.1,0.8  c0.2,0,0.4,0,0.5,0c0.2,0,0.3-0.1,0.4-0.1v-0.9h-2v-3.2h5.6V86c-0.3,0.2-0.6,0.3-1,0.5c-0.4,0.1-0.8,0.3-1.2,0.4s-0.9,0.2-1.3,0.3  C52.4,87.2,51.9,87.2,51.4,87.2"></path>
<polygon class="st1" points="58.4,74.6 66.9,74.6 66.9,78.1 62.3,78.1 62.3,79.1 66.6,79.1 66.6,82.3 62.3,82.3 62.3,83.5   67.2,83.5 67.2,86.9 58.4,86.9 "></polygon>
<polygon class="st1" points="68.9,74.6 73,74.6 76.5,80.8 76.6,80.8 76.4,74.6 80.3,74.6 80.3,86.9 76.1,86.9 72.7,81 72.7,81   72.8,86.9 68.9,86.9 "></polygon>
<polygon class="st1" points="82.6,74.6 91.1,74.6 91.1,78.1 86.5,78.1 86.5,79.1 90.8,79.1 90.8,82.3 86.5,82.3 86.5,83.5   91.4,83.5 91.4,86.9 82.6,86.9 "></polygon>
<path class="st1" d="M92.6,80.8c0-1,0.2-1.9,0.5-2.7c0.3-0.8,0.8-1.5,1.4-2.1c0.6-0.6,1.3-1,2.1-1.3c0.8-0.3,1.7-0.5,2.6-0.5  c0.9,0,1.8,0.2,2.7,0.5c0.8,0.3,1.6,0.7,2.1,1.2l-2.5,3.1c-0.2-0.3-0.5-0.5-0.9-0.7c-0.3-0.2-0.7-0.2-1.2-0.2c-0.3,0-0.7,0.1-1,0.2  c-0.3,0.1-0.6,0.3-0.8,0.5c-0.2,0.2-0.4,0.5-0.5,0.8C97.1,80,97,80.4,97,80.8c0,0.4,0.1,0.8,0.2,1.1c0.1,0.3,0.3,0.6,0.5,0.8  c0.2,0.2,0.5,0.4,0.8,0.5c0.3,0.1,0.6,0.2,1,0.2c0.5,0,0.9-0.1,1.2-0.3c0.3-0.2,0.6-0.4,0.8-0.7l2.5,3c-0.6,0.6-1.2,1-2,1.3  c-0.8,0.3-1.7,0.5-2.8,0.5c-0.9,0-1.8-0.2-2.6-0.5c-0.8-0.3-1.5-0.8-2.1-1.3c-0.6-0.6-1.1-1.3-1.4-2C92.7,82.6,92.6,81.7,92.6,80.8"></path>
<polygon class="st1" points="112.7,82.2 109.3,82.2 109.3,86.9 105.2,86.9 105.2,74.6 109.3,74.6 109.3,78.8 112.7,78.8 112.7,74.6   116.8,74.6 116.8,86.9 112.7,86.9 "></polygon>
<polygon class="st1" points="125.3,86.9 121.1,86.9 121.1,78.1 118.1,78.1 118.1,74.6 128.3,74.6 128.3,78.1 125.3,78.1 "></polygon>
<polygon class="st1" points="129.5,74.6 138,74.6 138,78.1 133.4,78.1 133.4,79.1 137.7,79.1 137.7,82.3 133.4,82.3 133.4,83.5   138.3,83.5 138.3,86.9 129.5,86.9 "></polygon>
<polygon class="st1" points="140,74.6 144.1,74.6 147.6,80.8 147.7,80.8 147.5,74.6 151.5,74.6 151.5,86.9 147.2,86.9 143.8,81   143.8,81 143.9,86.9 140,86.9 "></polygon>
<path class="st1" d="M162.1,77.8v2h0.9c0.3,0,0.6-0.1,0.9-0.2c0.3-0.2,0.4-0.4,0.4-0.8c0-0.2,0-0.4-0.1-0.5  c-0.1-0.1-0.2-0.2-0.3-0.3c-0.1-0.1-0.3-0.1-0.4-0.1c-0.2,0-0.3,0-0.5,0H162.1z M162.1,82.9v4H158V74.6h5.3c0.6,0,1.2,0.1,1.8,0.2  c0.6,0.1,1.1,0.4,1.6,0.7c0.5,0.3,0.9,0.7,1.1,1.3c0.3,0.5,0.4,1.2,0.4,2c0,0.8-0.1,1.4-0.4,1.9c-0.3,0.5-0.7,1-1.1,1.3  c-0.5,0.3-1,0.6-1.6,0.7c-0.6,0.2-1.2,0.2-1.9,0.2H162.1z"></path>
<path class="st1" d="M174.4,78.9l-1,3h2L174.4,78.9z M172.3,74.6h4.4l4.8,12.3H177l-0.6-1.8h-3.9l-0.6,1.8h-4.4L172.3,74.6z"></path>
<path class="st1" d="M181.5,80.8c0-1,0.2-1.9,0.5-2.7c0.3-0.8,0.8-1.5,1.4-2.1c0.6-0.6,1.3-1,2.1-1.3c0.8-0.3,1.7-0.5,2.6-0.5  c0.9,0,1.8,0.2,2.7,0.5c0.8,0.3,1.6,0.7,2.1,1.2l-2.5,3.1c-0.2-0.3-0.5-0.5-0.9-0.7c-0.3-0.2-0.7-0.2-1.2-0.2c-0.3,0-0.7,0.1-1,0.2  c-0.3,0.1-0.6,0.3-0.8,0.5c-0.2,0.2-0.4,0.5-0.5,0.8c-0.1,0.3-0.2,0.7-0.2,1.1c0,0.4,0.1,0.8,0.2,1.1c0.1,0.3,0.3,0.6,0.5,0.8  c0.2,0.2,0.5,0.4,0.8,0.5c0.3,0.1,0.6,0.2,1,0.2c0.5,0,0.9-0.1,1.2-0.3c0.3-0.2,0.6-0.4,0.8-0.7l2.5,3c-0.6,0.6-1.2,1-2,1.3  c-0.8,0.3-1.7,0.5-2.8,0.5c-0.9,0-1.8-0.2-2.6-0.5c-0.8-0.3-1.5-0.8-2.1-1.3c-0.6-0.6-1.1-1.3-1.4-2S181.5,81.7,181.5,80.8"></path>
<polygon class="st1" points="198.2,82 198.1,82 198.1,86.9 194.1,86.9 194.1,74.6 198.1,74.6 198.1,79.1 198.2,79.1 201.4,74.6   206.3,74.6 201.7,80.2 206.5,86.9 201.5,86.9 "></polygon>
<path class="st1" d="M212.7,78.9l-1,3h2L212.7,78.9z M210.6,74.6h4.4l4.8,12.3h-4.5l-0.6-1.8h-3.9l-0.6,1.8h-4.4L210.6,74.6z"></path>
<path class="st1" d="M226.6,87.2c-1,0-1.9-0.1-2.7-0.5c-0.8-0.3-1.5-0.7-2.2-1.3c-0.6-0.6-1.1-1.2-1.4-2c-0.3-0.8-0.5-1.7-0.5-2.7  c0-1,0.2-1.9,0.5-2.7c0.3-0.8,0.8-1.5,1.4-2c0.6-0.6,1.3-1,2.1-1.3c0.8-0.3,1.7-0.5,2.6-0.5c1,0,1.9,0.2,2.7,0.5  c0.9,0.3,1.6,0.7,2.1,1.3l-2.4,2.9c-0.3-0.3-0.6-0.5-0.9-0.7c-0.3-0.2-0.8-0.3-1.3-0.3c-0.3,0-0.7,0.1-1,0.2  c-0.3,0.1-0.6,0.3-0.8,0.6c-0.2,0.2-0.4,0.5-0.6,0.9c-0.2,0.3-0.2,0.7-0.2,1.2c0,0.9,0.2,1.6,0.7,2.1c0.4,0.5,1.2,0.8,2.1,0.8  c0.2,0,0.4,0,0.5,0c0.2,0,0.3-0.1,0.4-0.1v-0.9h-2v-3.2h5.6V86c-0.3,0.2-0.6,0.3-1,0.5c-0.4,0.1-0.8,0.3-1.2,0.4s-0.9,0.2-1.3,0.3  C227.5,87.2,227.1,87.2,226.6,87.2"></path>
<rect x="233.6" y="74.6" class="st1" width="4.2" height="12.3"></rect>
<polygon class="st1" points="240.1,74.6 244.2,74.6 247.7,80.8 247.8,80.8 247.6,74.6 251.5,74.6 251.5,86.9 247.3,86.9 243.9,81   243.8,81 244,86.9 240.1,86.9 "></polygon>
<path class="st1" d="M260.1,87.2c-1,0-1.9-0.1-2.7-0.5c-0.8-0.3-1.5-0.7-2.2-1.3c-0.6-0.6-1.1-1.2-1.4-2c-0.3-0.8-0.5-1.7-0.5-2.7  c0-1,0.2-1.9,0.5-2.7c0.3-0.8,0.8-1.5,1.4-2c0.6-0.6,1.3-1,2.1-1.3c0.8-0.3,1.7-0.5,2.6-0.5c1,0,1.9,0.2,2.7,0.5  c0.9,0.3,1.6,0.7,2.1,1.3l-2.4,2.9c-0.3-0.3-0.6-0.5-0.9-0.7c-0.3-0.2-0.8-0.3-1.3-0.3c-0.3,0-0.7,0.1-1,0.2  c-0.3,0.1-0.6,0.3-0.8,0.6c-0.2,0.2-0.4,0.5-0.6,0.9c-0.2,0.3-0.2,0.7-0.2,1.2c0,0.9,0.2,1.6,0.7,2.1c0.4,0.5,1.2,0.8,2.1,0.8  c0.2,0,0.4,0,0.5,0c0.2,0,0.3-0.1,0.4-0.1v-0.9h-2v-3.2h5.6V86c-0.3,0.2-0.6,0.3-1,0.5c-0.4,0.1-0.8,0.3-1.2,0.4s-0.9,0.2-1.3,0.3  C261,87.2,260.5,87.2,260.1,87.2"></path>
<polygon class="st1" points="86.4,38.6 90.7,38.6 90.7,39.6 87.5,39.6 87.5,41.2 90.5,41.2 90.5,42.2 87.5,42.2 87.5,44 90.8,44   90.8,45.1 86.4,45.1 "></polygon>
<path class="st1" d="M98.1,39.9c-0.1-0.2-0.3-0.3-0.5-0.4c-0.2-0.1-0.4-0.2-0.7-0.2c-0.1,0-0.3,0-0.4,0.1c-0.1,0-0.3,0.1-0.4,0.2  c-0.1,0.1-0.2,0.2-0.3,0.3c-0.1,0.1-0.1,0.2-0.1,0.4c0,0.1,0,0.3,0.1,0.4c0.1,0.1,0.1,0.2,0.3,0.3c0.1,0.1,0.2,0.1,0.4,0.2  c0.2,0.1,0.3,0.1,0.5,0.2c0.2,0.1,0.4,0.1,0.6,0.2c0.2,0.1,0.4,0.2,0.6,0.3c0.2,0.1,0.3,0.3,0.5,0.5c0.1,0.2,0.2,0.5,0.2,0.8  c0,0.3-0.1,0.7-0.2,0.9c-0.1,0.3-0.3,0.5-0.5,0.6c-0.2,0.2-0.5,0.3-0.8,0.4c-0.3,0.1-0.6,0.1-0.9,0.1c-0.4,0-0.8-0.1-1.2-0.2  c-0.4-0.2-0.7-0.4-1-0.7l0.8-0.8c0.2,0.2,0.4,0.4,0.6,0.5c0.3,0.1,0.5,0.2,0.8,0.2c0.1,0,0.3,0,0.4-0.1c0.1,0,0.3-0.1,0.4-0.2  c0.1-0.1,0.2-0.2,0.3-0.3c0.1-0.1,0.1-0.3,0.1-0.4c0-0.2,0-0.3-0.1-0.4c-0.1-0.1-0.2-0.2-0.3-0.3c-0.1-0.1-0.3-0.2-0.5-0.2  c-0.2-0.1-0.4-0.1-0.6-0.2c-0.2-0.1-0.4-0.1-0.6-0.2c-0.2-0.1-0.4-0.2-0.5-0.3c-0.2-0.1-0.3-0.3-0.4-0.5c-0.1-0.2-0.1-0.5-0.1-0.8  c0-0.3,0.1-0.6,0.2-0.9c0.1-0.2,0.3-0.4,0.5-0.6c0.2-0.2,0.5-0.3,0.8-0.3c0.3-0.1,0.6-0.1,0.9-0.1c0.3,0,0.7,0.1,1,0.2  c0.3,0.1,0.6,0.3,0.9,0.5L98.1,39.9z"></path>
<polygon class="st1" points="104.1,39.6 102.1,39.6 102.1,38.6 107.2,38.6 107.2,39.6 105.2,39.6 105.2,45.1 104.1,45.1 "></polygon>
<path class="st1" d="M109.8,44.4c0-0.2,0.1-0.4,0.2-0.5c0.1-0.1,0.3-0.2,0.5-0.2c0.2,0,0.4,0.1,0.5,0.2c0.1,0.1,0.2,0.3,0.2,0.5  c0,0.2-0.1,0.4-0.2,0.5c-0.1,0.1-0.3,0.2-0.5,0.2c-0.1,0-0.2,0-0.3-0.1c-0.1,0-0.2-0.1-0.2-0.1c-0.1-0.1-0.1-0.1-0.2-0.2  C109.9,44.6,109.8,44.5,109.8,44.4"></path>
<polygon class="st1" points="158,39.9 156.7,41 156.1,40.2 158.1,38.6 159.1,38.6 159.1,45.1 158,45.1 "></polygon>
<path class="st1" d="M164.7,39.3c-0.3,0-0.5,0.1-0.7,0.2c-0.2,0.2-0.3,0.4-0.3,0.7c0,0.3,0.1,0.5,0.3,0.7c0.2,0.2,0.4,0.3,0.7,0.3  c0.1,0,0.3,0,0.4-0.1c0.1,0,0.2-0.1,0.3-0.2c0.1-0.1,0.2-0.2,0.2-0.3c0-0.1,0.1-0.2,0.1-0.4c0-0.1,0-0.3-0.1-0.4  c-0.1-0.1-0.1-0.2-0.2-0.3c-0.1-0.1-0.2-0.1-0.3-0.2C165,39.3,164.9,39.3,164.7,39.3 M164.7,42.1c-0.2,0-0.3,0-0.4,0.1  c-0.1,0.1-0.3,0.1-0.4,0.2c-0.1,0.1-0.2,0.2-0.2,0.3c-0.1,0.1-0.1,0.3-0.1,0.5c0,0.3,0.1,0.6,0.3,0.8c0.2,0.2,0.5,0.3,0.8,0.3  c0.3,0,0.6-0.1,0.8-0.3c0.2-0.2,0.3-0.5,0.3-0.8c0-0.2,0-0.3-0.1-0.4c-0.1-0.1-0.1-0.3-0.2-0.4c-0.1-0.1-0.2-0.2-0.4-0.2  C165,42.1,164.9,42.1,164.7,42.1 M164.7,38.4c0.3,0,0.5,0,0.8,0.1c0.2,0.1,0.5,0.2,0.7,0.3c0.2,0.2,0.3,0.3,0.4,0.6  c0.1,0.2,0.2,0.5,0.2,0.7c0,0.4-0.1,0.7-0.3,0.9c-0.2,0.3-0.4,0.4-0.7,0.5v0c0.2,0,0.3,0.1,0.5,0.2c0.1,0.1,0.3,0.2,0.4,0.3  c0.1,0.1,0.2,0.3,0.3,0.5c0.1,0.2,0.1,0.4,0.1,0.6c0,0.3-0.1,0.6-0.2,0.9c-0.1,0.2-0.3,0.5-0.5,0.6c-0.2,0.2-0.4,0.3-0.7,0.4  c-0.3,0.1-0.6,0.1-0.9,0.1c-0.3,0-0.6,0-0.9-0.1c-0.3-0.1-0.5-0.2-0.7-0.4c-0.2-0.2-0.4-0.4-0.5-0.6c-0.1-0.2-0.2-0.5-0.2-0.9  c0-0.2,0-0.4,0.1-0.6c0.1-0.2,0.2-0.3,0.3-0.5c0.1-0.1,0.2-0.2,0.4-0.3c0.1-0.1,0.3-0.2,0.5-0.2v0c-0.3-0.1-0.5-0.3-0.7-0.5  c-0.2-0.2-0.3-0.5-0.3-0.9c0-0.3,0.1-0.5,0.2-0.7c0.1-0.2,0.3-0.4,0.4-0.6c0.2-0.2,0.4-0.3,0.7-0.4  C164.2,38.4,164.5,38.4,164.7,38.4"></path>
<path class="st1" d="M170.4,41.2h0.3c0.2,0,0.3,0,0.5,0c0.2,0,0.3-0.1,0.4-0.1c0.1-0.1,0.2-0.2,0.3-0.3c0.1-0.1,0.1-0.3,0.1-0.5  c0-0.1,0-0.3-0.1-0.4c-0.1-0.1-0.1-0.2-0.2-0.3c-0.1-0.1-0.2-0.1-0.3-0.2c-0.1,0-0.3-0.1-0.4-0.1c-0.3,0-0.5,0.1-0.7,0.2  c-0.2,0.2-0.3,0.4-0.4,0.6l-1-0.3c0.1-0.2,0.1-0.4,0.3-0.6c0.1-0.2,0.3-0.3,0.5-0.5c0.2-0.1,0.4-0.2,0.6-0.3  c0.2-0.1,0.5-0.1,0.7-0.1c0.3,0,0.5,0,0.8,0.1c0.3,0.1,0.5,0.2,0.7,0.3c0.2,0.1,0.3,0.3,0.5,0.6c0.1,0.2,0.2,0.5,0.2,0.8  c0,0.3-0.1,0.7-0.3,0.9c-0.2,0.3-0.5,0.5-0.8,0.5v0c0.4,0.1,0.7,0.3,1,0.5c0.2,0.3,0.4,0.6,0.4,1c0,0.3-0.1,0.6-0.2,0.9  c-0.1,0.2-0.3,0.5-0.5,0.6c-0.2,0.2-0.5,0.3-0.7,0.4c-0.3,0.1-0.5,0.1-0.8,0.1c-0.3,0-0.5,0-0.8-0.1c-0.2-0.1-0.5-0.1-0.7-0.3  c-0.2-0.1-0.4-0.3-0.5-0.5c-0.2-0.2-0.3-0.4-0.4-0.7l1-0.3c0.1,0.3,0.2,0.5,0.4,0.7c0.2,0.2,0.5,0.3,0.8,0.3c0.1,0,0.3,0,0.4-0.1  c0.1,0,0.3-0.1,0.4-0.2c0.1-0.1,0.2-0.2,0.3-0.3c0.1-0.1,0.1-0.3,0.1-0.5c0-0.2,0-0.4-0.2-0.5c-0.1-0.1-0.2-0.3-0.4-0.3  s-0.3-0.1-0.5-0.2c-0.2,0-0.4-0.1-0.5-0.1h-0.3V41.2z"></path>
<path class="st1" d="M178.2,39.9L178.2,39.9l-1.9,2.9h1.9V39.9z M178.2,43.7h-3v-1l2.8-4.2h1.3v4.2h0.9v0.9h-0.9v1.3h-1.1V43.7z"></path>
<path class="st1" d="M126.3,5.7L126.3,5.7c0,0.3-0.1,0.7-0.6,0.7h0C125.4,5.9,125.9,5.7,126.3,5.7"></path>
<path class="st1" d="M157.4,8L157.4,8c-0.1,0.2-1,0.2-1.5,0.4C156.3,8.1,156.9,8,157.4,8"></path>
<path class="st1" d="M91.2,8.5L91.2,8.5c0.3,0,0.6,0.1,0.9,0.2l-1.2-0.2C91,8.5,91.1,8.5,91.2,8.5"></path>
<path class="st1" d="M165,8.5l-1.8,0.5C163.5,8.5,164.3,8.5,165,8.5"></path>
<path class="st1" d="M158.2,9.4L158.2,9.4c1.6,0.1,3.1,0.1,4.6-0.4c-0.9,0.3-2,0.6-3.1,0.6h-0.4c-0.4,0-0.8,0-1.2-0.1V9.4z"></path>
<path class="st1" d="M151.1,9.3h0.1c-0.3,0.2-0.8,0.4-1.3,0.4C150.1,9.5,150.7,9.3,151.1,9.3"></path>
<path class="st1" d="M117.1,9.7L117.1,9.7c0.1,0.2-0.2,0.2-0.3,0.3C116.7,9.9,116.9,9.7,117.1,9.7"></path>
<path class="st1" d="M148.9,9.8L148.9,9.8c-0.3,0.3-0.8,0.3-1.1,0.3c0.2-0.3,0.7-0.3,1-0.3H148.9z"></path>
<path class="st1" d="M118.5,10.2L118.5,10.2c0.1,0,0.2,0,0.3,0.2c0.1,0.2-0.3,0.1-0.4,0.5L118.5,10.2L118.5,10.2z"></path>
<path class="st1" d="M116.4,10.7L116.4,10.7c0.1,0.1,0,0.3-0.1,0.3C116.2,11,116.2,10.7,116.4,10.7"></path>
<path class="st1" d="M95.4,11.2l-1.7-0.6L95.4,11.2z"></path>
<path class="st1" d="M87.4,9.7L87.4,9.7c0.4,0.4,1.1,0.8,1.7,0.9h0.2c0.1,0,0.2,0,0.3-0.1L87.4,9.7z M84.8,9L84.8,9  c0.6,0.2,1.4,0.7,2.2,0.7L84.8,9z M83.5,8h-0.2l-0.2,0c0.3,0.5,1,0.5,1.5,0.6c1.9,0.8,4.4,0.7,6.4,1.5c-0.4,0.3-1.1-0.1-1.7-0.1  c-0.1,0-0.3,0-0.4,0.1l2.1,0.7c-1.9,0.6-3.7-1.1-5.6-1.1c1.7,1.1,3.9,1.3,5.9,2.1c-2.1,0-3.8-1.1-5.6-1.6c-0.2,0.4-0.7,0.2-1.1,0  c-1.6-0.8-2.6-2.1-4.1-3L80.6,7c1.8,0.2,3.5,1,5.2,1.6C85,8.5,84.3,8,83.5,8"></path>
<path class="st1" d="M117.5,12L117.5,12l-0.2,0l-0.1-0.1c0-0.1,0.3-0.3,0.5-0.3h0.1c0.1,0,0.2,0.1,0.1,0.2  C117.8,12,117.7,12,117.5,12"></path>
<path class="st1" d="M119.7,12.3l0.5,0.2l-0.2,0h-0.1C119.8,12.5,119.6,12.5,119.7,12.3"></path>
<path class="st1" d="M115.8,12.1L115.8,12.1c0.2,0,0.4,0.2,0.5,0.3c0,0.2-0.3,0.1-0.4,0.1L115.8,12.1z"></path>
<path class="st1" d="M76.6,3.9h-0.1c-0.1,0-0.3,0.1-0.4,0.2c0.1,0,0.2-0.1,0.3-0.1c0.7,0,1,0.8,1.7,0.5C77.6,4.5,77.1,4,76.6,3.9   M86.1,8.4L86.1,8.4c1.3,0.4,2.8,0.6,4.1,0.6c-1-0.6-2.6-0.5-3.8-1c-2.6-0.2-5.1-1.8-7.7-2.4c-1.3-0.5-2.8-1-4.1-2  c0-0.3,0.6-0.4,0.9-0.4c1,0.1,1.7,0.6,2.7,0.8l0.1,0.3c0.7,0,1.6,0,2.1,0.5c-0.5,0.2-1.6-1-1.8,0c0.1,0,0.2-0.1,0.3-0.1  c0.5,0,0.9,0.4,1.4,0.4c1,0.1,2.1,0.2,2.8,0.8C81.8,5.7,80,5,78.5,5l-0.4,0c0.1,0.2,0.3,0.3,0.5,0.3h0.1l0.1,0c2.2,0.6,4,1,6.1,1.3  l-0.1,0.2c-1.2-0.3-2.2-0.2-3.3-0.6l-0.1,0.2l0.2,0.2c2.2,0.7,4.6,0.2,6.5,1.2l-0.3,0h-0.3c-1,0-1.9-0.5-2.9-0.6h-0.3l-0.3,0  c1.2,0.5,2.5,0.5,3.7,1.1c0.3-0.1,0.6-0.2,0.9-0.2c0.7,0,1.3,0.2,1.9,0.3c1.1,1.6,2.7,2.8,4.3,3.6c0.4,0.1,0.6,0.3,0.9,0.5  c-2-0.4-3.5-1.8-5.1-3C89.2,9.1,87.4,9.3,86.1,8.4"></path>
<path class="st1" d="M117.6,12.7L117.6,12.7c0,0,0.1,0,0.1,0.1c0.1,0,0,0,0,0.1h-0.1C117.4,12.8,117.5,12.7,117.6,12.7"></path>
<polygon class="st1" points="120.3,13.1 120.5,13 120.5,12.8 "></polygon>
<polygon class="st1" points="95,13.2 95.6,13.3 95,13 "></polygon>
<path class="st1" d="M116.3,12.9L116.3,12.9c0,0.1,0,0.5-0.4,0.5c-0.2,0-0.1-0.3,0-0.4L116.3,12.9z"></path>
<path class="st1" d="M117.2,12.1L117.2,12.1c0.1,0,0.1,0.1,0.2,0.1c-0.6,0.3,0.1,1.1-0.8,1.1C116.5,12.9,116.9,12.5,117.2,12.1  L117.2,12.1z"></path>
<path class="st1" d="M117.6,13.3L117.6,13.3c0.1,0.2-0.2,0.1-0.2,0.2v-0.2H117.6z"></path>
<polygon class="st1" points="94.2,13.8 94.2,13.8 94.2,13.7 "></polygon>
<path class="st1" d="M119,13.4v0.3c0.1-0.2,0.3-0.2,0.4-0.2h0.1l0.2,0h0.1c0.1,0,0.2,0,0.2-0.1h0.2c0.2,0.3-0.2,0.4-0.5,0.4  l-1.1-0.1C118.5,13.5,118.8,13.4,119,13.4"></path>
<path class="st1" d="M116.4,14.5L116.4,14.5c0.1,0,0.2,0.2,0.4,0.3V15h-0.4L116.4,14.5L116.4,14.5z"></path>
<path class="st1" d="M117.5,13.7l0.3,0c0.6-0.6,0.5-1.2,1.4-1.4h0.1l-0.1,0.8l-0.2,0c-0.4,0-0.6,0.5-0.8,0.8l0.2,0.4l0.2-0.1  c0.3,0.2,0.1,0.6-0.1,0.9l-0.2,0h-0.2c-0.3,0-0.5,0-0.5-0.4v-0.1l0.4-0.1c0,0,0-0.1,0.1-0.1l-0.1-0.1c0,0-0.1,0-0.1,0.1  c0-0.2-0.1-0.3-0.3-0.3c-0.1,0-0.3,0.1-0.4,0.2c-0.1-0.1-0.1-0.1-0.2-0.1c-0.2,0-0.4,0.2-0.4,0.3C116.3,13.6,117.2,14,117.5,13.7"></path>
<path class="st1" d="M94.2,13.8L94.2,13.8c0.8,0.3,1.5,0.9,2.3,1.3C95.8,14.7,94.5,14.8,94.2,13.8"></path>
<path class="st1" d="M115.7,15L115.7,15c0.2,0,0,0.1,0,0.2V15L115.7,15z"></path>
<rect x="117.1" y="14.6" class="st1" width="0.1" height="0.7"></rect>
<path class="st1" d="M100.3,15L100.3,15c0.1,0.1,0.4,0.1,0.4,0.4L100.3,15z"></path>
<path class="st1" d="M119.8,14.1L119.8,14.1c0,0.4,0,0.9-0.2,1.4C119.5,15,119.3,14.5,119.8,14.1"></path>
<polygon class="st1" points="160,15.6 159.9,15.6 160,15.6 "></polygon>
<path class="st1" d="M159.9,15.6L159.9,15.6C159.9,15.6,159.9,15.6,159.9,15.6C159.9,15.6,159.9,15.6,159.9,15.6"></path>
<path class="st1" d="M116,15L116,15c0.3,0,0.2,0.4,0.3,0.7h-0.2L116,15z"></path>
<path class="st1" d="M118.3,15.2L118.3,15.2c0.1,0,0.1,0,0.2,0.1c0.1,0.3-0.2,0.2-0.3,0.4C117.9,15.7,118,15.3,118.3,15.2"></path>
<polygon class="st1" points="115.8,16.2 115.8,15.9 115.7,15.8 "></polygon>
<path class="st1" d="M119,15L119,15c0.1,0.4,0.7,0.8,0.4,1.3C119.4,15.9,118.8,15.5,119,15"></path>
<path class="st1" d="M101,15.6L101,15.6c0.6,0,1.2,0.5,1.5,0.8c-0.6-0.1-1.2-0.6-1.7-0.8L101,15.6z"></path>
<path class="st1" d="M118.2,15.9L118.2,15.9c0.2,0.1,0.3,0.1,0.4,0.3c-0.1,0.1-0.1,0.4-0.2,0.4C118.2,16.6,118.1,16.1,118.2,15.9"></path>
<path class="st1" d="M118.6,17L118.6,17c0.2,0,0.1,0.3,0.2,0.5l-0.1,0C118.4,17.5,118.3,17.1,118.6,17L118.6,17z"></path>
<polygon class="st1" points="117.7,17.8 117.8,17.7 117.7,17.6 "></polygon>
<path class="st1" d="M107,17.6l0.1,0c0,0.2-0.4,0.2-0.6,0.4C106.3,17.8,106.7,17.7,107,17.6L107,17.6z"></path>
<polygon class="st1" points="118.1,17.9 118.4,18.2 118.4,17.9 "></polygon>
<path class="st1" d="M119,17.9L119,17.9c0,0.2,0.2,0.3,0.1,0.5C118.9,18.4,118.8,18.1,119,17.9"></path>
<path class="st1" d="M110.1,18.5L110.1,18.5c0.2,0,0.2,0.2,0.4,0.3h-0.5L110.1,18.5z"></path>
<path class="st1" d="M116.4,18.3L116.4,18.3c0.3,0.4,0.7,0.1,0.7,0.7h-0.2C117,18.5,116.3,18.7,116.4,18.3"></path>
<path class="st1" d="M116.3,16.3l0.6,0.7c-0.1-0.4,0-0.8-0.2-1.1v-0.2h0.1l0.1,0.4c0.2,0,0.2-0.3,0.4-0.3l0.1,0  c-0.2,0.2-0.4,0.7-0.3,1c0-0.1,0.1-0.1,0.2-0.1c0.1,0,0.2,0.1,0.3,0.2v0.2c-0.1-0.1-0.1-0.1-0.1-0.1c-0.1,0-0.1,0.3-0.2,0.3  c0,0.6,0.5,1.1,0.5,1.5c-0.4-0.5-0.5-1.6-1.2-1.6L116.3,16.3z"></path>
<path class="st1" d="M118.5,18.5l0.4,0.4c-0.2,0-0.3,0.2-0.5,0.2l-0.1,0L118.5,18.5z"></path>
<path class="st1" d="M122.1,18.2L122.1,18.2c0.3,0.4,0.7,0.9,1,1.5C122.7,19.2,122,19,122.1,18.2"></path>
<path class="st1" d="M118.3,19.3L118.3,19.3c0.1,0,0.1,0.1,0.1,0.2v0.2h-0.3C117.9,19.5,118.1,19.3,118.3,19.3L118.3,19.3z"></path>
<path class="st1" d="M117.2,19.2l0.4,0.5C117.4,19.8,117.1,19.4,117.2,19.2"></path>
<path class="st1" d="M119,19.5L119,19.5c0.2,0.1,0.3,0.2,0.4,0.3c0,0.1,0,0.1-0.1,0.1C119.1,19.9,118.8,19.7,119,19.5"></path>
<path class="st1" d="M139,19.9l-0.5,0.2C138.6,20,138.8,19.9,139,19.9"></path>
<path class="st1" d="M95.6,20l0.8,0.1h0C96,20.2,95.8,20.1,95.6,20"></path>
<path class="st1" d="M119.7,17.2L119.7,17.2c0.1,0,0,0.4,0.1,0.6c0.3,0.7,0.7,1.6,1.4,1.9l0,0.4C120.4,19.4,119.7,18.4,119.7,17.2  L119.7,17.2z"></path>
<path class="st1" d="M123.1,19.7L123.1,19.7c0.1,0.1,0.2,0.3,0.3,0.5L123.1,19.7z"></path>
<path class="st1" d="M99.6,20.2L99.6,20.2c-0.2,0.1-0.3,0.1-0.4,0.1L99.6,20.2z"></path>
<path class="st1" d="M97.7,20L97.7,20c0.1,0,0.3,0,0.4,0.1l0-0.2c0.1-0.1,0.2-0.1,0.3-0.1c0.3,0,0.5,0.4,0.7,0.5l-1.1,0  c-0.6,0-1.1-0.1-1.7-0.2C96.8,20.1,97.3,20,97.7,20"></path>
<path class="st1" d="M110.1,20.2L110.1,20.2c0.2,0.1,0.4,0,0.5,0.2C110.4,20.5,110.3,20.2,110.1,20.2"></path>
<path class="st1" d="M151.3,19.7h-0.1c-0.4,0-0.8,0.1-1,0.4C150.6,20,151.2,19.9,151.3,19.7 M157.6,19L157.6,19  c-0.6,0-1.5,0.5-1.8,0.9L157.6,19z M155.8,19.5h-0.2l-0.4,0.5L155.8,19.5z M153.1,19.9L153.1,19.9c-0.3,0-0.8,0.1-1,0.4h0.2l0.1,0  C152.7,20.4,152.9,20.1,153.1,19.9 M152.1,19.7L152.1,19.7c-0.3,0.1-0.7,0.1-0.8,0.5C151.6,20.1,152.1,20,152.1,19.7 M154.1,19.7  L154.1,19.7c-0.3,0-0.6,0.1-0.8,0.5C153.7,20.1,154.1,19.9,154.1,19.7 M155.1,19.5L155.1,19.5c-0.4,0.1-0.8,0.5-1,0.8  C154.5,20.1,155.1,19.9,155.1,19.5 M156.2,18.5L156.2,18.5c-0.2,0-0.3,0-0.4,0.2l0.1,0.2l0.1,0c0.2,0,0.5-0.1,0.6-0.3L156.2,18.5z   M155.5,18L155.5,18c-0.2,0-0.4,0.1-0.5,0.3c0.3,0,0.6-0.1,0.7-0.2C155.7,18,155.6,18,155.5,18 M154.5,17.8L154.5,17.8  c-0.3,0.1-0.5,0.1-0.8,0.3C154.1,18.2,154.5,18.2,154.5,17.8 M153.1,17.7L153.1,17.7c-0.2,0.1-0.6,0.1-0.5,0.3  C152.8,17.9,153,17.9,153.1,17.7 M150.7,18.2l0.3,0c0.8,0,1.1-0.7,1.9-0.8c2.1,0.4,4.1,0.4,6.2,0.3l0.1,0.1  c-0.6,0.6-1.6,0.3-2.1,0.8l0.2-0.1c0.4,0,0.4,0.5,1,0.5c-0.9,0.9-2.3,0.9-3.5,1.2c-1.9,0.4-4,0.1-5.6,0l1.6-1.3  c-0.9,0-1.6,0.8-2.4,0.8h-0.2C148.9,19.1,150.4,19.4,150.7,18.2 M154.4,18.9L154.4,18.9c0.5,0,1,0.1,1.2-0.3l-0.4,0  c-0.5,0-1.1,0.2-1.4,0.5h0C153.9,18.9,154.1,18.9,154.4,18.9 M153,18.6L153,18.6c0.1,0,0.2,0.1,0.2,0.1l-0.1,0.2l0.9-0.5  c-0.1,0.1-0.3,0.1-0.4,0.1h-0.1c-0.5,0-1.1-0.3-1.5-0.3h-0.1c-0.3,0-0.5,0.2-0.7,0.6c0.3,0.1,0.5-0.3,0.8-0.3c0.1,0,0.1,0,0.2,0.1  l-0.5,0.5C152.1,19.1,152.6,18.5,153,18.6"></path>
<path class="st1" d="M115.3,14l-0.1,0.1c0.1,1.6,0.4,3.1,1.1,4.5l1.5,2.2c-0.8-0.7-1.5-2-2.2-3c-0.1-1.9-1.2-4-0.1-5.7  c0.3,0.3-0.4,0.6-0.2,1c0.3,0.3,0.6,1.2,0.8,1.6C115.6,14.5,115.5,14.3,115.3,14"></path>
<path class="st1" d="M118.5,20.4L118.5,20.4c0.1,0,0.2,0.1,0.3,0.2v0.2C118.5,20.9,118.5,20.7,118.5,20.4"></path>
<path class="st1" d="M119.9,20.5L119.9,20.5c0.1,0,0.3,0.1,0.3,0.2V21c-0.2-0.1-0.4-0.2-0.5-0.3C119.7,20.5,119.8,20.5,119.9,20.5"></path>
<path class="st1" d="M120.3,21L120.3,21c0.2,0,0.3,0.3,0.2,0.4C120.2,21.6,120.2,21.2,120.3,21"></path>
<path class="st1" d="M119,21.1L119,21.1c0.1,0,0.2,0.1,0.3,0.3v0.1l-0.1,0h0C119,21.5,118.7,21.3,119,21.1L119,21.1z"></path>
<path class="st1" d="M120.7,21.7L120.7,21.7c0.1,0,0.2,0.1,0.2,0.2c-0.1,0.1-0.2,0.1-0.2,0.1L120.7,21.7z"></path>
<path class="st1" d="M110.8,21.6L110.8,21.6c0.2,0,0.5,0.2,0.7,0.5C111.2,22.2,110.8,21.9,110.8,21.6"></path>
<path class="st1" d="M119.5,21.9L119.5,21.9c0.2,0.1,0.3,0.1,0.3,0.3v0.1C119.7,22.2,119.4,22,119.5,21.9"></path>
<path class="st1" d="M110.7,22.4l0.7,0.2c-0.1,0-0.2,0.1-0.3,0.1h-0.1C110.9,22.6,110.8,22.5,110.7,22.4"></path>
<path class="st1" d="M121.3,22.3L121.3,22.3c0.1,0,0.1,0.2,0.2,0.4v0c-0.1,0.1-0.6,0-0.4-0.4L121.3,22.3z"></path>
<path class="st1" d="M117.4,23.9L117.4,23.9c0.3,0,0.1,0.5,0.2,0.5C117.4,24.4,117.1,24.1,117.4,23.9"></path>
<path class="st1" d="M149.5,24.2L149.5,24.2c0.3,0,0.5,0.1,0.4,0.3l-0.6-0.1v-0.2H149.5z"></path>
<path class="st1" d="M150.5,24.2l0.2,0l0.1,0.1l0.1-0.1c-1.5-0.6-3.5-0.2-4.9-1.1c-0.2,0-0.3,0-0.3,0.2c0.8,0.8,2.3,0.5,3.4,0.8  c-1,0.6-2.1-0.3-3.3-0.3c-0.1-0.1-0.2-0.1-0.3-0.1c-0.4,0-0.8,0.5-1.2,0.6c-0.3-0.4,0.2-0.5,0.2-0.7c-0.2,0.2-0.4,0.3-0.7,0.4h-0.3  c-0.3,0-0.6-0.1-0.9-0.1c-0.1,0-0.2,0-0.3,0l-0.3,0c0.1-0.2,0.3-0.2,0.6-0.2c0.2,0,0.5,0.1,0.7,0.1h0.2c0.2,0,0.4-0.1,0.5-0.4  l-0.6,0h-0.2c-0.2,0-0.5,0-0.7-0.1l0.2-0.3l0.5,0l0.7,0h0.2c0.5,0,1-0.1,1.5-0.6l0.2,0h0.2c0.7,0,1.2-0.7,2-0.9l0.8-0.6l-0.2,0  c-0.5,0-1.1,0.4-1.5,0.6l-0.7,0.2c0.8-0.5,1.6-1.1,2.5-1.6l0.1,0.7c0.2-0.1,0.5-0.2,0.8-0.2c0.3,0,0.6,0,0.9,0.1  c0.1,0.5,0.4,0.1,0.8,0.1l0.1,0c0.3,0.1,0.6,0.1,0.9,0.1c1.2,0,2.2-0.5,3.5-0.5l0.4-0.3c0,0,0.1,0,0.1,0c-0.2,0.9-0.9,0.8-1.6,0.7  h-0.3c-0.3,0-0.6,0.1-0.9,0.3c0.4,0.3,1.1,0,1.6,0c0.4,0.9-0.9,1.3-1.5,1.6c-0.6-0.2-1.1-0.3-1.7-0.3c-0.9,0-1.8,0.1-2.6,0.3  c-0.1-0.1-0.2-0.2-0.4-0.2l-0.1,0v0.1c0.4,0.8,0.9,0,1.5-0.1c0.1,0,0.3,0,0.5,0.2c0.4,0,0.9,0,1.3,0l0.5,0l0.2,0.5  c-0.2-0.1-0.4-0.1-0.5-0.1c-0.2,0-0.4,0-0.5,0.1l0.3,0.2c-0.8,0.1-1.5,0.3-1.7,0.9l-0.2,0C150.6,24.5,150.3,24.2,150.5,24.2   M145.7,23L145.7,23c0.3,0,0.6,0.1,0.8,0.1h0.1c0.2,0,0.4-0.1,0.5-0.6c-0.8,0.1-1.8,0.1-2,0.8C145.2,23,145.5,23,145.7,23   M150.8,22.2L150.8,22.2c0.8,0.2,1.8-0.1,2.7-0.1c0.2,0,0.5,0,0.7,0.1v-0.2c-0.6,0-1.1-0.1-1.7-0.1l-0.3,0c-0.1-0.1-0.1-0.1-0.2-0.1  c-0.3,0-0.6,0.2-0.7,0.2h-0.1c-0.1,0-0.2-0.1-0.2-0.4c-0.5,0.3-1.3,0.5-1.6,0.9L150.8,22.2z M150.1,21.1h0.1H150.1  c-0.4,0-0.8,0.1-0.9,0.5c0.3-0.1,1-0.2,1.1-0.5H150.1z M148.4,22L148.4,22c-0.3,0-0.6,0.1-0.8,0.4c0.3-0.1,0.7-0.1,1-0.3  C148.6,22,148.5,22,148.4,22 M147.3,23L147.3,23c0.4,0,0.7,0.6,1.1,0.1c0.5,0.3,1.1,0.3,1.7,0.3c0.4,0,0.9,0,1.3,0.1  c-1.5,0-3,0.3-4.4-0.5C147.1,23.1,147.2,23,147.3,23"></path>
<path class="st1" d="M125.4,25.1L125.4,25.1L125.4,25.1z"></path>
<path class="st1" d="M117.8,21L117.8,21c1.8,1.9,4.2,2.9,6.1,4.4c-0.1-0.6-1-1-1.1-1.6l0.1,0c0.2,0,0.2,0.5,0.4,0.6  c0.6,0.2,0.7,1,1.2,1.4c-0.8,0.3-1.3-0.9-2.1-1.1C120.7,23.7,119,22.7,117.8,21"></path>
<polygon class="st1" points="134.3,25.9 134.3,25.8 133.9,25.8 "></polygon>
<path class="st1" d="M124.7,26.1L124.7,26.1c0.3,0.2,0.8,0.2,1,0.6C125.4,26.7,124.9,26.4,124.7,26.1"></path>
<path class="st1" d="M116.3,25.6L116.3,25.6c0,0.4,0.9,0.8,0.1,1.3h-0.1V25.6z"></path>
<path class="st1" d="M120.2,26.8L120.2,26.8c0.3,0,0.2,0.4,0.3,0.6h0C120.3,27.4,120.1,27.1,120.2,26.8"></path>
<path class="st1" d="M117.7,25.3l0.1,0c0.3,0,0.4-0.4,0.4-0.6c0.1,0.5,0.3,1.3,0.7,1.7l-0.3,0.5c0.6,0.5,0.6-0.5,0.9-0.6  c-0.1-0.2-0.5,0-0.5-0.4c-0.1-0.1,0.1-0.1,0.1-0.1c0.2,0.3,0.7,0.3,0.7,0.8l-0.4,0.1c0.2,0.3-0.1,0.4-0.2,0.5l0.1,0  c0.4,0,0.3,0.7,0.6,0.9c-0.1,0.2,0,0.3-0.2,0.3l-0.1,0c-0.4,0,0.1-0.4-0.3-0.6c-0.6-0.6-1.2-1.2-1.3-2  C118,25.5,117.4,25.8,117.7,25.3"></path>
<path class="st1" d="M117.4,27.8L117.4,27.8l0.1,0c0.2,0,0.2-0.3,0.4-0.3c0.1,0,0.1,0,0.2,0.1c-0.1,0.4,0.2,0.6,0.6,0.7  c0.2,0.4,0.9,0.8,0.4,1.3H119v-0.3c-0.6,0-1.6-0.1-1.3-1C117.5,28.2,117.3,28,117.4,27.8"></path>
<path class="st1" d="M141.5,30.6L141.5,30.6L141.5,30.6z"></path>
<path class="st1" d="M142.3,30.7L144,31C143.5,31,142.6,31,142.3,30.7"></path>
<path class="st1" d="M121.7,32.7L121.7,32.7c0.2,0,0,0.2,0,0.4h-0.2L121.7,32.7z"></path>
<polygon class="st1" points="125,33.9 125.2,34 125.2,33.9 "></polygon>
<polygon class="st1" points="123.7,34.3 123.9,34.4 123.9,34.3 "></polygon>
<path class="st1" d="M134.9,34L134.9,34c0.6,0.2,1.6,0.6,1.6,1.3c-0.5-0.4-1-1-1.7-1L134.9,34z"></path>
<polygon class="st1" points="135.2,35.4 135.3,35.5 135.3,35.4 "></polygon>
<path class="st1" d="M148.4,35.3L148.4,35.3c0.3,0,0.7,0.2,0.7,0.2l-1.3,0c0.1-0.2,0.2-0.3,0.5-0.3H148.4z"></path>
<path class="st1" d="M145.5,35.9l0.2-0.2L145.5,35.9z"></path>
<polygon class="st1" points="138.3,36.9 138.3,36.6 138,36.4 "></polygon>
<path class="st1" d="M145.3,37.1L145.3,37.1c-0.1,0-0.1,0-0.2,0.1L145.3,37.1z"></path>
<path class="st1" d="M139,36.8L139,36.8c0.2,0,0.4,0.3,0.4,0.5c-0.2,0-0.5,0-0.6-0.2L139,36.8z"></path>
<path class="st1" d="M136.7,36.9L136.7,36.9c0.2,0,0.1,0.3,0.1,0.5c-0.1-0.2-0.2-0.3-0.2-0.5L136.7,36.9z"></path>
<polygon class="st1" points="136.8,37.6 136.9,37.6 136.8,37.5 "></polygon>
<path class="st1" d="M145.5,35.9l-1.5,1.2c0.4,0.3,0.7,0.1,1.1,0c-0.3,0.3,0,1-0.7,0.9l-0.3-0.1h-0.1c-0.3,0-0.6,0.1-0.7-0.3  C143.7,36.9,144.8,36.5,145.5,35.9 M143.7,37.3v0.4l0.1,0.1h0c0.1,0,0.1-0.1,0.1-0.1C144,37.6,144,37.3,143.7,37.3"></path>
<path class="st1" d="M119.4,36.9L119.4,36.9c0.2,0.4-0.1,1.1-0.3,1.4L119.4,36.9z"></path>
<path class="st1" d="M145.7,36.9l0.7,1.2l0.1-0.1c-0.1-0.9-0.1-1.9-0.7-2.8c0-0.3,0.2-0.6,0.6-0.7c-0.1-0.6-1.2-1.3-0.5-1.9l0.5,0.2  c0.2-0.1,0.2-0.2,0-0.4c-0.1,0-0.2-0.1-0.4-0.1h-0.5l-0.3,0c0-0.6-0.9-0.2-0.8-1c-0.9-0.2-1.7-0.1-2.6-0.2v-0.2l2.5,0.2  c0.5-0.7,0.4-1.7,1.1-2.1c0.1,0.1,0.7,0,0.8,0.4c0,0.4,0,0.7,0.2,0.8h0.2c-0.1-0.2,0.3-1.1-0.3-1.3v0h0.1c0.2,0,0.5-0.1,0.7-0.1  c0.2,0,0.4,0.1,0.4,0.5c0.1,0.8,1,1.2,1.4,1.9l-0.1,0.1c-0.7-0.5-1.4-0.9-1.9-1.6c-0.1,1,1.3,2.2-0.2,2.7l0.1,0.4  c0.6-0.3,1.5-0.3,2.1-0.4c-0.1-0.5,0-1,0.4-1.4c-0.5-0.9-0.4-2.1-1.1-2.9c0-0.4,0.6-0.7,0.9-0.8c0.2,0,0.8,0,0.5,0.4  c-0.4,0.8,0.4,1.3,1,1.7c0.1,0,0.2,0,0.3,0c0.7-0.1,0.1-0.9,0.8-1.2c0.4,0.1,0.8,0.2,1.1,0.6c0.1,0.4-0.2,0.6-0.5,0.8  c-0.8,0.1-1.2,1-1.6,1.6c1,0,1.9-0.8,3-0.8l0.2,0c0.2,0.3,0.2,0.6,0.1,0.9c-0.8,0.1-1.4,0.1-1.7,0.9c0,0.8,0.4,1.5,1.2,1.6  c-0.1,0.3-0.3,0.7-0.7,0.8c-0.9-0.1-1-1.2-1.7-1.3l-0.8-0.6l-0.2,0.1l0.5,2.6c-0.2,0-0.5-0.2-0.7-0.4c-0.1,0.2,0.1,0.5,0.1,0.8  l-0.1,0c-0.5,0-0.6,0.5-1,0.8c-0.2,1,1,1,1,1.9c-0.3,0.2-0.6,0.4-0.9,0.4h-0.3c-0.1,0-0.2-0.1-0.3-0.1c-0.5-0.4,0.3-0.8-0.2-1.1  l0.1-1.6l1.6-0.4c0-0.5-0.6-0.7-0.8-1.2c-0.5,0.1-1.8-0.1-1.8,0.9c0.1,0.8,0.6,1.3,0.8,2c-0.3-0.5-0.6-1.1-1-1.6  c-0.2,0.8,0.1,1.9,0.7,2.6c-0.2,0.6-0.9,0.6-1.4,0.5c-0.1-0.8-0.5-1.4-0.8-2c-0.1,0-0.2,0-0.2,0h-0.1C145.4,37,145.6,37,145.7,36.9   M146,30.1L146,30.1l0.1,0.2C146.1,30.2,146,30.2,146,30.1c-0.1-0.2-0.4-0.5-0.6-0.5l-0.1,0c0,0.2,0.2,0.4,0.3,0.6  C145.7,30.3,145.9,30.1,146,30.1 M146,30.8L146,30.8c-0.3,0.2-0.4-0.1-0.4-0.4c-0.1,0.3-0.9,0-0.7,0.6c0.1,0,0.1,0.1,0.2,0.1h0.2  c0.1,0,0.3-0.1,0.4-0.1c0.1,0,0.1,0,0.2,0.1l0,0.1c-0.2,0.2-0.5,0-0.7,0.1c-0.1,0-0.2,0.1-0.2,0.2c0,0.1,0,0.3,0.1,0.4  c0.4,0.3,0.6,0.4,1,0.4c0.1,0,0.2,0,0.4,0c0.8-0.2,0.7-0.8,0.5-1.5c-0.2,0.4-0.6,1.1-1.2,0.9l0.2-0.6l0.1-0.1l0,0L146,30.8z   M148.7,28L148.7,28c-0.2,0-0.3,0.1-0.3,0.2c0,0.1,0.3,0.4,0.5,0.2l0-0.2C148.9,28,148.8,28,148.7,28 M151.9,28.7L151.9,28.7  c-0.2,0.1-0.3,0.2-0.2,0.4c0.1,0,0.3,0.1,0.4,0C152.1,28.9,151.9,28.8,151.9,28.7 M148.8,28.8L148.8,28.8c0.7,0.2,0.7,1.5,1.3,1.4  c0.1,0,0.4-0.1,0.6-0.3l0.3-0.3c0,0.5-0.7,0.8-1.1,1.4h-0.4L148.8,28.8z M153.3,31.1L153.3,31.1c-0.2,0-0.4,0.3-0.1,0.4  C153.4,31.4,153.5,31.1,153.3,31.1L153.3,31.1z M149.4,31.6h-0.1l-0.1,0.4c0.1,0.2,0.2,0.4,0.5,0.4c0.2-0.1,0.5,0,0.4-0.4  C150.1,31.7,149.7,31.6,149.4,31.6 M148.8,32.8L148.8,32.8c-0.9,0.1-1.9,0.7-2.7,0.7l0.3,0.9c0.2,0.1,0.4,0.2,0.6,0.3h0.2  C148,34.5,148.1,33.1,148.8,32.8 M146,33L146,33l-0.1,0.2c0,0,0.3,0,0.2-0.1C146.1,33.1,146.1,33,146,33 M152.5,31.2L152.5,31.2  c-0.6,0.5-2.1,0.2-1.8,1.6c0.5,0.5,1,0.8,1.3,1l-0.5-0.6c-0.9-1.1,0.7-0.8,1-1.4C152.6,31.6,152.7,31.2,152.5,31.2 M149.4,32.7  L149.4,32.7c-0.4,1-0.6,0.6-1.2,1.7l1.3-0.1c0.2,0.1,0.2,0.2,0.1,0.3l0.3,0.1C149.6,34,149.9,33.2,149.4,32.7 M152.7,34l-0.3,0.1  l0.1,0.2l0.1,0l0.2,0C152.8,34.3,152.8,34.1,152.7,34 M146.6,34.9L146.6,34.9c-0.2,0-0.4,0.1-0.4,0.4c0.1,0.2,0.3,0.3,0.5,0.4  c0.1-0.1,0.4-0.2,0.3-0.4C146.9,35,146.8,34.9,146.6,34.9 M148.7,38.4l-0.2,0.1c-0.1,0.2,0.3,0.5,0.4,0.3  C148.9,38.6,148.8,38.5,148.7,38.4 M146.6,38.7h-0.1l0.2,0.3c0.1-0.1,0.1-0.2,0.1-0.2C146.8,38.7,146.7,38.7,146.6,38.7"></path>
<path class="st1" d="M120.1,38.9L120.1,38.9c0.3,0.3,0,0.7,0,1.1C119.7,39.7,120.2,39.2,120.1,38.9"></path>
<path class="st1" d="M132.2,37L132.2,37c-0.3,1.2,0.8,2.5,2,3.3l-0.1,0.1c-1.1-0.7-1.9-1.8-2.3-2.9c0.1-0.3,0-0.9,0.3-0.8l0.2,0.1  c0.6,0.4,0.3,1.2,0.6,1.7C132.3,38.2,132.7,37.4,132.2,37"></path>
<path class="st1" d="M120.7,41.7l0.1-0.3L120.7,41.7z"></path>
<path class="st1" d="M134,41.1L134,41.1c0.6,0,1.4,0.5,1.7,1.2c-0.7-0.7-1.4-0.8-2-1.2L134,41.1z"></path>
<path class="st1" d="M121.7,41L121.7,41c0.3,0.3,0.2,1.1,0.3,1.5c-0.3-0.1-0.1-1.1-0.7-1.3L121.7,41z"></path>
<path class="st1" d="M134,42.1L134,42.1c0.4,0,0.6,0.5,1,0.5c0.4,0.1,0.7,0.2,0.8,0.5l-2-1.1C133.9,42.1,134,42.1,134,42.1"></path>
<path class="st1" d="M121.1,42.7L121.1,42.7c0.3,0.1,0.2,0.4,0.3,0.6C121.2,43.3,121,42.9,121.1,42.7"></path>
<polygon class="st1" points="120.6,43.4 120.6,43.4 120.6,43.4 "></polygon>
<path class="st1" d="M127.4,43.5L127.4,43.5L127.4,43.5z"></path>
<path class="st1" d="M135.1,43.2L135.1,43.2c0.4,0,0.7,0.3,0.9,0.6C135.7,43.7,135.1,43.4,135.1,43.2"></path>
<path class="st1" d="M121.8,43.7l0.2,0.1v0.2l-0.1,0C121.7,44.1,121.6,43.9,121.8,43.7L121.8,43.7L121.8,43.7z"></path>
<path class="st1" d="M134.1,43.8l0.1,0c-0.4,0.1-0.1,0.6,0,0.7c-0.2-0.2-0.7-0.3-0.6-0.7L134.1,43.8z"></path>
<path class="st1" d="M131.4,46L131.4,46c0.1,0,0.2,0.1,0.3,0v-0.4c0.4,0,0.1,0.4,0.1,0.7c-0.1,0.2-0.4,0-0.5-0.1L131.4,46  C131.4,46,131.4,46,131.4,46"></path>
<path class="st1" d="M133.1,45.7L133.1,45.7c0.7,0.4,1,1.4,1.7,2C133.9,47.5,133.6,46.5,133.1,45.7"></path>
<path class="st1" d="M122.1,44.4L122.1,44.4c0.5,0.4,0.4,1.5,0.7,2.2c0.2-1.4-0.1-2.8-0.7-3.9c2.1,1.4-0.1,4.2,1.6,6  C122.2,47.7,122.9,45.8,122.1,44.4"></path>
<path class="st1" d="M150,48.2L150,48.2c0.3,0,0.3,0.2,0.4,0.4l0,0.1h-0.1l-0.2-0.1L150,48.2z"></path>
<path class="st1" d="M123.4,46.3L123.4,46.3c0.2,0.6,0.4,1.6,1,2.3c-0.6-1.3,0.3-2.8-0.5-4c0.2,0.1,0.3-0.2,0.3-0.2l-0.3-0.8  c0.6,0.2,0.6,0.8,0.5,1.4v0c0,0,0-0.2-0.1-0.2h-0.1c0,0.5,0.7,1.3,0.2,1.8c0,0.9,0.4,1.8,0.4,2.5c-0.6-0.2-1.1-1-1.4-1.6V46.3z"></path>
<path class="st1" d="M135.1,47.5l0.8,1.6C135.3,48.7,135.1,48.1,135.1,47.5"></path>
<path class="st1" d="M134.4,44.7L134.4,44.7c2.5,0.7,1.2,3.6,3,4.8l0.1-0.2c0.1,0.2,0.5,0.1,0.4,0.5l-0.4-0.3v0.4  c-1.3-0.2-1.2-1.6-2-2.5h0.4c0.1-0.4-0.9-0.8-0.4-1.3C135.3,45.4,134.4,45.3,134.4,44.7"></path>
<path class="st1" d="M124.9,52.2L124.9,52.2c0.2,0,0.3-0.2,0.5-0.2l0.2,0c-0.2,0.4-0.6,0.5-0.8,0.8C124.4,52.6,125,52.5,124.9,52.2"></path>
<path class="st1" d="M128.7,52.1L128.7,52.1c0.1,0.2,0,0.5-0.2,0.8h-0.1C128.4,52.7,128.4,52.2,128.7,52.1"></path>
<path class="st1" d="M129,51.6L129,51.6c0.6,0.6,1.5,0,2,0.9c-0.2,0.3-0.7,0.3-1.1,0.5c0.2-0.2,0.4-0.7-0.1-1l-0.1,0h-0.1  C129.2,52.1,129,51.9,129,51.6"></path>
<path class="st1" d="M127.9,8.3h0.4H127.9z M100,16.8L100,16.8L100,16.8z M138.6,52.7l0.3,0h0.1c0.2,0,0.4,0,0.6-0.2h0.1  c0.4,0,0.6,0.5,0.8,0.6c0.2-0.5-0.4-0.6-0.1-1.1c0.8,1,1.6-0.2,2.5-0.2l0.1,0l0.2-0.2c-0.3-0.3-0.5-0.6-0.9-0.5  c-0.1,0-0.2,0-0.3,0.1c-0.1,0-0.2,0.2-0.4,0.2c-0.1-0.2-0.1-0.4-0.3-0.5c-0.4,0.1-0.7,0.2-1,0.5c0.1-0.2-0.1-0.4-0.2-0.5  c-0.5,0.3-0.4,1.3-1.2,1.2c-0.3,0.1-0.3,0.5-0.6,0.5c-0.1-0.6,0.6-0.8,1-0.9c-0.1-0.1-0.2-0.2-0.3-0.2c-0.5,0-0.7,1-1.3,1  c-0.3,0,0.1,0.4-0.2,0.4c-0.4-0.3,0.1-0.6,0.2-0.8c0.6-0.4,1.1-0.9,1.9-0.9c0.2-0.2,0.5-0.6,0.8-0.6c0.1,0,0.2,0,0.3,0.2l0.2,0  c0.2,0,0.3-0.1,0.5-0.1c0.1,0,0.1,0,0.2,0.1l0.4-0.5l-0.3-0.1c0-0.5,0.9-0.7,0.4-1.1H142c-0.3,0-0.6,0.4-1,0.6  c0.1,0.2,0.1,0.5,0.1,0.8c0,0-0.1,0.1-0.1,0.1c-0.1,0-0.2,0-0.3-0.2c-0.3-0.3-0.1-0.7,0.1-1c0.2,0,0.3-0.2,0.3-0.2  c-0.1-0.3-0.6-0.6-0.2-0.9c0.2-0.3,0.3-0.6,0.2-0.9c-0.3,0-0.5-0.6-0.2-0.7c-0.1-0.1-0.2-0.1-0.3-0.1c-0.2,0-0.4,0.1-0.6,0.1  c-0.1,0-0.3-0.1-0.4-0.3c0-0.2,0-0.4,0.2-0.4c0-0.2,0-0.2-0.2-0.2h-0.1l-0.3,0h-0.1l-0.1,0c-0.1-0.4-0.3-0.8-0.5-1.1  c-0.3,0,0.1,0.5-0.2,0.4c0.1,0.4,1,0.8,0.8,1.6c0.2,0.2,0.8,0.6,0.7,1.1c0.1,0.3,0.4,0.2,0.7,0.2c-0.7,0.4,0.2,0.9,0.2,1.3  c0,0-0.1,0.1-0.1,0.1h-0.2c-0.2-0.1-0.5-0.3-0.5-0.6c0-0.7-0.9-1.1-0.7-1.8c-0.7-0.2-0.3-1-0.9-1.5l-0.1,0.2  c-0.5,1.4,1.9,1.9,0.8,3.4c-0.4-1-2-1-2.4-2.1c0.2,0,0.3,0.1,0.3,0.2c-0.1-0.6-0.8-0.7-1.1-1.2c-0.1-1-1-1.5-1.7-1.9  c1.2,0,2.4,1,3.5,1.9l0.1-0.2c-0.6-0.4-1.1-1.1-1.7-1.5c0.6,0.1,1.2,0.8,1.7,1c-0.1-1-1.3-0.8-1.7-1.5c0.1-0.2,0.4,0,0.4-0.3l-1-0.7  l0.1,0c0.2,0,0.6,0.2,0.8,0.4c0.1,0,0.2,0,0.2-0.1c-0.9-0.4-1.3-1.5-2.4-1.7c0.1-0.1,0.2-0.1,0.4-0.1c0.8,0,1.4,1.5,2.3,1.4  c0.1-0.5-0.4-0.5-0.6-0.6l0.1-0.2c-0.6-0.6-1.7-0.7-2.4-1.8c-0.4-0.4-0.4-0.9-0.5-1.3l0.3,0c0.9,0.1,1.3,1.3,2.1,1.7  c1.6,0.6,1.9,2.1,2.5,3.4c1,0.6,1.9,1.4,2.9,1.8l0.2-0.2c-1.3-1-3.3-1.8-3.5-3.6c-0.9-1.3-1.5-2.3-3-2.8l0.1-0.1  c1.1,0.6,2.6,0.9,3,2.2c-0.1-2.1-2.3-2.4-3.3-4.3h0c-0.1,0.9,1,1.4,1.4,2.1h-0.1c-0.2-0.1-0.5-0.3-0.6-0.3h-0.1  c-0.5-0.6-0.8-1-1-1.8l0.3-0.1c0-0.1-0.2-0.1-0.1-0.2c0.1-0.1,0.1-0.1,0.2-0.1c0.2,0,0.3,0.3,0.5,0.4c0.5,1.6,2.3,2.1,3.2,3.1v-0.4  c-0.6-0.5-1.4-1.1-1.8-1.8h0.1c0.8,0,0.9,1.2,1.6,1.2c0.5,0.2,0.9,0.4,1.1,0.9c0.3-0.3,0-0.4,0.1-0.6c-1.9-0.4-2.2-2.8-4.1-3.3  c0.1,0,0.2-0.1,0.3-0.1c1.1,0,1.9,1.5,2.4,2.2c1,0.9,2.3,0.7,3.3,1.7c-0.5-1.4-2.6-1.1-3.3-2.1c0.7,0.2,1.3,0.7,2,0.8h0.3  c-0.9-0.7-1.3-2.5-2.5-2.6l-0.4,0c-0.8-0.8-1.5-2.1-2.6-2l-0.2,0c0.1-0.2,0.2-0.2,0.3-0.2c0.3,0,0.7,0.2,1,0.2  c1.4,1.3,3.1,2,4.5,3.4l0.3,0.3c0.3-0.7-0.8-0.9-1.2-1.5c-0.4-0.9-1.6-1-1.9-2c-0.8-1.2-2.2-0.4-3.3-1.3c1.1,0.6,2.9-0.2,3.8,1  l0.4,0c0.7,0,1.3,0.2,2,0.2h0.2c0.2,0,0.5,0,0.7-0.1c-0.7-0.3-1.7-0.3-2.3-0.7l-1.9-1.7c0.2,0.4,0.4,1,0.9,1.3  c-0.9,0-1.8-1.4-2.9-1.9c-0.1,0.6,0.8,0.6,1.1,1.2c-3.6-1.2-7.2-2.9-10.5-4.8c0.7,0,1.5,0.7,2.1,0.9c-0.1-0.2-0.6-0.3-0.5-0.7  l0.1-0.1c0.8,0.5,0.8,1.4,1.6,1.5c-0.4-0.7-1.2-1.6-2-2l0,0.5c-0.5-0.5-1.5-0.5-2-1.2l0.3-0.1c-0.4-0.1-0.2-0.6-0.3-0.8  c0.9,0.8,2.2,1.3,3,1.9v-0.4c-0.6-1.6-2.3-1.7-3.3-2.8c-0.6-0.9-1.3-1.9-2-2.7c-0.2,1.1,1,1.5,1.4,2.4c0.4,0,0.6,0.7,0.9,1.1  c-0.6,0-0.5-0.9-1.3-0.9c-0.1,0.5,0.7,0.9,0.7,1.5c-0.8-0.4-1.3-1.5-1.3-2.3c-0.7-0.9-0.8-2.1-1.8-2.5c0.4,0.6,0.4,1.8,1.3,2v0.3  h-0.4v0.6c-0.5,0,0-0.7-0.3-1c-0.2-0.8-1-1.4-1-2.2l0.2-0.1c0.6,0,1,1.2,1.7,0.8c-1.7-1.1-2.6-2.4-3.3-4.3l0.2-1.1l0.6,0.7  c-0.2-0.8,0.1-1.6-0.4-2.2c0.3-0.4,0.2-0.9,0.6-1.1c0.1,0.8-0.5,2.5,0.3,3.4c-0.2,0.7,0.5,1.2,0.7,1.9c-0.3-0.3-1-0.3-0.7-0.5  c0,0,0.1,0.1,0.2,0.1c-0.1-0.4-0.4-0.9-0.5-1.4c0,0-0.1,0.1-0.1,0.1h-0.2c-0.1,0-0.2-0.1-0.3-0.3l0-0.1h0l-0.1,0.2  c0.1,1,0.7,2.1,1.6,2.4c-0.3,0.4,0.5,0.4,0,0.7l0.4,0.2c0,0.7,1.2,0.9,1.2,1.7c1.1,1.2,1.8,2.9,3.5,3.4c0.7,0,0.6,1.4,1.4,1L127,24  c-0.2,0.1-0.3,0.1-0.4,0.1c-0.3,0-0.2-0.7-0.6-0.8H126c-0.1,0-0.2,0-0.3,0.1c-0.3-0.3-0.8-0.5-0.7-0.9c1.4,0.4,2.7,1.3,3.7,2.4  L129,25c-0.6-1.3-1.9-3-3.3-3.1c-0.7-1.1-1.9-1.3-2.6-2.6l0.5-0.2c-0.1-0.5-0.7-0.9-1.1-1.1c-0.9-1.5-1.8-3-1.3-4.9l0.8-1.4  l-1.2,0.8c0.1-0.6,1.2-0.9,0.9-1.6c0.3,0,0.3,0.1,0.3,0.2c0,0.1,0,0.2,0.1,0.2l0.6-0.5l-0.3-0.3l1.3-1.5h-0.3c1-0.8,2.2-2.5,3.9-2.5  l0.2,0c0.2,0.5,1.4,0.5,1.5,1.2c0.4-0.1,0.6-0.9,0.3-1.5l-0.2-0.2c-0.3,0-0.2,0.7-0.5,0.7h-0.1L128.4,7c-0.4-0.2,0-0.6-0.1-1  l0.2,0.5c0.4-0.1,0.1-0.7-0.1-1c-0.3-0.4-0.6-0.5-1-0.5h-0.1c-0.4,0-0.8,0.1-1.1,0.2c-1.1,0-0.9,1.5-1.9,1.7  c-0.1-0.1-0.2-0.2-0.3-0.2c-0.3,0-0.4,0.5-0.8,0.5H123c-0.7,0.2-0.9-0.2-1.4-0.5l-1.3,0.6c0.1-0.2,0.3-0.3,0.3-0.5  c-0.1-0.3-0.6-0.1-0.4-0.4l0.1,0h0.1c0.1,0,0.3,0,0.4,0h0.2c0.1,0,0.3-0.1,0.4-0.2c0.3,0.4,0.4-0.2,0.6-0.2c0.7,0,1.7,0.4,2.2-0.4  c0.2-0.2,0-0.6-0.3-0.6c-0.5-0.1-1.1-0.2-1.6-0.2c-2.3,0-4.5,1.4-6,3.2c-0.2,0.2-0.2,0.5-0.4,0.7c0.6,0-0.2,0.7,0.5,0.9  c-0.4,0.2-0.4,0.4-0.6,0.8c-0.5,0.8-1,2-1,2.9c-0.7,0.9,0.1,1.9-0.6,2.9c0.2,1.4,0.7,2.6,1.1,3.9l2.4,3.3c2.3,1.8,4.9,2.9,7.4,4.5  c0.4,0.9,1.6,0.8,2.1,1.7l0.2-0.2c2.2,1.2,4.6,2,6.9,3c-0.7,0.1-1.4,0.5-2.1,0.6h-0.2l-0.2,0c-0.7,0.5-0.6,1.7-1.6,1.8  c-0.6,1-0.2,2.3-0.5,3.3l0.7,1c-1-0.6-1.6-2-2.6-2.3l1.9,2.4c0.8,0.3,1.2,1.5,1.6,2.3c1.8,0.9-0.1,3.3,2,4.1v0.1  c-0.6,0.1-0.7-0.6-1.1-0.9l-0.1,0.5c-0.4-0.8,0.3-1.9-0.6-2.4c0,0.8,0.1,1.8,0.2,2.8c-0.4,0.1-0.5,0-0.9,0c0.6-0.6-0.3-0.9-0.3-1.3  v1.1c-0.9-0.5-0.7-2-1.8-2.5c0.2,1,1.2,2.2,1.6,3.1h-0.1c-0.3,0.9,0.4,1.5,0.8,2.3c0.1-0.2-0.2-0.7,0.3-0.7  c-0.2,0.7,0.6,1.6,0.3,2.4c-0.8-1.9-3.1-2.1-3.6-4.2h-0.2c0.1,0.5,0.3,1.1,0.4,1.6c-0.1,0-0.2-0.3-0.4-0.4c-0.2,0.4,0.4,0.6,0.2,1  c0.5,0.3,0.1,1.4,0.9,1.6c-0.4,0.4,0.4,0.4,0.2,0.9l-0.1,1.4c-0.2,0-0.3,0.1-0.5,0.1h-0.1c-0.4,0-0.7-0.2-0.9-0.6  c0.1-0.5,1.1,0,0.8-0.8c-0.1-0.1-0.3-0.2-0.4-0.2h-0.1c-0.1,0-0.2,0.1-0.3,0.1c-0.7,0.1-0.4,1.2-1.3,1.2c0,0-0.1-0.3,0-0.4  c0.2,0.1,0.5-0.2,0.8-0.4c0-1.1-1.1-1.6-1.3-2.4c-0.1-0.6-0.5-0.8-0.4-1.4c0.2,0.3,0.7,0.7,1,0.9c0.1-2-0.4-4.6-2.5-5.7  c0.1-0.2,0.3-0.3,0.5-0.3c0.3,0,0.7,0.2,0.9,0.4c0.2,0.1,0.2,0.4,0.4,0.4c-0.1-1.4-2.1-0.9-2.5-2.1c0.1-0.2,0.3-0.3,0.6-0.3l0.3,0  l0.2,0.1l-0.7,0.2c0.5,0.9,1.7,0.8,2.4,1.6c0.1-0.8-1.1-0.9-1.5-1.6c0.5,0.5,1.6,0.7,2.2,1.4c0-0.5-0.4-1.1-1-1.3c0,0-0.1,0-0.1,0  c-0.1,0-0.2,0-0.3-0.1c0.7-0.3-0.4-0.6-0.4-1l-0.2,0.1c-0.5,0-0.9-0.6-1.5-0.6c-0.2-0.2-0.1-0.4-0.1-0.7l0.2,0h0.1  c0.6,0,1.1,0.6,1.6,1c0.2,0.5,0.9,0.8,1.4,1.2c-0.2-1.8-2.1-2.3-3.5-3.3v-0.3l0.4,0c1.2,0,2,1.1,2.7,2.1c0.5-1.1-1.2-1.5-1.7-2.1  c0.4-0.2,0.4-0.5,0.4-1c-0.1-0.5-0.9,0-0.9-0.7c0.2-0.2,0.5-0.3,0.7-0.3c0.7,0,1.5,0.8,2.1,1.2c0.2,0.1,0.1,0.1,0,0.3  c1.4,0.8,1.1,2.3,2.6,3.2l0.3,0.2l0.1-0.6h0.1c-1.3-0.6-1-2.5-2.2-3.4c0.1-0.7-0.6-1.1-0.6-1.8c-0.5-1.4-2.2-0.5-2.8-1.3l-0.5,0.4  v-0.3c0.1,0,0.1-0.1,0.2-0.1c-0.5-0.4-0.5-1.3-1-1.2l-0.1,0c0.1,0.3,0.3,0.4,0.3,0.8c-0.2-0.2-0.3-0.2-0.4-0.3h-0.1  c-0.2,0-0.4,0.1-0.8,0.1c-0.2,0.5-1,0.5-1.2,1.3c-1.1,0-0.8,1.2-1.6,1.4c0,1.1-1,2-0.1,3c-0.1,0.2-0.2,0.7,0,1  c0.7-0.5-0.3-1.6,0.4-2c0.4,0.5-0.1,1.5,0,2.3l0.1,0.9l0.2-0.1c0,0.4-0.1,1.1,0.3,1.5c0.3-0.5-0.2-1.1,0-1.6v-1.2  c0.8,0.2-0.1,1.2,0.7,1.6c-0.4,0.9,0.7,1.5,0.5,2.4c0.7-0.5-0.4-1.3-0.1-2.1c0.3,0.4,0.1,1,0.5,1.4l0.1-0.3c-0.4,1,0.5,2.1,1,2.9  c0.2,1.1,0.1,2.1,0.8,2.9c-1.7-0.7-1.2-2.6-1.9-4c0.6,0.8,0.8,1.8,0.8,2.7l0.3-0.3l0,0v0h0c0-0.9-0.4-1.9-1.1-2.4  c-0.2-0.4-0.4-0.7-0.8-1c-0.1-0.3,0-0.7-0.3-0.9c-0.1,0.9,0.5,1.8,0.7,2.7h-0.2c-1.3-1.5-1.7-3.5-2.4-5.3c-0.5,0.9,0.7,1.6,0.2,2.6  c-0.7-1.4-0.1-3.4-1.1-4.7c0.1-0.8,0.3-1.5,0.9-1.9c0.9,0,0.5-1.1,1.2-1.2c-0.2-0.4-0.4-1-0.8-1.2c0,0.5,0.4,1.5-0.2,1.9h-0.2  c0-0.4,0.3-0.7,0-1.1c-0.6,0.2-1.1,0.7-1.9,1.1c-0.1,0-0.1-0.1-0.2-0.1l-0.1,0l-0.3,0.1l0.3,0.2c-0.5,0.6-1.1,0-1.7,0  c-0.1,0-0.2,0-0.2,0c-0.6,0.2-1.3,0.4-2.1,0.5H111c-0.7,0-1.5-0.2-2-0.7c0.2-0.4,0.4-0.5,0.6-0.4c0.3,0,0.6,0.2,0.9,0.2h0.2  c0.1,0,0.1-0.1,0.2-0.1c-1.5-0.7-3.7,0.1-5-1.3l0.2-0.4c1,0,1.5,0.5,2.4,0.5c1.2,0.3,2.4,0.9,3.5,1.1c0-0.4-0.4-0.5-0.7-0.5h-0.4  c-1.8-1.3-4.3-1.1-6.5-1.8c0-0.5-1.1-0.6-0.6-1.1l-0.4-0.2l2.2,0.2l0.2-0.2c-1.3-0.7-3.3,0.3-4-1.3l0.4-0.7  c-1.2-0.1-2.4-0.6-2.8-1.9l1.1-0.5c-0.7-0.4-1.9-0.8-2.2-1.8l0.8-0.4c-0.9-0.6-2.5-1-2.7-2.3l0.1,0c0.1,0,0.2,0.1,0.3,0.1h0l0.1-0.1  c-2-0.8-4.5-1.6-5.8-3.6c-0.1-0.1,0-0.2,0.1-0.2c0,0,0.1,0,0.1,0.1c0.8,0.1,1.6,0.4,2.1,0.8h-0.3c-0.5-0.1-1.1-0.5-1.6-0.5l-0.1,0  c1.6,0.9,3.5,0.8,5.2,1.3c-1.1-0.4-2.9,0-4.2-0.5c0.9,1,2.6,0.5,3.7,0.8l1.7,0.2l-2.8-0.2c0.1,0.2,0.3,0.4,0.5,0.5  c-0.8-0.2-1.6-0.4-2.4-0.7L93,19.4c0.7,0.7,1.9,0.5,2.6,1.1c0.7,0.3,1.5,0.4,2.3,0.4h0.4c0.8,0,1.6-0.1,2.3-0.1  c0.1,0.2,0.3,0.2,0.2,0.3l-0.6,0.1l0.8,0.4h-0.2c-1,0-1.9-0.6-2.9-0.6c-0.2,0-0.3,0-0.5,0.1l1.4,0.6c-0.5,0.2-0.8-0.1-1.2-0.1  c-0.1,0-0.2,0-0.3,0.1v0.1c1.3,0,2.6,0.8,4,0.3c0.6,0.8,1.6,0.7,2.3,1.2c0.2-0.1,0.6-0.1,0.6-0.4c-1-0.1-2.1-0.1-2.8-1.1  c-0.2-0.3-0.7-0.9-0.1-1.1l-1.2-0.1v-0.1c0.2-0.1,0.4-0.1,0.6-0.1c0.4,0,0.9,0.1,1.2,0.1c-0.2-0.3-0.6-0.3-1-0.4h-0.4l-0.3,0h-0.2  c-0.3,0-0.6,0-0.8-0.1v-0.1h0.9c-0.2-0.3-0.5-0.4-0.8-0.4c-0.4,0-0.9,0.1-1.3,0.1H98c-0.2,0-0.5-0.1-0.6-0.2c0-0.2,0.3-0.2,0.6-0.2  H98l0.5,0.1c0,0,0.1,0,0.1,0c0,0,0.1-0.1,0.1-0.1c-0.2-0.2-0.5-0.2-0.7-0.3c-0.6,0-1.2,0.2-1.7,0.1c-3.3-1.2-7-1.9-9.3-5l0.6-0.2  c-0.8-1.1-2.4-1.3-2.7-2.6c0.1-0.1,0.2-0.2,0.3-0.2l0.3,0.1c0.1,0,0.2,0,0.2-0.3c2.2,1.1,4.7,1.2,7,1.9l-1.2,0  c0,0.5,0.5,0.3,0.7,0.4c0.1-0.1,0.3-0.1,0.4-0.1c0.4,0,0.8,0.2,1.1,0.3l-0.2,0h-0.1c-0.2,0-0.5-0.1-0.7-0.1c-0.2,0-0.5,0.1-0.6,0.3  c0.1,0.1,0.2,0.2,0.4,0.2l0.3,0h0.1c0.1,0,0.1,0,0.2,0.1l0.2,0c0.3,0,0.6,0,0.8,0.1c-0.1,0.1-0.7,0.1-0.9,0.2c0.5,0.5,0.9,1,1.6,1.1  l0.1,0.4c1.1,0.5,2.2,1.3,3.4,1.6c-0.2-0.3-0.7-0.9-1.3-0.9l-0.1,0l0.4-0.3c-0.4-0.3-0.8-0.3-1.3-0.4h-0.6v-0.1c0.1,0,0.1-0.1,0.2,0  c0.4,0,0.9,0.3,1-0.3c2.5,2.6,5.5,3.7,8.5,4.8c0.2,0.4,0.7,0.4,1,0.6l0.1-0.1c-1-0.8-2.2-1.1-3.5-1.6l-0.1-0.5  c-0.9-0.5-1.9-0.9-2.8-1.4c0.3,0.1,0.6,0.2,0.9,0.3h0.5c0.1-0.2,0.3-0.3,0.5-0.3c0.3,0,0.7,0.3,0.8,0.6l-0.2,0.2  c0.6,1.3,2.1,0.1,2.6,1.6c-0.3-1.3-2.3-1.2-2.7-2.7c0,0,0.1-0.1,0.1-0.1c0.2,0,0.4,0.5,0.7,0.5l-0.2-0.4c1.5,0.9,3,1.9,4.8,2.1  c0.2,0.2,0.8,0.3,0.6,0.8c-0.1,0-0.2,0.1-0.3,0.1c-0.7,0.1-1.1-0.8-1.8-0.8l-0.3,0c0.7,1.1,2,1.3,3.1,1.8c0,0.8,1,1.3,0.6,2.1  c-0.4-1.1-1.1-1.9-2.3-2.3c-0.9-0.1-1-1.2-2-1.4c0.6,0.9,1.8,1.8,2.8,2.1c0.6,0.3,1.2,1,1.2,1.6l-1.1,0c0,0.2,0.2,0.3,0.2,0.5  c0.4,0.6,1.1,1.4,1.9,1.3c-0.7-0.2-1.4-0.7-1.6-1.3c0,0,0.1-0.1,0.1-0.1l0.1,0c1.3,1.4,3.3,1.8,5.1,1.8c-0.4-0.1-0.8-0.2-1.2-0.5  c-0.9-0.1-1.9-0.6-2.6-1.2c0.8,0.4,1.6,0.6,2.4,0.8c0.6,0,0.9,0.9,1.4,0.4l-0.8-0.2l0.2-0.2c-0.6-0.5-1.8,0-2.3-0.9l0.1,0  c0.2,0,0.5,0.2,0.7,0.4c0.3,0,0.6,0.1,1,0.1h0.2c0.3,0,0.5-0.1,0.6-0.3c-0.2,0-0.4,0.1-0.7,0.1h-0.4c-0.6-0.1-1.2-0.3-1.4-0.9  l0.2-0.1c0.4,0.3,1,0.6,1.4,0.6c0.1,0,0.2,0,0.3-0.1l-0.4-0.1c-0.5-0.3-1.6-0.4-1.4-1.2c0.5-0.5,0.3-0.6,0-0.6c-0.3,0-0.8,0-0.9-0.2  c0.2-0.1,0.5-0.2,0.7-0.2c0.2,0,0.4,0.1,0.6,0.2c-0.3-0.7-1.5-0.8-1.8-1.2c0.7,0,1.2,0.6,1.6,0.7c-0.2-0.6-1-0.5-1.3-1.1  c0.1-0.1,0.2-0.2,0.3-0.2c0.3,0,0.5,0.4,0.8,0.5c-0.3-0.9-1.5-1.2-2.2-1.8c0.1,0,0.2-0.1,0.3,0c0.6,0,1.1,0.7,1.6,0.7  c-0.7-0.8-1.5-0.9-2-1.6l0.1-0.1c0.4,0.2,0.9,0.5,1.3,0.6V17c-1.3-0.6-2.3-1.3-3.1-2.5l0.4,0.8c-1.6-1.5-3.4-2.8-5.3-3.5  c0-0.6-0.7-0.7-1-1.2c-2.5-1.5-5-3.2-8.1-3.4c-6-3.6-13.2-4.7-19.9-6.6l5,1.9c0.5,0.4,1.6,0.3,1.9,0.9c0.4,0.2,0.5-0.2,0.8-0.2  l0.2,0c1.6,1.1,3.6,1.3,5.2,2.1c1.9,0.4,2.7,2.2,4.6,2.3c0,0.2,0.1,0.3,0.3,0.3c0,0,0.1,0,0.1,0c1.8,1.4,3.6,2.2,5.6,3  c1.5,0.2,2.7,0.5,3.8,1.6c-1,0-1.6-0.9-2.7-0.9c0.7,0.6,2,1.1,2.8,1.8c-0.1,0-0.2,0.1-0.2,0.1H101c-0.4,0-0.7-0.2-1-0.2h-0.1  c0.1,0.1,0.2,0.1,0.3,0.1c1.5,1.5,3.4,2.3,5.4,2.9c0.1,0.2,0,0.4-0.2,0.6c-2.3-0.8-4.6-1.5-6.5-3.1l1,1L99.8,15  c-0.9-0.3-1.4-1.7-2.3-1.7c-0.2,0-0.4,0-0.6,0.2c0.9,1.6,2.5,2,3.8,3.1l-0.1,0.1c-1.1-0.2-1.9-1.1-2.9-1.6c0.8,0.6,1.5,1.3,2.3,1.8  c-1.1-0.5-2.1-1.1-3-1.8l0.4-0.4l-0.6-0.3c0.3-0.2-0.1-0.4-0.2-0.6l-0.8-0.3c0.2-0.1,0.4-0.1,0.7-0.1h0.2c0.4,0,0.9,0,1.2-0.2  c-0.5-0.9-1.5-1.2-2.5-1.3l0.2,0H96c0.9,0,1.6,0.2,2.3,0.8c-1.4-1.7-4.1-2-6.1-3.5l0.7,0.2c0-0.4-0.6-0.6-0.7-0.8  c-1-0.3-2-0.2-3.2-0.3C89.2,8,89,8,89,7.9l0.3-0.2c0.2,0.1,0.5,0.1,0.8,0.1h0.2c0.3,0,0.5-0.1,0.7-0.1c-0.2-0.3-0.6-0.4-0.9-0.4  c-0.7,0-1.4,0.3-2,0.1C84.3,6.3,80.8,4.3,76.9,3c-0.1-0.4-1.1-0.2-0.7-1c-1-0.8-2.6-0.7-3.4-2l0.8,0.4l0.1-0.1  c3.8,0.4,7.1,1.9,10.6,2.7c3.6,0.2,6.6,2.6,10,3.7c3.9,0.7,6.9,3,10.3,4.7c0,0.2,0.1,0.3,0.3,0.3h0.3c0.2,0,0.3,0,0.4,0.2  c0.8,0.6,1.5,1.3,2.4,1.3c2.6,1.7,4.2,4.5,5.7,6.8c-0.1,0.3,0.4,0.7,0.6,1c0.3,0.9,0,1.9,0.3,2.7l0.4-0.5c-0.9-2.8-1.2-6-0.7-8.9  c0-1.9,0.5-3.7,1.6-5.2C115,9,116,8.4,116,7.8c1.7-1.7,4-3.2,6.4-3.2c0.8,0,1.7,0.2,2.5,0.6c0,0.1,0.1,0.2,0.1,0.3  c0.8-0.3,1.8-0.7,2.7-0.7c0.5,0,1,0.2,1.4,0.6c0.8,0.6,0.6,1.7,0.5,2.3c-0.4,0.6-0.8,0.9-1.3,1.2c-0.3-0.5,0.5-0.3,0.4-0.8  c-0.3-0.4-0.8-0.5-1.3-0.5c-0.4,0-0.7,0-1,0.1c-1,0.2-1.7,1.1-2.6,1.6l0.2,0c0.8,0,1.5-0.8,2.3-0.8l0.2,0c0.2,0,0.2-0.2,0.3-0.2  l0.1,0c0.1,0.2-0.5,0.5-0.7,0.5c-0.1-0.1-0.2-0.1-0.3-0.1c-0.2,0-0.4,0.2-0.6,0.4v0.1c0.8,0,2-0.2,2.6-1h0.4  c-0.8,0.5-0.7,1.9-1.9,1.9c-0.8,0.2-1.7,0.3-2.3,1.1c-0.5,0.7-0.5,1.8-0.2,2.5c-0.3,1.7,1.2,2.8,2.4,3.9c0.9,0.1,1.6,1,2.5,1  l1.6,1.1c-0.2-0.9,0.9-0.6,0.9-1.3c0.2-0.1,0.4-0.2,0.6-0.2c0.7,0,1.4,0.6,2,0.4c0.1-0.6,1.4-1.4,0.5-2.2c0.6-1-0.4-2.4,1.1-2.7  c2.9-1.1,5.7-2.5,8.6-3.1c0.6-0.6,1.6-0.2,2.1-0.9c8-1.9,16.4-3.2,24.9-3.3h1.6c1.5,0.3,3.2,0,4.6,0.5c-1.9-0.1-3.8-0.1-5.8-0.1  h-1.2c-8.2,0-16.7,0.8-24.2,3.4l0.7,0.1c-1.2,0.2-2.5,0.5-3.5,1.2l-0.2,0l-1-0.1c-0.2,0-0.4,0-0.6,0.1c0,0.2,0.1,0.2,0.1,0.2h0  l0.1,0h0c0.1,0,0.1,0,0.2,0.1c-0.2,0.2-0.5,0.2-0.8,0.3h-0.3l-0.3,0h-0.2c-0.4,0-0.7,0.1-1,0.3c0,0.1,0.1,0.1,0.2,0.1h0.1l0.2,0  c0.1,0,0.2,0.1,0.1,0.3c-0.2-0.1-0.4-0.2-0.6-0.2c-0.4,0-0.7,0.1-1,0.3l0.6,0.2h-0.2c-0.4,0-1,0.1-1.4,0.2l1,0.2l-1.6,0.1l0.6-0.5  l-0.1,0h-0.1c-0.5,0-0.9,0.6-1.3,0.8h1.9c0,0,0.1,0,0.1,0c-0.8,0.1-1.9,0.3-2.7,0.3v0.1c0.4,0.2,1.4,0.1,1.7,0.3l-0.1,0  c-0.1,0-0.3-0.1-0.4-0.1h-0.1c-0.1,0-0.2,0.1-0.2,0.2l-0.6,0h-0.1c-0.2,0-0.3,0-0.4,0.1c0,0.2,0.1,0.2,0.2,0.2h0.2  c0.1,0,0.2,0,0.3,0.1c0,0.4-0.6,0.1-0.6,0.4c0.6,0.5-0.4,0.8,0.3,1.2c-0.1,0-0.2-0.1-0.3-0.1c-0.1,0-0.2,0-0.2,0.1  c0.2,0.3,0.4,0.2,0.8,0.2h0.2c-0.3,0.6-1.2,1.1-1.2,1.8c-0.2,0.4-0.2,1-0.2,1.3c-0.1-0.2-0.3-0.2-0.4-0.2c-0.1,0-0.1,0-0.2,0H134  c-0.1,0-0.2,0-0.2-0.1c0.4-0.4-0.6-0.8-0.7-1.4c-0.5,0.5,0.4,0.8,0.3,1.3l-0.2,0c-0.5,0-0.8-0.8-1.3-0.9h-0.1l-0.2,0.1  c0.4,0.6,1.3,1,1.8,1.5l-0.2,0c-0.3,0-0.4-0.3-0.7-0.4l-0.1,0.1c1.2,1.1,2.9,1.8,4.6,1.5c0.2,0.2,0.4,0.3,0.6,0.3h0.1l0.3,0  c0.2,0,0.4,0,0.6,0.2c0.3,0.3,0.7,0.6,1.1,0.7l-1.1-1c0.4-0.2,0.2-0.9,0.7-0.9c-0.1-0.2-0.4-0.4-0.7-0.3h-0.1l-0.1,0.2l0.3,0.1  c-0.4,1-0.8,0.8-1.7,0.6c-0.6-0.3,0.2-1-0.7-1.2c0.2-0.4,0.6-0.2,1-0.4l0.7,0.1h0.2c0.2,0,0.3,0,0.5-0.1c-0.5,0.2-0.9,0.3-1.4,0.4  c-0.2,0-0.3,0-0.5,0c0.1,0.3,0.5,0.3,0.9,0.3c1.1-0.2,2.1-0.8,3.2-0.8c0.5,0,0.9,0.1,1.4,0.4c-0.2-0.9-1.4-0.4-2.2-0.9  c0,0.2-0.2,0.4-0.4,0.4l0.1-0.6c-0.2,0.1-0.5,0.1-0.8,0.1h-0.5c-0.3,0-0.6,0-0.8-0.1c0.1-0.3,0.6,0.1,0.4-0.5c0.9,0,1.7-0.2,2.1-0.9  l-0.2,0.8l0.1,0c0.7,0,0.8-0.8,1.2-1.2c1.4,0.4,2.8,0.4,4.3,0.4h0.5l1.4,0c0.9-0.4,1.6,0,2.4-0.6c1.1,0,0.8-1.4,1.8-1.4v-0.1  c-0.2,0.1-1,0.1-1,0.5c-1.6,0.7-3.3,2-4.9,1c0.5-0.4,1.3-0.8,1.6-1.5c-0.7-0.1-0.8,1-1.6,1.1c-0.5,0.5-1.2,0.7-1.9,0.8h-0.5  c-0.9-0.1-1.8-0.3-2.6-0.5l0.5-0.4c-0.1,0.1-0.3,0.1-0.4,0.1h-0.1l-0.6,0c-0.3,0-0.6,0.1-0.9,0.3c0.1,0.1,0.2,0.2,0.3,0.2h0.2  c0.1,0,0.1,0,0.2,0c0.1,0,0.2,0,0.3,0v0.1l-0.2,0h-0.2c-0.4,0-0.8-0.2-1-0.4c0.6-0.9,1.9-0.2,2.8-0.7c0.1-0.1,0.4-0.5,0.1-0.5h-1.3  c0.1-0.2,0.4-0.6,0.7-0.6c0.1,0,0.2,0.1,0.3,0.3l0.1-0.1l-0.4-0.3c0.9-0.5,2.2,0,2.9-1c-0.3-0.3-0.7-0.5-1.1-0.5  c-0.2,0-0.5,0.1-0.6,0.2c0,0.1-0.1,0.1-0.1,0.1h0l-0.1,0c0.5-0.3,1-0.5,1.5-0.5c0.6,0,1.2,0.1,1.8,0.1h0.5c0.5,0,0.9-0.1,1.4-0.4  l0.1-0.1c-0.1-0.1-0.2-0.1-0.3-0.1c-0.2,0-0.3,0.1-0.5,0.1h-0.1c-0.1,0-0.1-0.1-0.2-0.2c0.2-0.1,0.4-0.2,0.7-0.1  c0.5,0,1,0.3,1.5,0.3c0.3,0,0.6-0.1,0.8-0.6l-0.3,0c-0.2,0-0.5,0-0.7,0h-0.4c-0.1,0-0.3,0-0.4-0.1v-0.1l0.4,0c0.1,0,0.3,0,0.4,0h0.4  c0.1,0,0.2,0,0.4-0.1l-0.2-0.3c0-0.2,0.2-0.3,0.4-0.3l0.2,0c0,0.2-0.1,0.6-0.1,0.9c0.1,0,0.1,0,0.2,0c0.4,0,0.3-0.5,0.7-0.5l0.2,0  c0.1-0.1-0.1-0.3-0.3-0.3l-0.1,0l-0.4,0.1c0.3-0.4,1-0.2,1.4-0.4c0.5,0,0.9-0.2,1.4-0.2c0.1,0,0.3,0,0.4,0c-0.3,0.2-1.3,0.1-1.8,0.7  c0.1,0,0.3,0,0.4,0c1.1,0,2-0.8,3.1-0.8c0.2,0,0.4,0.1,0.7,0.1l0.2-0.2c-0.6-0.3-1.4-0.1-1.9-0.3v-0.1c1.9,0.2,3.5-0.4,5.2-0.7  l0.2,0.4c2.3-0.9,5.4-0.7,7.2-2l-1.7-0.2c4.6-0.4,8.6-0.6,13.2-1c0.1-0.2,0.2-0.3,0.4-0.3c0.3,0,0.7,0.2,0.9,0.2  c0.1,0.1,0.1,0.1,0.1,0.2c-1.4,0.2-2.8,0.4-4.2,0.4c0.5,0.4,1.3,0.3,1.8,0.7c-1.6,0.4-3.2,0.7-4.7,0.8c-0.2,0-0.5-0.1-0.8-0.1  c-0.1,0-0.2,0-0.3,0.1v0.1c0.6,0.3,1.5,0,1.9,0.6c0.2-0.2,0.5-0.3,0.8-0.3c0.2,0,0.4,0,0.6,0.1c0.2,0.2-0.1,0.2-0.3,0.3  c-0.2-0.1-0.2-0.1-0.4-0.2c-1,0.7-2.4,0.8-3.6,1v0.4c-0.1,0-0.3,0-0.4,0c-0.3,0-0.5-0.1-0.7-0.2c-1.7,0.3-3.4,0-5,0.7  c0.1,0.1-0.1,0.4,0.1,0.6c1.1-0.1,2.3-0.3,3.5-0.3c0.8,0,1.7,0.1,2.5,0.3l-0.5,0.3c-2.6,0.6-5,1.6-7.7,1.7h-0.5  c0,0.2,0.2,0.2,0.4,0.2h0v0.2c-2.9,0.4-5.5,0.8-8.5,0.6l-0.1,0.4c0.1,0.1,0.2,0.2,0.4,0.2h0.2c0.1,0,0.1,0,0.2,0h0.2  c0.1,0,0.2,0,0.3,0.2l2.3-0.3c0.4,0.4,0.8,0,1.2-0.1l1.2,0.1c-0.1,0-0.3,0.1-0.4,0.3l0.1,0c0.3,0,0.6-0.4,1-0.4c0-0.1,0-0.1-0.1-0.1  c1.1-0.3,2.2-0.4,3.4-0.4c0.8,0,1.6,0.1,2.4,0.2c-0.1,0.2-0.1,0.5-0.4,0.6c-0.1,0-0.2-0.1-0.2-0.1c-0.4,0-0.8,0.4-1.1,0.4h-0.2  c-2.2,0.6-4.4,1.1-6.7,1.2h-1.4c-0.9,0-1.8-0.1-2.7-0.3c0-0.2,0.1-0.2,0.2-0.3c-0.1-0.1-0.2-0.1-0.4-0.1c-0.5,0-1,0.6-1.6,0.6  c-0.3,0-0.7,0.2-1,0.2c0.6-0.6,1.9-0.3,2.2-1.3c-0.2-0.1-0.4-0.1-0.6-0.1c-0.4,0-0.9,0.1-1.2,0.4c0.1,0.3,0.4-0.1,0.5-0.1  c-0.8,0.7-2,0.7-2.8,1.5c0.5,0.3,0.9-0.2,1.3-0.2c0.1,0,0.3,0.1,0.4,0.2c-0.5,0.6-1.3,1.2-2.2,1.2c-0.1,0.1-0.1,0.3-0.1,0.5l0.1,0.1  c-0.6,0.4-0.9,0.5-1.1,1.3c-1.1,0.7-2.2,1.4-3.5,1.4c-0.2,0-0.4,0-0.5-0.1l-0.7,0.6c0.1,0,0.1,0.1,0.1,0.2c-0.1,0.1-0.1,0.2-0.2,0.2  h0c-0.1,0-0.2-0.2-0.2-0.2c0,0-0.1,0.1-0.1,0.3l0.3,0.3c-0.4,0.3-1.2,0.5-1.9,0.2l-0.2,0.2c0.3,0.7,0.8,0.3,1.3,0.3  c0.2,0,0.3,0.1,0.5,0.2c0.7,0.1,1.4-0.2,2.1-0.2l-0.1,0.3c0.6-0.1,1.4-0.7,2.1-0.6c0.3,0,0.6,0.1,0.9,0.4c0.2,0,0.4,0,0.6,0  c0.9,0,1.7,0.3,2.7,0.4h0.7c0.7,0.4-0.4,0.6-0.4,1c-0.8,1.1-2.5,0.3-3.6,1.3c-0.1-0.1-0.2-0.2-0.3-0.2c-0.2,0-0.5,0.3-0.8,0.1  c-0.2,0.1-0.3,0.1-0.4,0.1c-0.6,0-1.1-0.5-1.7-0.5c-0.1,0-0.2,0-0.3,0c-0.4-0.5-1-0.7-1.6-0.8h-0.2l-0.6,0.1  c0.5,0.4,1.1,0.4,1.7,0.5c0.7,1.3,3,0.3,3.3,1.9c-0.3,0.5-1.3,0.5-1.3,1.3c-0.1-0.1-0.2-0.2-0.4-0.2h-0.1l-0.1,0  c-0.2,0.3-0.5,0.6-0.8,0.7c-0.4-0.3-1-0.6-1.5-0.7h-0.1c-0.1,0-0.3,0.1-0.4,0.1l-0.3,0.3l0.6,0.5l0,0h-0.1c-0.1,0-0.1,0-0.2,0.1  l0.3,0.4l-0.2,0h-0.1c-0.2,0-0.4,0.1-0.3,0.4c0.7,0.2,0,0.7,0,1.2c-0.1-0.1-0.3-0.2-0.4-0.2c-0.3,0-0.6,0.2-0.9,0.3h-0.2  c-0.1,0-0.2-0.1-0.2-0.1c0.7,1,2,0.8,3.2,1c0.2-0.5,0.7-0.8,1.1-0.8c0.1,0.1,0.2,0.1,0.1,0.3l-0.3,0c-0.1,0-0.2,0-0.2,0.1l0.4,0.3  c-0.1,0-0.2,0-0.2,0.1l-0.3,0h-0.1c-0.2,0-0.3,0.1-0.4,0.3c0,0.2,0.2,0.2,0.4,0.2h0.2c0.1,0,0.2,0,0.3,0.1h0.1  c0.2,0,0.4-0.3,0.6-0.5c0-0.3-0.2-0.6-0.1-0.8c0.1-0.1,0.3-0.1,0.4-0.1c0.7,0,1,1.2,1.7,1.7v0.2h-0.1c-0.6-0.1-1-0.8-1.4-1.2  c-0.3,0.4-0.3,0.9-0.6,1.3c-0.2,0.5-0.7,0.2-0.8,0.7c0.3,0.2,0.8-0.2,1.2-0.2c0.2-0.1,0.6-0.1,0.9-0.1c0.2,0,0.4,0,0.5,0.1  c-1.1,0.1-2.2,0.2-2.9,1c-0.4,0-0.8-0.1-0.8-0.5c0-0.3,0.2-0.3,0.4-0.4h0c0,0,0.1-0.1,0.2-0.1c-0.8-0.2-0.2-0.9-0.6-1.4  c-0.8,0.5-1.8,0.2-2.8,0.2c-0.1,0.8,1,1.2,1.3,1.8l-0.1,0.1h-0.1c-0.3,0-0.3-0.6-0.6-0.6c0-0.1,0-0.2-0.1-0.2  c-0.3,0.1,0.1,0.3,0,0.5c2.3,1.6,4.5,3.5,6.4,5.7l0.9,0.5c1.9,1.6,3.1,3.6,4.9,5.2c-0.1,0.5,1,0.5,0.7,1.1l-0.6,0.1  c0.1,0.1,0.1,0.2,0,0.4c-0.2-0.2-0.7-0.1-0.8-0.4l0.1,0c0,0,0.1,0,0.1,0.1c0.2-0.1,0.2-0.3,0-0.4h-0.6v0.4c-0.4-0.1-0.7-0.5-1.1-0.7  l0.6-0.1c-2.3-1.4-3.8-4.1-6.4-5.3c2.2,2,4.9,4.1,6.3,6.9h0.6c-0.3,0.4-1.3,0-1.8-0.2c-0.2-0.2-0.1-0.2,0-0.4c-1.7-1-3-2.2-4.5-3.5  v0.4c1.2,1.3,2.7,2.4,4.2,3.2l-0.1,0c-0.1,0-0.3-0.2-0.5-0.2H148c-0.1,0-0.1,0-0.2,0.1c0,0.4,0.4,0.2,0.6,0.4h-0.9l0.1,0.2  c-0.3,0.1-0.6-0.2-0.9-0.2c-0.1,0-0.2,0.1-0.3,0.2c0,0.1,0.1,0.2,0.1,0.2c0,0.1-0.1,0.1-0.1,0.1h0c-0.1,0-0.2-0.2-0.4-0.2  c0-0.1-0.1-0.2-0.1-0.3c0.1,0,0.2,0.1,0.3,0.1c-0.7-0.4-1.6-1.4-2.5-2c-0.3,0.4,0,1.3,0.1,1.8l-0.1,0c-0.2,0-0.4-0.2-0.6-0.3  l0.4,1.2c0.6,0.2,1.3,0.4,2,0.4c0.2,0,0.5,0,0.7-0.1c-0.1,0.4-0.5,0.9-0.2,1.5c0.5-0.3,0.3-1.1,0.6-1.6c0.1,0,0.3,0,0.4,0  c0.7,0,1.3,0.4,1.8,0.9c0.4,0.5,0.4,1.3,0.2,1.9c-0.5-0.3-0.8-1.2-1.6-1.2l-0.1-0.3l0.3,0c0.5,0,1,0.2,1.1,0.8  c0.1,0,0.2-0.1,0.2-0.2c0-0.7-0.7-0.9-1.1-1.2c-0.2,0-0.4-0.3-0.6-0.3h-0.1c-0.1,0-0.2,0.1-0.3,0.2c-0.5,0.7,0.7,1.4,0,2  c-0.6,0.2-1.4,0.4-2,0.1c-0.4-0.1-0.1-0.6-0.5-0.6l-0.1,0c-0.2,0.7-1.2,1.5-0.6,2.3c-0.2,0.3-0.5,0.7-0.9,0.6  c-0.9-0.3-1.3-1.1-1.6-1.8c-0.7,0.3-1.6,0.7-2.1,1.5c0,0.3,0.2,0.5,0.1,0.8c-0.6,0.2-0.9-0.4-1.4-0.6c-0.2-0.5-0.4-1.4,0-1.9  c0.2-0.1,0.4-0.2,0.6-0.2H138.6z M143,52.6L143,52.6c-0.2-0.1-0.5-0.4-0.8-0.4l-0.1,0c-0.4,0-0.5,0.4-0.5,0.8c0.5,0.4,1,1.7,1.8,1.4  c-0.5-0.1-0.6-0.6-0.7-1.1C142.6,53.1,142.6,52.5,143,52.6 M126.9,49.7L126.9,49.7c0.1,0.2,0.7,0.3,0.8,0l-0.3-0.4l-0.2,0  c-0.7,0-1.1-0.5-1.5-0.8c-0.1,0.2,0.1,0.6,0.3,0.8c0.7,0,0.4,0.7,0.8,1C126.8,50,126.7,49.8,126.9,49.7 M134.2,38.7L134.2,38.7  c0.4,1.5,1.9,2,2.9,2.9c0.4,1.2,1.1,2.2,1.9,3c-1-1-1.1-3-2.2-3.7C135.8,40.4,135.1,39.4,134.2,38.7 M123.4,37.6l1.2,1.1l0.2-0.1  C124.5,37.9,123.8,38,123.4,37.6 M124.4,36L124.4,36c0.1,0,0.2,0.2,0.4,0.4c0.1-0.2,0.2-0.3,0.3-0.3c0.1,0,0.2,0,0.3,0.2l0.2,0.1  l-0.2,0.1c0.6,0.5,1.1,1.1,1.2,1.9c1,0.6,1.3,1.6,2.3,2.1c0.5,1.2,1.7,2.1,1.9,3.5c-0.7-1-1.7-1.6-2.2-2.8c-1.3-1.4-2.5-2.6-3.8-3.9  C124,36.9,124.5,36.5,124.4,36 M129.3,35.2l0.1,0.1l-0.6-0.9v0.8l0.3-0.3c0.3,0.2-0.1,0.5,0,0.7h0.1v-0.2H129  C129.1,35.3,129.2,35.2,129.3,35.2 M126.5,30.3L126.5,30.3c1.1,0.5,1.9,1.6,2.5,2.6l0.1-0.5l-3.7-3.8  C125.6,29.2,126.2,29.7,126.5,30.3c-0.7-0.5-1.2-1.5-2-2c0.4,0.6,0.6,1.4,1.3,1.8c0.3,0.7,1,1,1.4,1.5c0.7,0.4,0.6,1.5,1.4,1.5  c-0.7-1-1.2-1.7-2.3-2.6L126.5,30.3z M113.6,31.9L113.6,31.9c0,0,0.1,0,0.1,0h0.1c0,0,0.1,0,0.1,0c0.2-0.1,0.5-0.1,0.8-0.1  c0.5,0,1,0.1,1.2-0.2c-0.1-0.3-0.3-0.4-0.5-0.4c-0.5,0-1,0.4-1.4-0.2c0.1-0.2,0.2-0.2,0.4-0.3h0.1l0.1,0l0.1,0h0.1  c0.3,0,0.6-0.3,0.8-0.5h0v0c0-0.1,0-0.1,0-0.2v0.2l0,0c-1.5,0.4-3,1-4.5,1.1c0.8,0.8,1.5-0.2,2.3-0.2l0.2,0.1  c-0.2,0.7-1.4,0.3-2,0.9c-0.2-0.5-1.4-0.2-1.1-1.2l-0.1,0c-0.2,0-0.4,0.1-0.6,0l-0.2,0h-0.1c-0.2-0.1-0.4-0.1-0.7-0.1  c-0.7-0.2-1.4-0.6-2.1-0.6c-0.1,0-0.2,0-0.4,0.1h0.7c0.5,0.6,1,0.5,1.5,0.6h0.2c0.2,0.1,0.5,0.1,0.7,0.1c0.1,0,0.3,0.1,0.5,0.3  l-0.8,0.7l1.7,0.7c-0.2-0.5-0.9-0.7-1.3-0.9c0.2-0.1,0.3-0.1,0.5-0.1c0.3,0,0.6,0.1,0.8,0.1c0.3,0.2,1,0.6,0.6,1.1l0.3-0.1  c-0.3-0.9,0.9-0.5,1.2-0.8l-0.1,0.3c0.3,1.2,2,0.8,2.8,0.9l-2-0.6l0.2-0.2c0.2,0.1,0.5,0.1,0.7,0.1l1.1,0c0.6,0,1.1,0.1,1,1l0.2-0.2  c0.1-0.7-0.4-0.8-1-0.8c-0.4,0-0.8,0-1.1-0.2h-0.1c-0.3,0-0.7,0.1-1,0.1h-0.1c-0.1,0-0.3-0.1-0.3-0.2  C113.3,32,113.4,31.9,113.6,31.9 M128.7,31.1l1,0.7c-0.4-0.9-1.3-1.2-2-1.7c0.7,0.7,1,1.6,1.9,2.3c0.6,0.2,0.8,1,1.4,1.3  c-0.3-0.9-1.4-1.7-2.2-2.4V31.1z M120.9,26.8L120.9,26.8c0.3,0.9,1.6,0.8,1.5,1.9c0.7,0.4,1.4,1.5,2.1,1.6c-0.7-1.1-2.2-1.8-2.3-3.3  l0.1,0c0.7,0,0.1,1,0.9,1.2c0.5,1.3,1.8,1.9,2.6,2.9h0.3c0-0.1,0-0.3-0.1-0.4c-1.7-1.1-1.9-3.3-3.9-4.2l-0.2,0.2  c-0.3-0.2-0.4-0.7-0.7-0.7c-0.1,0-0.1,0-0.2,0c0.1,0.2,0.5,0.5,0.3,0.6c-1-2.1-3.8-2.3-4.8-4.4l-0.3-0.7c0.1,0.2,0.1,0.5,0.3,0.7  c0.4,1.3,0.6,2.8,1.4,3.8c0,0.1-0.1,0.1-0.2,0.1c-1.2-1.9-1.4-4.2-2.6-6.1l-0.2,0.1l-0.2-0.4l0.2,0.7l0.1-0.1c0.4,1,1.1,2,1.1,3.1  c0.1,0.4-0.6,0.7-0.1,0.9L116,24c0.3,0.5,0.8,1.1,0.5,1.5c-0.6-0.2-1-0.7-1.3-1.1c0.1,1.2,0.8,2.2,1.3,3.1l0.1,0c0.7,0,0,0.8,0.5,1  c-0.2,0.8,0.1,1.8,0.4,2.5c-0.1,0-0.3,0-0.4-0.2c-0.2-1.1-0.8-2.2-1-3.3l-0.1,0.1c0.3,1.3,0.3,2.9,1.5,3.8c0.1-0.2,0.1-0.2,0.2-0.2  c0.2,0,0.4,0.2,0.6,0.3h0.1c0.1,0,0.1-0.1,0.2-0.2l0.7,1.2h0.1c0.2,0,0.4,0.3,0.6,0c-0.3-0.6-1.4-1-0.8-1.7c0.1-0.3,0.2-0.4,0.4-0.3  c0.2,0,0.5,0.5,0.7,0.5c-0.2-0.5-1.1-1.2-0.2-1.7c0.2,0.1,0.2,0.2,0.3,0.3h0.1c0.1-0.2,0.3-0.2,0.2-0.3h-0.4  c0.1-0.5-0.3-1.1,0.2-1.3c0.3,2.5,3.2,3,4.3,5.2v-0.4c-1.7-1.5-2.1-3.8-4-4.9C120.7,27.5,120.5,26.9,120.9,26.8 M123.4,30.1  L123.4,30.1c0.6,0.4,0.8,1.1,1.6,0.9c0.2,0.6,0.6,1.2,0.7,1.8c-0.6-0.8-1-1.5-1.9-2C123.6,30.7,123.3,30.3,123.4,30.1 M113.8,30.5  l0.2,0c0.4-0.3,1.2-0.2,1.1-1l-0.3,0.3c-0.3,0-0.6,0.2-0.9,0.3h-0.1c-0.1,0-0.2,0-0.3-0.1l0.1-0.1c0.4-0.1,0.8-0.1,0.8-0.4  c-0.1,0.1-0.2,0.1-0.3,0.1h-0.2c-0.2,0-0.4-0.1-0.5-0.1c-0.2,0-0.4,0.1-0.4,0.5l-0.3,0c-0.5,0-1,0.2-1.4,0.3h-0.2  c-0.1,0-0.3-0.1-0.4-0.2c0.7-0.2,1.5,0,2-0.4l-1.9,0.1c-0.1,0-0.2,0.1-0.2,0.1c-0.3,0-0.6-0.2-0.9-0.2h-0.1c0,0-0.1,0-0.1,0  c0.5,0.3,1,0.8,1.6,0.9c0.4,0.1,1-0.2,1.4-0.2c0.2,0,0.4,0.1,0.5,0.3c-0.1,0.1-0.1,0.1-0.2,0.1c0.1,0,0.1,0,0.2,0  C113.3,30.9,113.4,30.5,113.8,30.5 M135,29.4L135,29.4L135,29.4L135,29.4L135,29.4c-0.6-0.2-0.9-0.6-1.5-0.8l1.3,1.1  C134.7,29.7,134.7,29.4,135,29.4L135,29.4z M109.1,29.2L109.1,29.2c0.2-0.4,0.5-0.5,0.8-0.4c0.2,0,0.5,0.1,0.8,0.1h0.1  c0.1,0,0.2,0,0.3-0.1v-0.1l-1.6-0.3l0.1,0.3h-0.4c-0.6-0.1-1.1-0.4-1.6-0.5c-0.1-0.2-0.2-0.6-0.5-0.7l-0.2,0  c-0.9,0.7-2.3,0.4-3.4,0.7c0.2,0,0.4,0,0.6,0c0.8,0,1.8,0,2.7-0.3l1.8,0.9c0.3,0.2,0,0.5-0.2,0.7c0.7,0.8,1.5,1.1,2.4,1.5l0.1-0.2  c-0.8-0.4-1.7-0.4-2-1.3C108.8,29.4,109,29.2,109.1,29.2 M131.3,28L131.3,28c0.4,0.2,0.9,0.7,1.3,0.7c-0.6-0.6-1.3-0.9-2-1.2  c0.4,0.6,0.6,1.1,1.2,1.6c1.5,0.1,1.6,2,3.1,2c-0.7-0.5-1.6-0.9-2-1.7C132.3,29.1,131.4,28.6,131.3,28 M137.1,28.4L137.1,28.4l0-0.5  l0.2-0.1l0.1,0l-0.1,0H137c-0.3-0.1-0.6-0.6-0.8-0.7v0.5c-0.4,0.6-0.7-0.3-1-0.4l-0.1,0c0.6,0.8,1,1,1.8,1.2  C137,28.4,137,28.4,137.1,28.4 M108.1,27.8L108.1,27.8c1.1,0,2.2,0.1,3.2,0.5l0.1-0.1l-1.3-0.4c-0.3-0.1-0.8-0.2-1.2-0.2h-0.2  c-0.4,0-0.8,0.1-1,0.3c0.6,0.2,1,0.7,1.5,0.5L108.1,27.8z M112.1,27.6L112.1,27.6c0.4,0.4,0.7-0.2,1.1-0.1l0.1,0  c0.2,0.1,0.3,0.2,0.5,0.2h0.1c0.3,0,0.5-0.1,0.7-0.1c0.1,0,0.3,0,0.4,0.1v-0.1c-0.1-0.2-0.3-0.2-0.5-0.2c-0.3,0-0.6,0-0.8-0.1  l0.1-0.2c-0.8-0.1-1.8-0.2-2.6-0.7c0.4,0.2,0.4,0.7,0.4,1.1c0.6,1.6,2.7,0.5,3.8,1.4c-0.1-0.6-0.5-0.7-1-0.7c-0.4,0-0.9,0.1-1.3,0.1  h-0.3c-0.3,0-0.6-0.1-0.8-0.4C111.9,27.8,112,27.8,112.1,27.6 M126,25.9L126,25.9c-0.1,0.4,0.7,0.4,1,0.6l0.1,0.1l-0.1-0.1  C126.7,26.2,126.4,26,126,25.9 M139.3,26.8l0.5,0.1c-0.1-0.1-0.2-0.1-0.3-0.2h-0.1L139.3,26.8l-0.9-0.2  C138.6,27.3,139,27,139.3,26.8 M133.9,26L133.9,26c0.5,0.1,1,0.6,1.5,0.7l-0.5-0.5l0.1-0.1c0.4,0.1,0.8,0.6,1,0.6  c-0.3-0.5-0.3-0.9-1-1.3c-0.7-1.6-2.4-1.9-3.7-2.5c0.4,0.6,1.3,0.6,1.7,0.8c0.4,0.5,1.2,0.6,1.5,1.2c-0.1,0-0.1,0-0.1,0  c-0.1,0-0.2-0.1-0.3-0.1l0.8,0.8c-0.6-0.2-1.4-0.5-1.9-0.7c-0.6,0.2,0.2,0.6-0.2,0.9c0.3,0.9,1.5,0.8,2.2,1.2l-1.5-0.9  C133.6,26.1,133.8,26,133.9,26 M107.2,26.3L107.2,26.3c0.9,0,2,0.2,2.6,0l-2.3-0.2C107.5,26.3,107.4,26.3,107.2,26.3L107.2,26.3  c-0.3-0.1-0.6-0.4-0.9-0.5c0.3-0.1,0.5-0.1,0.8-0.1c0.5,0,1.1,0.1,1.7,0.1h0.3l0.5-0.1c-0.8-0.2-1.7-0.2-2.2-0.7l0.3,0  c0.4,0,0.8,0.2,1.1,0.3h0.2c0.1,0,0.1,0,0.2-0.1c-0.4-0.1-0.8-0.2-1.2-0.2c-0.7,0-1.3,0.1-2,0.4c-0.1,0.5,1.3,0.7,0.4,1l0.4,0.6  c0.3,0,0.6,0.4,0.9,0.4h0.1c0.1,0,0.3-0.1,0.4-0.3c0.5,0.4,1.8,0.2,2.1,0.4c-1.2-0.7-2.8,0-3.8-1.1l0.5,0H107.2z M143.7,26L143.7,26  c0.3,0,0.5,0.1,0.8,0.1h0.1c0.2,0,0.3,0,0.5-0.2c0.1-0.1,0.2-0.1,0.3-0.1c0.3,0,0.6,0.2,0.8,0.3h0.2c0.1,0,0.1,0,0.2-0.1  c-0.6-0.2-1.4-0.4-2.1-0.3c-0.7,0-1.3,0.1-1.7,0.2l0.5,0.2C143.4,26,143.5,26,143.7,26 M141.1,25L141.1,25c0.3,0,0.5,0.4,0.9,0.5  c0.1,0,0.2,0,0.4-0.1l-0.1,0h-0.1c-0.3,0-0.8-0.2-0.6-0.5l-0.2,0c-0.6,0-1.3,0.4-1.7,0.8c-0.3,0.1-0.6,0.2-0.9,0.2  c-1.5,0-2.5-1.5-3.9-1.9c1.4,1,2.8,2.5,4.8,2.4l0.1-0.1c-0.1,0-0.2,0-0.2-0.2L141.1,25L141.1,25z M106.3,24.1L106.3,24.1  c0.5,0,1,0.1,1.4,0.1v-0.1c-0.7-0.2-1.5-0.3-2.3-0.3h-0.8c0,0.2,0.3,0.4,0.5,0.6C105.3,24.2,105.8,24.1,106.3,24.1 M100.3,18.7  L100.3,18.7c1.2,0.6,2.8,0.8,4,1.1c-1.3-0.6-2.8-0.9-4-1.4c-0.4-1-1.5-0.6-2.1-1.1c1.5,2.1,4,3,6.4,3.4l0.1-0.1  c-1.1-0.5-2.2-0.7-3.4-1.1C101,19.4,100.2,19.2,100.3,18.7 M91,14.5L91,14.5c0.4,0,0.9,0.1,1.4,0.1h0.2c0.2,0,0.4,0,0.6-0.1  c-1.2-0.2-2.7-0.4-4-0.6L89,14.1l0.2,0c0.5,0,0.7,0.3,1.1,0.5c0.1-0.1,0.3-0.1,0.5-0.1H91z M89.2,12.1L89.2,12.1  c0.4,0.2,0.9,0.6,1.4,0.5L89.2,12.1z M87.1,12.5L87.1,12.5c0.1,0.3,0.5,0.4,0.8,0.4H88c0.2,0,0.3,0,0.4-0.1  C88.1,12.6,87.6,12.7,87.1,12.5 M85.3,11.2L85.3,11.2c2.1,0,3.8,1.4,5.7,2.1l0.5-0.1c-0.1,0.8,1.2,0.3,1.4,0.9  c-1.6-0.3-3.4-0.3-5-0.8h0.3c1,0,2.1,0.4,3.1,0.4c-0.7-0.6-1.7-0.6-2.5-0.8l0.5-0.1c-0.6-0.8-1.8-0.1-2.3-1.1  C86.2,11.7,85.7,11.8,85.3,11.2 M87.3,13.8L87.3,13.8c0,0.4,0.8,0.4,1.1,0.6c0.2,0.7,1.2,0.6,1.9,0.6C89.5,14.5,88.4,13.8,87.3,13.8   M89.3,15.4L89.3,15.4C90,16,91.2,15.7,92,16c-0.4,0.4-0.9,0-1.2,0c-0.1,0-0.1,0-0.2,0.1c0.8,0.2,1.6,0.2,2.4,0.2H94l0.1,0.2  c-1,0.1-1.8,0.2-2.7,0.2L93,17c0.5,0,0.9-0.2,1.3-0.2h0.1c0.2,0,0.4,0.1,0.6,0.2c-0.8,0.2-1.4,0.2-2.1,0.3c0.8,0.1,1.3,0.1,2.1,0  c0.2-0.1,0.5-0.2,0.7-0.1c0.2,0,0.4,0.1,0.5,0.3c-0.7,0.3-1.4,0.2-1.9,0.3l0.6,0c0.6,0,1.2-0.1,1.8-0.1c0.3,0,0.6,0,0.8,0.1  c-0.2,0.4-0.6,0.4-0.9,0.4h-0.3c-0.1,0-0.2,0-0.3,0c-0.2,0-0.4,0-0.6,0.1c0.2,0.1,0.4,0.2,0.5,0.2H96c0.1,0,0.1,0,0.2-0.1l2.4,0.1  c0-0.2-0.4-0.3-0.5-0.4c-0.1-1-1.3-0.5-1.5-1.1h-0.2c-0.7-0.1-1.1-0.7-1.7-0.7l-0.1,0.2l-3.3-1L89.3,15.4z M90.4,14.8L90.4,14.8  c1,0.7,2.5,0.2,3.6,0.7v-0.1L93.5,15h-0.3C92.3,15,91.2,14.8,90.4,14.8 M92.7,15.5L92.7,15.5c0.1,0.1,0.2,0.1,0.4,0.1l0.5,0.2  c0,0,0.1,0,0.1,0.1c0.1,0,0.2-0.1,0.1-0.1c-0.1-0.1-0.2-0.1-0.3-0.1l-0.4,0L92.7,15.5z M104.8,18L104.8,18c0.1,0.4,0.7,0.4,0.9,0.5  v-0.1C105.4,18.3,105.2,18.2,104.8,18 M104.8,20L104.8,20c0.2,0.5,1.2,0.5,1.6,0.6l0.1,0l-0.1,0L104.8,20z M102.3,20.4L102.3,20.4  c-0.1,0.4-0.9,0.3-0.7,0.7c0.8,0,1.8,0.2,2.6,0V21C103.5,20.7,102.7,21,102.3,20.4 M104.3,21.1l0.1,0.3l3.8,0.3  C106.8,21.6,105.7,21.1,104.3,21.1 M102.8,21.6L102.8,21.6c-0.3,0-0.6,0-0.9,0.1l0.2,0.3c1.1,0,2.3,0.3,3.4,0  C104.5,21.8,103.7,21.6,102.8,21.6 M106.9,21.9h-0.2c-0.3,0-0.5,0-0.7,0.2l2.8,0.1C108.1,22.2,107.5,22,106.9,21.9 M107.1,22.4v0.2  c0.4,0,0.9,0.3,1.2,0L107.1,22.4z M104.3,22.4L104.3,22.4c0.6,0.8,2,0.4,2.8,0.7C106.3,22.7,105.2,22.4,104.3,22.4 M99.9,23.1  L99.9,23.1c0.1,0.2,0.3,0.2,0.4,0.2l0.4,0h0.1c0.1,0,0.2,0,0.3,0.1C100.9,23,100.3,23.2,99.9,23.1 M107.2,22.9L107.2,22.9  c0,0.2,0.3,0.4,0.5,0.4h0.1C107.7,23.1,107.5,23,107.2,22.9 M98.5,23L98.5,23c0.4,0.1,0.9,0.5,1.4,0.4C99.5,23,98.9,23.1,98.5,23   M105.6,23.2L105.6,23.2c-0.5,0-1,0-1.4,0.2l2.9,0.1C106.6,23.3,106.1,23.2,105.6,23.2 M101.9,23.3L101.9,23.3c-0.1,0-0.2,0-0.3,0  c0,0.3,0.1,0.4,0.3,0.4h0.4c0.1,0,0.1,0,0.2,0c0.2,0,0.4,0,0.5,0.3C102.8,23.6,102.4,23.3,101.9,23.3 M101.5,23.6h-1.2l1.2,0.3V23.6  z M99.5,23.9l-0.1,0.2l0.2,0c1.1,0,1.9,0.6,3.2,0.6c0.3,0,0.7,0.3,1.1,0.4h0.2c0.1,0,0.1-0.1,0.2-0.1  C102.6,24.4,101.3,24.1,99.5,23.9 M107.1,24.4h-0.2l-0.5,0c0.5,0.4,1.2,0.2,1.7,0.2l0.4,0l0.2,0.1l-0.2-0.1  C108,24.5,107.6,24.4,107.1,24.4 M81.2,3.9l0.2,0V3.8C81.3,3.9,81.3,3.9,81.2,3.9l-0.1,0c-0.1,0-0.1,0-0.2,0c-0.2,0-0.3,0-0.5,0.2  l0.1,0C80.7,4,80.9,3.9,81.2,3.9 M77.6,2.6l0.3,0l-0.1,0L77.6,2.6l-0.8-0.1c0.1,0.1,0.2,0.1,0.4,0.1C77.4,2.6,77.5,2.6,77.6,2.6   M79.3,3h0.3H79.3c-0.1,0.2-0.2,0.3-0.3,0.3h-0.1c-0.2,0-0.3-0.2-0.5-0.2h-0.1c-0.1,0-0.2,0.1-0.2,0.2c0.1,0,0.2-0.1,0.3-0.1  c0.5,0,0.7,0.5,1.2-0.2H79.3z M79.4,3.4L79.4,3.4c0.2,0.4,0.9,0.3,1,0.1L79.4,3.4z M81.9,4.4h-0.1c-0.2,0-0.5,0-0.4,0.1l0.2,0h0.1  C81.8,4.5,81.9,4.4,81.9,4.4 M82.8,4.7l0.2,0h0.1c0.2,0,0.4-0.1,0.6-0.2l0.1,0.1c-0.2,0.3-0.4,0.4-0.7,0.4h-0.1  c-0.3,0-0.6-0.1-0.9-0.1C82.4,4.7,82.6,4.7,82.8,4.7 M83.9,5L83.9,5c-0.2,0-0.5,0.1-0.7,0.1c0,0,0.1,0,0.1,0.1h0.2  c0.2,0,0.5-0.1,0.7-0.1C84.1,5,84,5,83.9,5 M85.3,5.2L85.3,5.2c-0.4,0.2-1.2,0.1-1.1,0.4c0.6-0.1,1.2-0.1,1.5-0.3h-0.1  C85.5,5.3,85.3,5.3,85.3,5.2 M86.8,5.7L86.8,5.7c-0.6,0.3-1.4,0-1.9,0.4c0.1,0,0.2,0.1,0.3,0.1h0.3C86,6.1,86.5,5.8,86.8,5.7   M86.9,6.1l-1.2,0.2l1.9-0.2H86.9z M87.6,6.6l-0.8,0.2l0,0C87.2,6.9,87.6,6.7,87.6,6.6 M88.5,6.5h-0.1c-0.1,0-0.2,0-0.3,0.1  c0.1,0.1,0.2,0.1,0.3,0.1h0.1c0.1,0,0.3-0.1,0.4-0.2L88.5,6.5z M89.1,6.9h-0.2c-0.5,0-1,0.2-1.3,0.2c0.1,0,0.3,0,0.5,0.1  c0.4,0,0.9-0.1,1.2-0.2C89.2,7,89.2,6.9,89.1,6.9 M104.8,12.1l1.6,1.2l0.2-0.1L104.8,12.1z M97.9,12.3l-0.1,0l0.2,0.8  c1.2,0.6,2.3,1.7,3.6,1.9v-0.1c-1.1-0.8-2.3-1.4-3.4-2.1C97.9,12.6,98.1,12.3,97.9,12.3 M107.5,13.7L107.5,13.7  c0.5,0.4,1.1,0.9,1.3,1.6l0.6-0.3C108.8,14.7,108.3,13.7,107.5,13.7 M109.6,15.8L109.6,15.8c0,0.3,0.2,0.4,0.4,0.4v-0.1  C109.9,15.8,109.8,15.8,109.6,15.8 M111.9,18.6L111.9,18.6c0.8,0,0.6,0.5,0.8,1.1c0,0.1,0,0.3,0.1,0.4h0.1l-0.1-0.6  c0.4,0.3,0.7,0.9,0.6,1.4l0.3,0.2c-0.4,0-1.3-0.6-1.6-1.3l0.2-0.1L111.9,18.6z M112.6,21.5L112.6,21.5c-0.1,0-0.1,0-0.2,0.2  c-0.1,0.6,0.6,0.6,0.9,0.6c-0.4,0-0.2-0.6-0.2-0.6C112.9,21.6,112.7,21.5,112.6,21.5 M129,20.3l0.6,0c-0.3-0.3-0.7,0-1.3-0.4  c0.3,0.2,0.5,0.4,0.7,0.6l0.1,0.1c0.2,0.2,0.5,0.4,0.8,0.4c-0.1-0.3-0.6-0.3-0.8-0.4l-0.1-0.1C129,20.5,129,20.4,129,20.3   M122.4,6.3L122.4,6.3c-0.3,0.2,0.1,0.5,0.4,0.6c0.2,0,0.4-0.3,0.4-0.4L122.4,6.3z M124.9,9.4l-0.7,0.3l0.1,0  C124.5,9.7,124.8,9.4,124.9,9.4 M125.3,9.7L125.3,9.7c-0.7,0.3-1.5,0.1-2.1,0.5h0.5l-0.8,0.4l0.1,0.2  C123.7,10.4,124.9,10.2,125.3,9.7 M122.5,11.7h0.1H122.5c-0.4,0.6-1.4,1.5-1.1,2.5c0.2-0.9,1-1.6,1.2-2.5H122.5z M123.1,11.5  l-0.1,0.7c0.8,0.5-0.1,1.6,0.8,2.1C123.4,13.3,123.4,12.5,123.1,11.5 M121.4,14.5l0.3,1.4C121.7,15.5,121.7,14.8,121.4,14.5   M122.1,14.3L122.1,14.3c0.1,0.6,0,1.5,0.7,1.6L122.1,14.3z M123.6,15l0.4,0.9v-0.2L123.6,15z M122.9,12.5l-0.1,0.4  c0.2,1.3-0.1,2.9,1.4,3.5C122.6,15.8,123,13.9,122.9,12.5 M122,15.7l0.2,0.8v-0.7L122,15.7z M122.8,16.3L122.8,16.3  c0.4,0.2,0.9,0.7,1.3,1l0,0c0.6,0.2,0.7,1.2,1.4,1.3h0.1L126,19l0,0h-0.1c-0.1,0-0.2-0.4-0.4-0.3l-0.1,0.1l-1.3-1.4c0,0,0,0.1,0,0.3  C123.6,17.3,123.1,16.7,122.8,16.3 M124.4,16.6l1,1l-0.5-0.9L124.4,16.6z M125.7,17.8l0.4,0.6L125.7,17.8z M126.5,18.2l0.4,0.2v-0.2  L126.5,18.2z M126.2,18.4l0.9,0.6l-0.4-0.5L126.2,18.4z M127.7,18.5l1.2,0.8l-0.7-0.7L127.7,18.5z M114.5,19.1l0.1,0.6l0.1-0.3  L114.5,19.1z M123.7,19.4l0.2,0.3v-0.2C123.8,19.4,123.8,19.4,123.7,19.4 M127.5,19.2l0.6,0.5l-0.2-0.1L127.5,19.2z M132.3,19  l-0.1,0l0.8,0.7v0C132.8,19.4,132.7,19,132.3,19 M134.1,19.2L134.1,19.2c-0.2,0-0.4,0.1-0.5,0.1c0.2,0.2,0.5,0.5,0.7,0.5v-0.2  C134.3,19.2,134.2,19.2,134.1,19.2 M126.4,19.2L126.4,19.2c0.1,0.5,0.7,0.5,1,0.8C127.3,19.5,126.7,19.5,126.4,19.2 M122.3,16.5  l0.1,0.6c1.4,1.2,2.6,3.3,4.5,3.3C125.6,18.9,123.6,18.2,122.3,16.5 M129,19.5L129,19.5c0.5,0.4,1.1,0.8,1.6,0.9  C130.2,20.1,129.6,19.7,129,19.5 M130.1,21L130.1,21c0.1,0,0.1,0,0.2,0.1c0,0,0.1,0,0.1,0c1.3,0.4,1.5,2.4,3.3,2.4  c-1.1-0.3-1.7-1.4-2.7-2.1c0.2-0.6-0.5-0.5-0.9-0.8l0.3,0.4l-0.1,0.1C130.4,21.1,130.3,21,130.1,21 M127.5,20.7L127.5,20.7  c0,0.2,0.2,0.3,0.3,0.4h0l0,0C127.8,20.9,127.7,20.7,127.5,20.7 M131.4,19.9L131.4,19.9c0.4,0.4,0.7,1.2,1.3,1.4  C132.2,21,132.1,20.1,131.4,19.9 M115.7,21.2l0.3,0.4v-0.2L115.7,21.2z M127.9,20.3l0.2,0.2c0.4,0.5,0.6,1.2,1.3,1.2h0.2  c-0.4-0.5-1-0.8-1.5-1.2L127.9,20.3z M133.1,21.6l0.2,0.2l0.2-0.1c0.4,0,0.6,0.6,1,0.6c0,0,0.1,0,0.2,0  C134.3,21.9,133.8,21.8,133.1,21.6 M124.2,19.8L124.2,19.8c0.9,1,2.3,2.1,3.6,2.5c0-0.8-0.8-0.5-1.3-0.9l0.3-0.3  C126.1,20.3,125,20.5,124.2,19.8 M135.4,22.2h-0.3H135.4L135.4,22.2z M136.6,22.4L136.6,22.4L136.6,22.4h0.1v0.2h-0.2L136.6,22.4z   M132.3,21.7L132.3,21.7c0,0.4,0.4,1,0.7,0.7L132.3,21.7z M129.9,21.9L129.9,21.9c0.2,0.4,0.7,0.6,1.1,0.7  C130.7,22.3,130.3,22.2,129.9,21.9 M135,22.7L135,22.7c0.1,0.2,0.4,0.3,0.8,0.4h0.1l0.4,0L135,22.7z M128.8,21.9l-0.1,0.2  c0.5,0.3,1.1,0.5,1.5,1l-0.2-0.3l0.8,0.3L128.8,21.9z M144.3,19.5L144.3,19.5c0.5,0,1.1,0.2,1.7,0.2c0.7-0.4,1.7-0.6,2.2-1.1  c-0.7,0.4-1.4,0.4-2.2,0.8c-0.1-0.1-0.3-0.1-0.4-0.1h-0.2l-0.5,0h-0.2c-0.3,0-0.6-0.1-0.8-0.3l0.8-0.4c-0.8,0.2-1.6,0.8-2.4,1.1  l0.9,0.3c-0.3,1-1.3,1.4-2.2,1.8l0.4,0c0.8,0,1.7,0.3,2.5,0.3h0.2c0.5,0,1-0.2,1.2-0.6c-0.9,0.4-1.9,0.4-2.9,0.1  c1.1-0.4,0.9-1.5,1.8-1.6l0.4,0l-0.2,0l-0.2,0H144c-0.2,0-0.5-0.1-0.5-0.3c0.2-0.1,0.4-0.1,0.6-0.1H144.3z M145.2,15.2L145.2,15.2  c0,0,0.1,0,0.1,0.2c2.3-0.4,4.9-0.3,6.7-1.9c-2.1,0.6-3.9,1.2-6.1,1.6l-0.6,0h-0.2c-0.5,0-1.1,0.1-1.5,0.4l1.1,0.1h0.1  C145,15.4,145.1,15.2,145.2,15.2 M156.9,15.2L156.9,15.2c0.1,0,0.1,0,0.2,0V15l-0.2,0h-0.2c-0.6,0-1.1,0.4-1.8,0  c0.2,0.3,0.4,0.4,0.6,0.4h0.2C156.2,15.4,156.6,15.2,156.9,15.2 M147.7,14l0.3,0c-0.1-0.2-0.4-0.2-0.7-0.3c-0.2,0.1-0.8,0.1-1,0.4  C146.8,14.1,147.3,14,147.7,14 M148.8,13.2L148.8,13.2c0.3,0,0.6,0.1,0.9,0.2l-1.4,0.2c0,0.3,0.3,0.2,0.5,0.3c0.4-0.1,1-0.1,1.1-0.4  c-0.3-0.2-0.8-0.5-1.2-0.5c-0.2,0-0.5,0.1-0.6,0.3c-1.2,0.4-2.6,0.2-3.6,0.9c1.1,0,2.5-0.5,3.6-0.7  C148.3,13.3,148.6,13.2,148.8,13.2 M154.7,12.4L154.7,12.4c0.1,0,0.3,0,0.5,0.2c-0.2-0.2-0.4-0.3-0.7-0.3c-0.5,0-1,0.2-1.3,0.5  c0.1,0,0.2,0,0.2,0.1C153.9,12.8,154.3,12.4,154.7,12.4 M163,12.4L163,12.4c0.1,0,0.3,0,0.5,0c0.1,0,0.3,0,0.4-0.1  c-0.3-0.3-0.6-0.4-1-0.4c-0.7,0-1.5,0.6-2.4,0.4c0,0.1-0.1,0.2-0.1,0.3c0.1-0.1,0.2-0.1,0.4-0.1c0.6,0,1.2,0.3,1.7-0.1  C162.6,12.4,162.8,12.3,163,12.4 M157.7,11.5L157.7,11.5c0.5,0.7,1,0.2,1.5-0.2l-0.1,0c-0.2,0-0.5,0.1-0.8,0.2H158  c-0.2-0.4,0.4-0.4,0.4-0.6c-1.2,0.4-2.3,0.9-3.5,0.9v0.4C155.8,11.5,156.8,12,157.7,11.5 M161.8,10.9L161.8,10.9  c0.7,0.3,1.2-0.2,1.9-0.4c0,0.2,0.1,0.3,0.2,0.3c0.2,0,0.6-0.4,0.8-0.4c-1.2,0-2.4,0.5-3.6,0.6c-0.1,0.5-0.6,0.5-0.9,1  c-0.4,0.5-1.2,0.5-1.5,1C160,12.9,160.7,11.4,161.8,10.9 M174.5,8.3L174.5,8.3c0.2,0,0.4,0,0.7,0.1V8.2c-0.2-0.1-0.4-0.1-0.6-0.1  c-1,0-2.2,0.8-3.3,0.7c0.1,0,0.3,0.1,0.4,0.1h0.4C172.9,8.8,173.6,8.3,174.5,8.3 M167,8.2L167,8.2c0.4,0,1,0.3,1.4,0.1  c0.1-0.1,0.3-0.1,0.4-0.1h0.2l0.1,0c-0.6,0.3-1.8,0.6-2.6,0.3C166.6,8.2,166.8,8.2,167,8.2 M172.2,7.9L172.2,7.9  c-1,0.3-2-0.1-2.7,0.6c1.4-0.1,2.7-0.1,4.1-0.5L172.2,7.9z M170.2,9L170.2,9c-0.5,0-1,0.4-1.4,0l-0.1,0.2c0.2,0.1,0.5,0.2,0.8,0.2  h0.1C169.8,9.5,170,9.3,170.2,9 M170.7,9.6l-2.4,0.1c-1.1,0.1-2.5,0.1-3.3,1.1c0.3-0.1,0.5-0.3,0.8-0.4  C167.4,10.1,169.5,10.4,170.7,9.6 M165.8,9.2L165.8,9.2c-0.5,0-1,0.2-1.3,0.6c0.6,0,1.2-0.5,1.5-0.6L165.8,9.2z M161.5,9.9  L161.5,9.9c-0.4,0.1-1,0.1-1.1,0.5C160.7,10.4,161.3,10.2,161.5,9.9 M162.2,10.1L162.2,10.1c-0.4,0-0.8,0.1-0.9,0.4  C161.5,10.5,162,10.4,162.2,10.1 M163.6,9.8L163.6,9.8c-0.4,0-0.5,0.4-1,0.5l0.2,0c0.3,0,0.6-0.3,0.9-0.5L163.6,9.8z M159.5,10.6  h0.5H159.5v0.2c0.2,0,0.4-0.1,0.5-0.2H159.5z M171.3,10L171.3,10c-0.7,0-1.6,0.4-2.2,0.8v0.1c0.9-0.4,2.1-0.7,2.8-0.7  C171.8,10.1,171.5,10,171.3,10 M160.2,11l-0.2,0.4l0.5-0.4H160.2z M165.3,11.1L165.3,11.1c-0.5,0.1-1,0.2-1.3,0.7  C164.5,11.8,165.1,11.3,165.3,11.1 M164.1,11.2L164.1,11.2c-0.3,0-0.6,0.2-0.8,0.5h0.1C163.7,11.7,164,11.4,164.1,11.2 M161.5,11.5  l-0.5,0.6c0.1,0,0.1,0,0.1-0.1C161.4,11.9,161.5,11.5,161.5,11.5 M159.5,11.7L159.5,11.7c-1.3,0.6-2.7,1.5-4.2,1.5  c-0.2,0-0.4,0-0.7-0.1v0.2c0.2,0.1,0.5,0.1,0.7,0.1h0.4C157.2,13.3,158.6,12.5,159.5,11.7 M154.1,11.9L154.1,11.9  c-1.2,0.3-2.4,1.1-3.7,1.4l0.3,0C151.8,13.2,153.2,12.7,154.1,11.9 M157.7,12.1L157.7,12.1c-0.4,0.1-1.3,0.2-1.6,0.7  C156.6,12.6,157.3,12.5,157.7,12.1 M162.7,11.2L162.7,11.2c-0.1,0.2-0.9,0.5-0.7,0.8l1-0.7C162.9,11.3,162.8,11.2,162.7,11.2   M165.2,12.5L165.2,12.5c-0.4,0.3-1.1,0.5-1.4,0.9C164.5,13.4,164.8,12.8,165.2,12.5 M164,13L164,13c-0.3,0-0.6,0.2-0.8,0.5  c-0.1,0.1-0.2,0.1-0.3,0.3l0.3-0.3C163.5,13.2,164,13.5,164,13 M162.4,13L162.4,13c-0.4,0.1-0.6,0.4-0.9,0.7h0.1L162.4,13z   M160.2,13.1L160.2,13.1c-2.2,0.2-4.6,0.7-7,0.7c-0.4,0.2-0.8,0.5-1,0.7l1.1-0.2C155.4,13.5,158.2,14.1,160.2,13.1 M160.5,13.6  L160.5,13.6c-0.4,0.3-1.3,0.2-1.9,0.5l2.3,0.1v-0.3l-0.6,0.2C160,13.8,160.5,13.7,160.5,13.6 M162.7,13.7L162.7,13.7  c-0.1,0-0.6,0-0.8,0.4C162.3,14.1,162.5,13.9,162.7,13.7 M152.3,13.5L152.3,13.5l0.2,0.2v0C152.5,13.7,152.4,13.5,152.3,13.5   M167.6,12.3L167.6,12.3c-1,0.9-2.5,0.8-3.6,1.4c0.2,0,0.3,0.1,0.5,0.1c1.3,0.1,2.4-0.9,3.5-1.3C167.9,12.5,167.8,12.3,167.6,12.3   M144.3,14.3L144.3,14.3c-0.4,0.3-1.3,0.4-1.4,0.7h0.4C143.7,14.8,144.4,14.8,144.3,14.3 M152.1,14.1L152.1,14.1  c-0.1,0-0.3,0.1-0.1,0.2C152,14.2,152.1,14.2,152.1,14.1 M161.2,14.5L161.2,14.5c-0.6,0.1-1.4,0.3-1.8,0.3c0.1,0,0.2,0,0.4,0.1h0.4  C160.6,14.8,161,14.7,161.2,14.5 M154.5,14.5L154.5,14.5c-0.5,0.2-1,0.3-1.5,0.3h-0.3l-0.3,0c-0.3,0.2-0.4,0.7-0.4,1l0.8-0.1  c-0.5-0.9,0.1-0.8,0.7-0.8C154,14.9,154.4,14.9,154.5,14.5 M142.7,15.5l0.2,0.2l0,0h-0.1c-0.4,0-0.6,0.5-1,0.7  c0.4,0,0.8-0.4,1.1-0.7h0.1l0,0l0.2-0.2H142.7z M150.9,15.5L150.9,15.5c-0.5,0-0.9,0.3-1.1,0.5C150.1,15.8,150.6,15.8,150.9,15.5   M149.6,15.7l-0.4,0.1L149.6,15.7z M143.8,15.8L143.8,15.8c-0.1,0-0.3,0.1-0.5,0.1L144,16C144,15.8,143.9,15.8,143.8,15.8   M162.8,15.5L162.8,15.5c-0.7,0.3-1.7,0.3-2,0.9l0.2,0l0.1,0C161.7,16.1,162.5,16,162.8,15.5 M164.1,15.8L164.1,15.8  c-0.5,0-1.1,0-1.2,0.5C163.3,16.1,163.7,16.1,164.1,15.8 M160.2,16.1h0.3H160.2c-0.4,0.5-1.6,0.4-1.8,0.9c0.7-0.2,1.8-0.2,2.1-0.9  H160.2z M157.8,16.2l-0.6,0.6h0.2L157.8,16.2z M153.8,16.3l-0.4,0.3h0.2C153.7,16.6,153.7,16.5,153.8,16.3 M148.4,16.4l0.1,0.1  l0.5-0.4l-0.1,0h-0.1C148.6,16.1,148.4,16.4,148.4,16.4 M147.8,16.3L147.8,16.3c-0.3,0-0.5,0.1-0.7,0.1l0.5,0.1h0.1  c0.1,0,0.2-0.1,0.2-0.1L147.8,16.3z M144.4,16.5L144.4,16.5c-0.1,0.1-0.4,0.1-0.6,0.3C144.1,16.7,144.3,16.6,144.4,16.5 M156.4,16.5  l-1.4,0.8l0.3,0L156.4,16.5z M145.5,16.1l-0.7,0.2c0,0.1,0.1,0.1,0.1,0.1h0.1c0,0,0.1,0,0.1,0C145.2,16.5,145.6,16.3,145.5,16.1   M153.3,16.2h-0.1c-0.2,0-0.4,0.1-0.5,0.3l0.2,0c0.3,0,0.5-0.2,0.8-0.3L153.3,16.2z M154.5,16.6L154.5,16.6c0.2,0.2,0.4-0.1,0.6-0.1  l0.1,0l-1.3,0.5C153.7,16.8,154.2,16.7,154.5,16.6 M144.4,16.9l-0.7,0.2h0.3L144.4,16.9z M156.4,17l-0.7,0.4h0.2L156.4,17z M143,17  L143,17c-0.2,0-0.4,0-0.4,0.1c0.2,0,0.5,0,0.7-0.1L143,17z M158.3,16.5L158.3,16.5c-0.3,0.1-0.7,0.2-1,0.6h0.1  C157.7,16.9,158.4,16.9,158.3,16.5 M146.6,17h-0.1c-0.1,0-0.2,0-0.3,0.1l0.4,0h0.1c0.1,0,0.2,0,0.3-0.1L146.6,17z M147.5,18.1  L147.5,18.1c-0.3,0.1-0.7,0.1-0.9,0.3l0.1,0h0.1C147,18.4,147.3,18.2,147.5,18.1 M149.1,18.2L149.1,18.2c-0.2,0.1-0.5,0.2-0.4,0.5  l0.6-0.5H149.1z M148,18.3L148,18.3c-0.4,0.2-1,0.1-1,0.4C147.3,18.5,147.9,18.7,148,18.3 M144.3,18.2h-0.2c-0.4,0-0.7,0.1-0.9,0.2  h1.5v-0.2L144.3,18.2z M141.1,18L141.1,18c0.4,0.2,1.1,0.6,1.5,0.2L141.1,18z M141,18.5L141,18.5c0.1,0.3,0.6,0.4,0.7,0.1  C141.6,18.6,141.2,18.5,141,18.5 M146.1,18.6L146.1,18.6c-0.4,0-0.9,0.1-1.1,0.3c0.4,0,0.7-0.1,1.1-0.1V18.6z M142.1,18.9h0.6V19  h-0.6V18.9z M140.3,18.9L140.3,18.9l-0.1,0c0,0.1,0.2,0.2,0.4,0.2h0.1c0.1,0,0.1,0,0.2-0.1C140.7,19,140.5,18.9,140.3,18.9   M146.7,19.9h0.7H146.7c0.1,0.2,0.5,0.1,0.7,0H146.7z M139.7,20.2L139.7,20.2c0.2,0.1,0.4,0.4,0.6,0.2  C140,20.3,139.9,20.2,139.7,20.2 M146,20.2L146,20.2c-0.3,0.1-0.8-0.1-0.8,0.3l1.2-0.2L146,20.2z M144.2,20.3L144.2,20.3  c0.1,0.4,0.6,0.4,0.8,0.1L144.2,20.3z M141,20.3L141,20.3c0.1,0.4,0.9,0.6,1.3,0.4C141.9,20.6,141.3,20.7,141,20.3 M146,20.9  L146,20.9c-0.2,0-0.4,0.1-0.6,0.1c-0.3,0-0.7-0.1-1,0c-0.3,0-0.5,0-0.7,0.2l0.4,0h0.2C144.9,21.2,145.6,21.1,146,20.9 M138,21.2  L138,21.2c-0.1,0.1-0.2,0.1-0.3,0.1h-0.1c-0.1,0-0.1,0-0.1,0.2c0,0,0.1,0,0.1,0.1C137.8,21.5,138,21.4,138,21.2 M139.4,20.7  L139.4,20.7c-0.1,0-0.2,0-0.4,0.1l1.8,0.6l0.2-0.2C140.6,21.1,140,20.7,139.4,20.7 M136.9,21.1l0.1,0.2v0L136.9,21.1z M139.4,21.5  L139.4,21.5c0.4,0.2,1.1,0.7,1.7,0.7l0.2,0c0.3,0,0.4,0.4,0.5,0.4h0c0.1,0,0.1-0.1,0.2-0.2C141.5,22.2,140.2,21.8,139.4,21.5   M138.8,21.9L138.8,21.9c0.6,0.9,1.7,0.5,2.4,1.1C140.7,22.2,139.7,22.2,138.8,21.9 M133.2,22.3l1.1,1  C134.1,22.8,133.8,22.5,133.2,22.3 M139.8,23.1L139.8,23.1c0.1,0.2,0.5,0.5,0.7,0.6h0.2c0.1,0,0.1,0,0.2-0.1L139.8,23.1z M129,22.4  L129,22.4c0.4,0.7,1.2,1.1,1.7,1.4C130.2,23.3,129.5,23,129,22.4 M134.7,23.2L134.7,23.2c0.2,0.5,0.8,0.4,1.1,0.8v-0.2  C135.5,23.4,135.1,23.2,134.7,23.2 M138,23.4L138,23.4c0.3,0.2,1,0.5,1.3,0.5C139.1,23.4,138.5,23.6,138,23.4 M115.1,21.5  L115.1,21.5c0.3,0.9,0,1.9,0.5,2.5C115.5,23.1,115.5,22.3,115.1,21.5 M137.4,23.6l0.6,0.6L137.4,23.6z M132.2,23.9L132.2,23.9  c-0.2,0.3,0.1,0.5,0.4,0.4C132.7,23.9,132.3,24.1,132.2,23.9 M133.2,24.4l0.5,0.4v-0.1C133.6,24.4,133.5,24.4,133.2,24.4   M131.2,23.6L131.2,23.6c-0.1,0.7,0.7,0.9,1.2,1.3C132.1,24.3,131.3,24.2,131.2,23.6 M145.1,24.6l0.9,0.3l0-0.2L145.1,24.6z   M103.3,23.6l0.5,0.5c0.5,0.1,0.7,0.5,0.9,0.9l0,0.1c0.2,0.3,0.4,0.6,0.8,0.7l-0.1-0.2c-0.3-0.5,0.6-0.5,0.7-0.8  c-0.4,0.1-0.9,0.3-1.4,0.3l0,0l0-0.1c0-0.1,0.1-0.3,0.1-0.4L103.3,23.6z M136.7,23.9L136.7,23.9c0.6,0.6,1.5,1.1,2.3,1.1  C138.2,25,137.5,24.2,136.7,23.9 M143.1,25l-0.1,0.1C142.9,25.1,143,25.1,143.1,25L143.1,25z M139.9,24.8L139.9,24.8  c-0.2,0-0.5,0.5-0.7,0.6C139.5,25.2,139.9,25.1,139.9,24.8L139.9,24.8z M142.7,25.4l0.2,0h0.2l0.6,0c0.2,0,0.4,0,0.6,0.1  c-0.3,0-0.6,0.1-1,0.1h-0.1C143.1,25.6,142.8,25.6,142.7,25.4 M100,24.6l-0.6,0v0c1.5,0,3.1,0.8,4.6,0.8v-0.2h-0.3  C102.5,25.3,101.4,24.7,100,24.6 M110.9,24.7L110.9,24.7c1.1,0.1,1.9,0.7,2.9,0.8h0.4c0.1,0,0.3,0,0.5-0.1c-0.7,0.6-1.8,0.2-2.8,0.1  C111.6,25.2,111.1,25.2,110.9,24.7 M147.8,25.1l1.5,0.7l0.1-0.2C148.9,25.2,148.4,25.1,147.8,25.1 M99.9,25L99.9,25  c0.7,0,1,0.7,1.7,0.7c0.1,0,0.2,0,0.3,0v0.1c-0.1,0-0.2,0-0.3,0c-0.6-0.1-1.2-0.8-1.8-0.8L99.9,25z M128.8,25.9L128.8,25.9  c0.1,0.7,0.8,1.4,1,2.1l0,0c0,0-0.1-0.1-0.2-0.1c0.2,1.5,2.3,1.7,3.4,2.3c-1.1-0.8-2.3-1.5-3-2.7C129.5,27,129.7,26.2,128.8,25.9   M103.3,25.6L103.3,25.6c0.2,0.2,0.6,0.4,0.9,0.4h0.1c0.2,0,0.4-0.1,0.5-0.1L103.3,25.6z M146.4,25.2l1.9,0.8l0.1-0.2  C147.8,25.6,147.1,25.4,146.4,25.2 M109.1,24.3L109.1,24.3c0.9,0.3,1.5,1.8,2.4,1.8C110.6,25.4,110.3,24.4,109.1,24.3 M101,26.1  L101,26.1c0.3,0.1,0.5,0.1,0.8,0.2c0.5,0,0.9-0.1,1.3-0.1c0.3,0,0.6,0,0.9,0.2h0.5v0.2l-0.6,0C102.8,26.6,101.7,26.5,101,26.1   M128.8,23.1v0.3c1.8,0.6,1.5,2.9,3.4,3v-0.2c-0.2-0.4-0.7-0.4-1.1-0.4C131,24.4,129.7,23.7,128.8,23.1 M104.8,26.3l1.3,0.1v-0.1  L104.8,26.3z M135.4,24.9L135.4,24.9c0.4,0.5,0.9,1.3,1.6,1.7C136.6,26,136.1,25.4,135.4,24.9 M106.1,26.8L106.1,26.8  c-1.3,0.1-2.5,0.4-3.8,0.2c-0.4-0.1-1-0.3-1.3-0.3l-0.1,0C102.5,27.3,104.5,27.5,106.1,26.8 M111.1,25.6L111.1,25.6  c1,0.8,2.5,0.6,3.5,1.5C113.9,25.4,112.2,26.3,111.1,25.6 M132.8,26.7L132.8,26.7L133,27l0.1-0.1C133,26.8,132.9,26.7,132.8,26.7   M100.3,27.1L100.3,27.1c0.6,0.6,1.6,0.3,2.3,0.9c0.2-0.1,0.5-0.2,0.8-0.2c0.3,0,1.2,0,1.4,0c0.3,0,0.6-0.1,0.8-0.2l-0.1-0.1  C103.9,27.9,101.9,27.6,100.3,27.1 M133.8,27.1L133.8,27.1c0.5,1.2,2.5,1.4,3.2,2.6c0,0.1-0.1,0.1-0.1,0.1h0l-0.1,0  c0.3,0.5,0.8,0.1,1.1,0.5c-0.3-0.6-0.3-0.8-0.8-1.2c-0.7,0-1.3-0.8-1.9-1.3C134.6,27.6,134.1,27.5,133.8,27.1 M109,26.7l0.5,0.3  c0.1-0.1,0.2-0.2,0.3-0.2c0.3,0,0.6,0.4,1,0.2c-0.3-0.2-0.6-0.2-0.9-0.2h-0.3C109.5,26.9,109.2,26.8,109,26.7 M137.6,26.4  L137.6,26.4c0.1,0.7,0.5,0.8,0.9,1.2c0-0.4-0.3-0.6-0.6-0.7C137.8,26.8,137.9,26.4,137.6,26.4 M110.9,27.4l-0.1,0.1  c0,0.2,0.3,0.3,0.5,0.3C111.3,27.6,111.1,27.4,110.9,27.4 M128.9,27.2l0.5,0.6L128.9,27.2z M140.1,26.4l3,1.4c0.1,0,0.2,0,0.4,0  c0.5,0,1.1,0.3,1.3,0.7c0,0,0,0,0.1,0c0.1,0,0.2,0,0.2-0.1C143.5,27.1,141.8,27.1,140.1,26.4 M139.2,27.3L139.2,27.3  c0.6,0,0.8,0.7,1.5,0.5c0,0.2-0.2,0.3-0.4,0.5c-0.3-0.5-0.7-0.7-1.2-1H139.2z M137.8,27.8L137.8,27.8c0,0.4,0.5,0.2,0.8,0.4  C138.4,27.9,138,28,137.8,27.8 M131.5,26.6L131.5,26.6c0.2,1.4,1.8,0.8,2.5,1.6l0.1,0.1l-0.1-0.1C133.3,27.4,132.2,27.4,131.5,26.6   M129.2,25.3L129.2,25.3c0.8,1.8,2.7,2.2,3.9,3.4v-0.3c-0.1-0.2-0.5-0.3-0.7-0.4C131.2,26.8,130.1,26.4,129.2,25.3 M139,28.4  L139,28.4c0,0.3,0.5,0.3,0.6,0.3L139,28.4z M103.2,28.8l0.1,0h0.1c0.5,0,1.1-0.2,1.7-0.2c0.5,0,1,0.1,1.3,0.5  c-0.2-0.1-0.4-0.2-0.7-0.2h-0.4c-0.4,0-0.8,0.1-1.2,0.1h-0.4C103.7,28.9,103.4,28.9,103.2,28.8 M111.6,28.4L111.6,28.4  c1,0.1,1.9,1,2.8,0.5l0.1,0.2c-0.2,0.2-0.5,0.2-0.7,0.3h-0.3C112.9,29.2,112.2,28.7,111.6,28.4 M141.5,27.8l0.1,0.1  c0.5,0.4,1.1,0.9,1.7,1.2c-0.1-1-1.1-0.8-1.7-1.2L141.5,27.8z M141,28.4l1.4,0.7v0L141,28.4z M110,29.1L110,29.1  c0.2,0,0.5,0.1,0.7,0.1c0.1,0,0.1,0,0.2-0.1l1.1,0.1c-0.8,0.4-1.4,0.2-2.4,0.2C109.7,29.1,109.8,29,110,29.1 M134.3,28.4L134.3,28.4  c0.3,0.7,1.2,0.4,1.4,1.1C135.8,28.7,134.9,28.9,134.3,28.4 M102.5,29.1L102.5,29.1c0.9,0.3,2.3,0.2,3.1,0.7v-0.1  C104.7,29.3,103.5,29.3,102.5,29.1 M106.1,29.3L106.1,29.3c0.2,0.4,0.4,0.5,0.5,0.5h0.1c0.3,0,0.6-0.3,1-0.3c0.1,0,0.2,0,0.4,0.2  l1.1,0.9c-0.6-0.1-1.2-0.8-1.8-0.8c-0.2,0-0.3,0-0.5,0.2C106.4,30,106.1,29.6,106.1,29.3 M138.6,29.5L138.6,29.5  c0,0.4,0.3,0.8,0.7,0.9l0.1-0.1C139.1,30.1,138.8,29.7,138.6,29.5 M133.1,29l1.8,1.3l-0.2-0.2L133.1,29z M139.5,29.4l-0.1,0l1,0.9  v-0.1C140.3,29.9,139.8,29.4,139.5,29.4 M137.5,28.6L137.5,28.6c0.8,0.5,0.5,1.5,0.9,1.9C138.3,29.7,138.4,28.8,137.5,28.6   M104.8,31.1L104.8,31.1c0.2,0.2,0.5,0.2,0.8,0.2h0.2c0.4,0,0.8-0.1,1.2-0.1c0.4,0,0.7,0.1,1,0.4h1c0,0.4-0.5,0.2-0.7,0.4  C107.2,31.2,105.9,31.7,104.8,31.1 M138.7,30.4L138.7,30.4c0.3,0.3,0.3,0.8,0.5,1.1C139.1,31.1,139.1,30.7,138.7,30.4 M139.6,31  L139.6,31c0.2,0.2,0.7,0.4,1,0.6C140.3,31.2,140,31.1,139.6,31 M136.8,30.4l1.7,1.5l-0.1-0.2L136.8,30.4z M135.1,30L135.1,30  c0.7,0.7,1.8,1.3,2.6,2C137.1,30.8,135.9,30.5,135.1,30 M139.9,31.7l0.8,0.7l0,0L139.9,31.7z M121,29.7h-0.1l-0.1,0l0.1,0.3  c0.1,0,0.1,0.1,0.2,0.1h0.1c0,0,0.1,0,0.1-0.1C121.2,29.7,121.1,29.7,121,29.7 M121,30.8L121,30.8c0.2,0.2,0.3,0.6,0.6,0.7h0.2  C121.6,31.2,121.4,31,121,30.8 M120.6,31.1l0.6,0.6v-0.1C121.1,31.4,120.9,31.1,120.6,31.1 M119.5,31l1,1.1l0.4-0.2  C120.5,31.7,120.1,31.1,119.5,31 M121.4,30.4L121.4,30.4c0.6,0.8,1.5,1.3,2.3,2.3C123.6,31.7,122.3,31,121.4,30.4 M130.6,31.2  L130.6,31.2c0.3,0.6,1.3,1.1,1.7,1.6C131.9,32.1,131.2,31.4,130.6,31.2 M112.7,32.4l-0.3,0.1l0.5-0.1H112.7z M129.9,31.3L129.9,31.3  c0.3,0.7,1.1,1.2,1.6,1.7C131.4,32.4,130.4,31.8,129.9,31.3 M118.5,32L118.5,32c0,0.7,0.5,0.9,0.8,1.5  C119.7,32.9,118.8,32.5,118.5,32 M126.3,31.4L126.3,31.4c0.4,1,1.6,1.5,2.1,2.4C127.8,33,127.1,32,126.3,31.4 M138.6,33.9l0.2,0.2  V34L138.6,33.9z M129.6,32.9l0.8,1.4V34L129.6,32.9z M113.3,33.7L113.3,33.7c0.6,0.3,1.3,0.6,1.8,0.6C114.6,34,114,33.7,113.3,33.7   M125.9,31.9l0.1,0.4c0.7,0.6,1.6,1.2,2.2,2C127.8,33.2,126.5,32.8,125.9,31.9 M142.7,34.2h-0.1l-0.1,0c0,0.2,0.1,0.3,0.2,0.3h0.1  c0.1,0,0.2,0,0.2,0l0.1,0C143.1,34.4,142.9,34.2,142.7,34.2 M129,33.2L129,33.2c0,0.5,0.7,1.1,0.9,1.6  C129.9,34.2,129.4,33.6,129,33.2 M126.4,33.1L126.4,33.1c0.6,1.1,1.6,1.8,2.2,2.7C128.5,34.6,127,34.1,126.4,33.1 M128.8,35.5  l0.6,0.8l0.1-0.1L128.8,35.5z M126.1,33.7L126.1,33.7c0.6,1.3,2,2,2.8,3.2C128.4,35.4,126.9,35,126.1,33.7 M127.1,35.7L127.1,35.7  c0.4,0.7,1.3,1.5,1.9,2C128.4,37,127.9,36.1,127.1,35.7 M141,37.7L141,37.7c0.1,0,0.2,0.3,0.4,0.3l0.2,0l1,1.2  C142.5,38.4,141.8,37.9,141,37.7 M117.4,35.7L117.4,35.7c-0.4,0.8-0.1,1.8,0.3,2.7C117.7,37.7,117.3,36.6,117.4,35.7 M141.6,40.2  L141.6,40.2c0,0.4,0.7,0.7,0.4,1.1l-0.8-0.8l0.8,1.1c0.6,0.6,0,1.4,0.5,2.1l-0.4,0c0.3,0.4,1.1,0.5,0.9,1.1  c-0.7-0.7-1.6-1.3-2.3-2.1c-0.1-0.7-0.4-1.9-1.2-2.2l0.7,1c-0.7,2.7,3,2.6,3.2,4.9c0-1-0.1-1.9-0.8-2.4l0.6-0.1  c-0.8-0.7-0.9-2-1-2.9C142.3,40.6,141.9,40.4,141.6,40.2 M142.1,39.6l1,0.6l-0.3-0.3L142.1,39.6z M140,39.2L140,39.2  c0,0.4,0.6,0.7,0.9,1.1v-0.2C140.8,39.7,140.3,39.2,140,39.2 M129.4,40.4l0.2,0.3v-0.2L129.4,40.4z M125.9,39.5L125.9,39.5  c0.2,0.6,0.5,1.3,1.1,1.5l0.1-0.1C126.3,40.6,126.4,39.9,125.9,39.5 M126.6,41.3L126.6,41.3c0.4,0.7,0.7,1.4,0.8,2.2l-0.1,0h0  c0.4,0.5-0.2,1.3,0.4,1.8C127.1,43.8,127.9,42.4,126.6,41.3 M143,40.4l0.9,1.1l-0.2-0.4C143.7,40.8,143.4,40.4,143,40.4 M146.2,41.6  l0.6,0.5l-0.3-0.4L146.2,41.6z M130.1,41.6l0.3,0.5V42L130.1,41.6z M127,40.4L127,40.4c0.3,0.9,0.8,1.5,1.7,1.9L127,40.4z   M144.4,40.2L144.4,40.2c0.4,0.8,1.1,1.5,1.9,2.1C145.9,41.5,145,40.9,144.4,40.2 M138.8,40L138.8,40c0.7,0.7,0.5,1.6,1.1,2.4  C139.8,41.5,139.7,40.4,138.8,40 M139.6,40L139.6,40c0.7,0.9,1.8,1.6,2.4,2.5C141.9,41.6,140.7,40.4,139.6,40 M143.7,40.5  L143.7,40.5c0.2,1,1.5,1.6,2,2.1L143.7,40.5z M147.2,42.5l0.7,0.8v-0.2L147.2,42.5z M125.4,42.8L125.4,42.8c0.3,0.4,0.6,1.2,1,1.6  C126.1,43.8,125.9,43.1,125.4,42.8 M126.4,42.6L126.4,42.6c0.3,0.8,0.3,1.7,0.6,2.4C127.3,44.3,126.7,43.3,126.4,42.6 M136.2,44.8  L136.2,44.8c0.2,0.4,0.8,1,1.3,1L136.2,44.8z M146.7,43.3L146.7,43.3c0.8,0.7,1.2,1.7,2.1,2.4C148.3,44.8,147.5,44.1,146.7,43.3   M143.4,42.4L143.4,42.4c0.7,1.8,2.9,1.6,3.9,3.4C146.5,43.8,144.4,44.1,143.4,42.4 M145.1,44.5L145.1,44.5l1.8,1.6  C146.7,45.3,145.7,44.8,145.1,44.5 M146.8,42.5L146.8,42.5c0.8,1.3,2.1,2.9,3.4,3.7C149.1,45,147.9,43.8,146.8,42.5 M126.1,44.8  L126.1,44.8c0.6,0.4,0.3,1.3,0.9,1.7C126.8,45.9,126.7,44.9,126.1,44.8 M149.1,46v0.2c0.3,0.1,0.5,0.3,0.7,0.3l0.1,0  C149.6,46.5,149.4,46.1,149.1,46 M127.9,44.1L127.9,44.1c0.1,1,0.2,2.2,1,2.9C128.2,46.1,128.4,44.9,127.9,44.1 M136.3,45.4  L136.3,45.4c0.2,0.7,1,1.3,1.4,1.5C137.3,46.5,136.9,45.9,136.3,45.4 M128.8,44.9L128.8,44.9c0.3,0.7,0.1,1.6,0.8,2.2  C129.3,46.4,129.3,45.6,128.8,44.9 M150.7,46.5L150.7,46.5l0.3,0.8V47C151.1,46.7,151,46.5,150.7,46.5 M142.5,45.9l0.8,1.4l-0.2-0.5  L142.5,45.9z M147.2,46.2l-0.1,0.2l1.2,0.9C148,47,147.8,46.5,147.2,46.2 M150.2,47l1.1,0.7C151.1,47.4,150.7,47.1,150.2,47   M144.4,46.1L144.4,46.1c0.3,1.1,1.8,1.4,2.5,2.1C146.4,47.1,145.1,47.2,144.4,46.1 M148.7,47.7l0.7,0.8v-0.2  C149.2,47.9,148.9,47.9,148.7,47.7 M124.1,42.4L124.1,42.4c1,0.5,0.9,1.5,1.5,2.1c0.2,1,0.2,2.1,0.8,3h-0.5l0.6,1.2  c0.2-0.1,0.6-0.1,0.6-0.3c0-0.2-0.1-0.2-0.2-0.2c-0.1,0-0.2,0-0.3,0c0.1-0.3,0.4-0.5,0.3-0.8c-0.7-0.8-1-1.9-1.2-2.9  C125.1,43.8,125.2,42.6,124.1,42.4 M145.2,47.5l-0.2,0c0.5,0.2,0.9,0.8,1.4,1.2C146,48.3,146,47.5,145.2,47.5 M130.8,48.4l0.2,1  l0.1-0.3L130.8,48.4z M140.3,45.1l0.1,0.1c0.3,0.2,0.6,0.6,0.5,1c0.7,0.7,1.4,1.3,1.4,2.4c0.6,0.3,0.4,1.2,0.7,1.6  c0.2-1.1-0.4-1.9-0.6-3c-0.4-0.9-1.2-1.5-2-2L140.3,45.1z M143.8,50.3h0.2H143.8c0.1,0.4-0.1,0.3-0.3,0.3c-0.1,0-0.2,0.1-0.1,0.3  c0,0.2,0.4,0.4,0.5,0.4c0.2-0.3-0.2-0.7,0.1-1H143.8z M127.8,49.8L127.8,49.8c0.3,0.2,0,1,0.5,1l0.1,0c0.1-0.2,0-0.2,0.1-0.3  C128.6,50.2,128.1,50,127.8,49.8 M144.4,50.4L144.4,50.4c0.3,0.3-0.2,1.1,0.5,1.1c0.2,0,0.3-0.1,0.4-0.3l-0.2-0.5  c0.1-0.1,0.3-0.2,0.5-0.2c0,0,0.1,0,0.2,0l-0.2,1.2c-0.6-0.1-1.1,0-1.2-0.8L144.4,50.4z M138.7,52.8L138.7,52.8  c-0.3,0-0.7,0.2-0.9,0.3c0.1,0.7-0.1,1.6,0.8,2c-0.3-0.4-0.4-0.8-0.3-1.2c0-0.4,0.6-0.6,0.7-0.8C139,52.9,138.9,52.8,138.7,52.8"></path>
<path class="st1" d="M120.5,52.2l0.3,0c0.9,0,1.5-0.2,2.3-0.2l0.6,0c0.2-0.4,1.2-0.2,1.6-0.4c-0.9,0.5-2,0.5-3,0.8l0.1,0.7  c0-0.3-0.9-0.3-1-0.7l-0.2,0.1c-0.1-0.1-0.2-0.1-0.2-0.1c-0.3,0-0.6,0.7-1,0.4c-0.1,0.2-0.1,0.2,0,0.2h0l0.4,0c0.1,0,0.2,0,0.2,0.1  c-0.3,0.2-1.3,0.4-1.4,1.2c0.1,0.3,0.1,0.7,0.4,0.9l1.2-1.3c0.2,0,0.4-0.1,0.6-0.1l0.3,0.1l-0.3-0.5l0.1,0c0.2,0,0.5,0.1,0.8,0.3  c0.1,0.3,0.6,0.7,0.2,1c-0.5,0.7-0.5-0.4-1-0.2c-0.8,0.1-1.6,0.4-1.8,1.2c-0.4-0.5-1-0.9-0.8-1.6C120.2,53.7,119.1,52.2,120.5,52.2"></path>
<path class="st1" d="M123.9,52.5h0.5H123.9z M124.7,54L124.7,54l-0.3-0.1c0-0.1,0.2-0.2,0.3-0.2l0.3,0v-0.1  c-0.2-0.2-0.5-0.2-0.7-0.2h-0.5c-0.4-0.2,0.2-0.4,0.2-0.7c-0.6,0.1-0.1,0.7-0.6,0.9l0.3,0.2l-0.1,0c-0.1,0.6-0.3,1.3,0.1,1.7  c-0.1-0.6,0.4-1,0.4-1.2C124.2,54.3,124.4,54,124.7,54 M123.9,52.5h0.5c0,0.2-0.3,0.5-0.3,0.7c1,0,2,0.3,2.5,1.2  c0.4-0.3-0.1-0.9-0.4-1c-0.1-0.3-0.4-0.4-0.5-0.6c0.4,0.1,1.3,0.8,1.3-0.2c0.3,0.1,0.4,0.3,0.5,0.4c0.2-0.3-0.4-0.4-0.4-0.8  c0.5,0,0.6,0.4,0.8,0.5l0.1,0.6c0.1-0.1,0.2-0.1,0.2-0.1c0.3,0,0.5,0.5,0.7,0.6c-0.1,0.2,0,0.6,0.1,0.7h0.1c0.3-0.4-0.2-0.7,0.2-1.1  c0.4,0.1,0.3,0.7,0.6,0.9c-0.1-0.6,0.6-0.8,0.8-1.2h0.2c0.5-0.1,0.5-0.8,1-0.8c0.1,0,0.3,0.1,0.4,0.2l0.6,0.6l-0.2,0.2  c0.5,0.5,0.9,1,1.2,1.6c-0.1,0.5,0,1.2-0.6,1.5c-0.5-0.6-0.9-1.7-1.8-1.6c-0.4,0.6-1.1,0.2-1.6,0.3c-0.5-0.9-1.9,0.1-1.5-1.3h-0.2  h0.2h-0.2c-0.8,0.1-0.3,2.4-1.7,1.2l0.7-0.4c-0.1-0.1-0.2-0.1-0.2-0.1c-0.3,0-0.5,0.6-1,0.6l-0.2-0.1h-0.1c-0.4,0-0.8,0.3-1.2,0.5  l-0.2,0.5c-0.4,0-0.9-0.4-1.1-0.8c-0.1-0.6,0.4-1.2-0.1-1.6C123.9,53.6,122.9,52.6,123.9,52.5 M129.6,54.6l0.4,0L129.6,54.6z   M125,54.8L125,54.8c-0.3,0-0.5,0.1-0.3,0.3h0.3V54.8z M131.6,53.5L131.6,53.5c-0.2,0-0.4,0.1-0.5,0.4c0.3,0.8,1.5,0.9,2,1.6  c0-0.7-1.1-0.9-0.7-1.6C132.1,53.7,131.8,53.5,131.6,53.5"></path>
</svg>
